STARTFONT 2.3
FONT -FontForge-Source Code Pro-Book-R-Normal--16-160-72-72-M-100-ISO10646-1
SIZE 16 72 72  4
FONTBOUNDINGBOX 18 27 -5 -7
COMMENT "Generated by fontforge, http://fontforge.sourceforge.net"
COMMENT "Copyright 2010, 2012 Adobe Systems Incorporated (http://www.adobe.com/), with Reserved Font Name `Source'."
STARTPROPERTIES 42
FOUNDRY "FontForge"
FAMILY_NAME "Source Code Pro"
WEIGHT_NAME "Book"
SLANT "R"
SETWIDTH_NAME "Normal"
ADD_STYLE_NAME ""
PIXEL_SIZE 16
POINT_SIZE 160
RESOLUTION_X 72
RESOLUTION_Y 72
SPACING "M"
AVERAGE_WIDTH 100
CHARSET_REGISTRY "ISO10646"
CHARSET_ENCODING "1"
FONTNAME_REGISTRY ""
CHARSET_COLLECTIONS "ASCII ISOLatin1Encoding ISO8859-2 ISO8859-9 ISO8859-4 ISO10646-1"
BITS_PER_PIXEL 4
FONT_NAME "SourceCodePro-It"
FACE_NAME "Source Code Pro Italic"
COPYRIGHT "Copyright 2010, 2012 Adobe Systems Incorporated (http://www.adobe.com/), with Reserved Font Name `Source'."
FONT_VERSION "1.050;PS 1.000;hotconv 16.6.51;makeotf.lib2.5.65220"
FONT_ASCENT 12
FONT_DESCENT 4
UNDERLINE_POSITION -2
UNDERLINE_THICKNESS 1
X_HEIGHT 7
CAP_HEIGHT 9
RAW_ASCENT 750
RAW_DESCENT 250
ITALIC_ANGLE 5056
NORM_SPACE 10
RELATIVE_WEIGHT 40
RELATIVE_SETWIDTH 50
SUPERSCRIPT_X 1
SUPERSCRIPT_Y 5
SUPERSCRIPT_SIZE 9
SUBSCRIPT_X 0
SUBSCRIPT_Y 1
SUBSCRIPT_SIZE 9
FIGURE_WIDTH 10
AVG_LOWERCASE_WIDTH 100
AVG_UPPERCASE_WIDTH 100
ENDPROPERTIES
CHARS 1269
STARTCHAR space
ENCODING 32
SWIDTH 600 0
DWIDTH 10 0
BBX 1 1 0 0
BITMAP
00
ENDCHAR
STARTCHAR exclam
ENCODING 33
SWIDTH 600 0
DWIDTH 10 0
BBX 4 10 3 0
BITMAP
00C7
00E4
03E0
06A0
0960
0B20
0000
0000
BD10
DC10
ENDCHAR
STARTCHAR quotedbl
ENCODING 34
SWIDTH 600 0
DWIDTH 10 0
BBX 7 5 2 6
BITMAP
0AE01F90
0DB03F60
0F605F10
2F107B00
3B008600
ENDCHAR
STARTCHAR numbersign
ENCODING 35
SWIDTH 600 0
DWIDTH 10 0
BBX 8 10 1 0
BITMAP
000B20A2
003902A0
0EFFFFFA
00C00B10
01B00C00
05704900
DFFFFFB0
0C00B100
4902A000
94075000
ENDCHAR
STARTCHAR dollar
ENCODING 36
SWIDTH 600 0
DWIDTH 10 0
BBX 8 13 1 -1
BITMAP
00007700
0000A300
019EFC40
08B215E2
0A800010
04F81000
003BE700
00004E60
200008A0
CA203D70
19EFE800
00950000
00C10000
ENDCHAR
STARTCHAR percent
ENCODING 37
SWIDTH 600 0
DWIDTH 10 0
BBX 11 10 -1 0
BITMAP
01AEC1000580
0A7197005B10
1D007605A000
1E23D2060000
07EC40000000
0004308ED300
005A06B15B00
08A00B203A00
39000C41B500
000004DD7000
ENDCHAR
STARTCHAR ampersand
ENCODING 38
SWIDTH 600 0
DWIDTH 10 0
BBX 10 10 0 0
BITMAP
0004CE9000
001E42F100
005B03D000
005C5C3000
004FA10081
07DB8007A0
5D12E32D20
A8006EC500
8C215EE610
1AEEB34C40
ENDCHAR
STARTCHAR quotesingle
ENCODING 39
SWIDTH 600 0
DWIDTH 10 0
BBX 3 5 4 6
BITMAP
0DC0
1F80
3F30
4D00
6900
ENDCHAR
STARTCHAR parenleft
ENCODING 40
SWIDTH 600 0
DWIDTH 10 0
BBX 6 15 3 -3
BITMAP
00004A
0007D2
007C10
03E200
0C6000
3E0000
890000
B60000
C40000
C40000
B60000
7A0000
3E1000
0AA000
01B200
ENDCHAR
STARTCHAR parenright
ENCODING 41
SWIDTH 600 0
DWIDTH 10 0
BBX 7 15 0 -4
BITMAP
00086000
0002E300
00007A00
00002F10
00000D40
00000C50
00000C50
00000E30
00002E00
00008900
0002E200
000B8000
01BA0000
2D900000
14000000
ENDCHAR
STARTCHAR asterisk
ENCODING 42
SWIDTH 600 0
DWIDTH 10 0
BBX 8 7 1 2
BITMAP
0000A000
0003B000
3A579494
04CFFB40
008DD000
06B1B500
1A103A00
ENDCHAR
STARTCHAR plus
ENCODING 43
SWIDTH 600 0
DWIDTH 10 0
BBX 8 9 1 1
BITMAP
00011000
000B4000
000B4000
000B4000
9FFFFFF3
000B4000
000B4000
000B4000
00011000
ENDCHAR
STARTCHAR comma
ENCODING 44
SWIDTH 600 0
DWIDTH 10 0
BBX 5 6 1 -4
BITMAP
00AE30
00DF60
001F50
008D10
18E400
6A2000
ENDCHAR
STARTCHAR hyphen
ENCODING 45
SWIDTH 600 0
DWIDTH 10 0
BBX 8 1 1 5
BITMAP
9FFFFFF3
ENDCHAR
STARTCHAR period
ENCODING 46
SWIDTH 600 0
DWIDTH 10 0
BBX 4 3 2 0
BITMAP
0AD1
2FF3
1DB0
ENDCHAR
STARTCHAR slash
ENCODING 47
SWIDTH 600 0
DWIDTH 10 0
BBX 10 14 0 -3
BITMAP
00000002E2
0000000A70
0000003D10
000000C500
000006C000
00001D3000
00008A0000
0002E20000
000A700000
004D100000
00C5000000
06C0000000
1D30000000
8900000000
ENDCHAR
STARTCHAR zero
ENCODING 48
SWIDTH 600 0
DWIDTH 10 0
BBX 8 10 1 0
BITMAP
005CFD40
06D415E2
2E2000A7
9A00008A
D50C9089
F30D70A7
F20001F3
D50008B0
8C217E20
08EEA200
ENDCHAR
STARTCHAR one
ENCODING 49
SWIDTH 600 0
DWIDTH 10 0
BBX 8 10 0 0
BITMAP
00048DB0
00078D80
00000D50
00001F20
00004E00
00008B00
0000B700
0000E400
0002F100
4FFFFFFA
ENDCHAR
STARTCHAR two
ENCODING 50
SWIDTH 600 0
DWIDTH 10 0
BBX 8 10 0 0
BITMAP
0018DEB2
00C9219C
0020004E
0000006C
000001D5
00001C80
0001C800
003D7000
05E50000
4FFFFFFD
ENDCHAR
STARTCHAR three
ENCODING 51
SWIDTH 600 0
DWIDTH 10 0
BBX 9 10 0 0
BITMAP
0018DFD600
0078216F20
0000001F20
000014B900
0009FE5000
000026E400
0000009A00
0200009A00
4E6116E400
04BEEB4000
ENDCHAR
STARTCHAR four
ENCODING 52
SWIDTH 600 0
DWIDTH 10 0
BBX 9 10 0 0
BITMAP
0000009F20
000009CE00
0000AA6B00
000A909800
01B800D500
1B7001F100
9FFFFFFF70
000007A000
00000A8000
00000C5000
ENDCHAR
STARTCHAR five
ENCODING 53
SWIDTH 600 0
DWIDTH 10 0
BBX 9 10 0 0
BITMAP
002FFFFF80
005C000000
0098000000
00C5000000
01FBEEB200
017312BB00
0000005E00
0200007C00
5D5116E300
05CEEA3000
ENDCHAR
STARTCHAR six
ENCODING 54
SWIDTH 600 0
DWIDTH 10 0
BBX 8 10 1 0
BITMAP
002AEEB3
04E71179
1D600000
7C000000
B77DFC30
DD6118D0
E40001F1
C50004E0
6D314D60
06DFC500
ENDCHAR
STARTCHAR seven
ENCODING 55
SWIDTH 600 0
DWIDTH 10 0
BBX 9 10 1 0
BITMAP
1FFFFFFF20
000001C500
00001C5000
0000A90000
0005D10000
000D500000
006D000000
00C7000000
02F3000000
06E0000000
ENDCHAR
STARTCHAR eight
ENCODING 56
SWIDTH 600 0
DWIDTH 10 0
BBX 8 10 1 0
BITMAP
006CED60
05E413E3
079000A7
01B201D4
06EE8CB0
6E63BB00
D5000970
E30005D0
AB203D90
19EED700
ENDCHAR
STARTCHAR nine
ENCODING 57
SWIDTH 600 0
DWIDTH 10 0
BBX 9 10 0 0
BITMAP
0018EEB300
00BA217E10
05D0000B60
07A0000A80
04E403AE80
007DFC5C50
0000002F10
000000B900
1B313CC100
06DFD70000
ENDCHAR
STARTCHAR colon
ENCODING 58
SWIDTH 600 0
DWIDTH 10 0
BBX 5 9 2 0
BITMAP
008E30
00FF50
00CC10
000000
000000
000000
0AD100
2FF300
1DB000
ENDCHAR
STARTCHAR semicolon
ENCODING 59
SWIDTH 600 0
DWIDTH 10 0
BBX 6 13 1 -4
BITMAP
0008E3
000FF5
000CC1
000000
000000
000000
000000
00AE30
00DF60
001F50
008D10
18E400
6A2000
ENDCHAR
STARTCHAR less
ENCODING 60
SWIDTH 600 0
DWIDTH 10 0
BBX 7 9 1 1
BITMAP
00000290
00006D40
002BB100
06E60000
1F500000
06E60000
002BA100
00006D40
00000290
ENDCHAR
STARTCHAR equal
ENCODING 61
SWIDTH 600 0
DWIDTH 10 0
BBX 8 5 1 3
BITMAP
9FFFFFF3
00000000
00000000
00000000
9FFFFFF3
ENDCHAR
STARTCHAR greater
ENCODING 62
SWIDTH 600 0
DWIDTH 10 0
BBX 7 9 1 1
BITMAP
47000000
08C20000
004D7000
0001AC20
00000BA0
0001AC20
004D7000
08C20000
47000000
ENDCHAR
STARTCHAR question
ENCODING 63
SWIDTH 600 0
DWIDTH 10 0
BBX 7 10 2 0
BITMAP
03BEE800
1D503F30
00002E10
0005C300
00991000
04C00000
00000000
00000000
2DA00000
4E800000
ENDCHAR
STARTCHAR at
ENCODING 64
SWIDTH 600 0
DWIDTH 10 0
BBX 10 12 0 -2
BITMAP
00029EEC30
004E7215D0
02E30000C1
0B600000C1
2D0016BEE0
6902D946B0
8609700C80
860A719E50
7803DE7A20
4D00000000
0BB3138000
018EFC4000
ENDCHAR
STARTCHAR A
ENCODING 65
SWIDTH 600 0
DWIDTH 10 0
BBX 9 10 -1 0
BITMAP
000001EC00
0000089E00
00002E1F10
0000A70E30
0004E10C50
000C700A70
006FFFFF90
01E60007B0
08C00006D0
2F400004F0
ENDCHAR
STARTCHAR B
ENCODING 66
SWIDTH 600 0
DWIDTH 10 0
BBX 9 10 0 0
BITMAP
005FFFD910
008B003D90
00B70009A0
00E4003E40
03FCBDC400
06D445BA00
09A0000E40
0C60001F30
1F3013BB00
4FFFEC7100
ENDCHAR
STARTCHAR C
ENCODING 67
SWIDTH 600 0
DWIDTH 10 0
BBX 9 10 1 0
BITMAP
0007DFD500
01CB304D10
0AB0000000
3F30000000
8B00000000
B800000000
B900000000
8C00000000
1E9216A000
02BEEB2000
ENDCHAR
STARTCHAR D
ENCODING 68
SWIDTH 600 0
DWIDTH 10 0
BBX 9 10 0 0
BITMAP
00AFFEA300
00D6029F30
01F3000BA0
04E00007D0
07B00006D0
0B800008B0
0E50000D70
2F20007E10
5E0039E300
8FFFD92000
ENDCHAR
STARTCHAR E
ENCODING 69
SWIDTH 600 0
DWIDTH 10 0
BBX 9 10 1 0
BITMAP
01FFFFFF60
04E0000000
07B0000000
0A80000000
0DFFFFA000
1F20000000
5E00000000
8B00000000
B800000000
EFFFFFA000
ENDCHAR
STARTCHAR F
ENCODING 70
SWIDTH 600 0
DWIDTH 10 0
BBX 9 10 1 0
BITMAP
00BFFFFFA0
00E4000000
02F1000000
06C0000000
09FFFFD000
0C60000000
0F30000000
3F00000000
6C00000000
9900000000
ENDCHAR
STARTCHAR G
ENCODING 71
SWIDTH 600 0
DWIDTH 10 0
BBX 8 10 1 0
BITMAP
0019DFC3
03E9206C
1D800000
7D000000
C7000000
F400BFF9
E50000C5
C80001F2
5F6117E0
04CFEA30
ENDCHAR
STARTCHAR H
ENCODING 72
SWIDTH 600 0
DWIDTH 10 0
BBX 10 10 0 0
BITMAP
00B80000E5
00E40003F1
02F10006D0
05D00009A0
08FFFFFF70
0C60001F40
0E30003F10
3F10006D00
6C0000A900
990000D600
ENDCHAR
STARTCHAR I
ENCODING 73
SWIDTH 600 0
DWIDTH 10 0
BBX 10 10 0 0
BITMAP
007FFFFFF1
00001F3000
00004E0000
00007C0000
0000A80000
0000D50000
0001F20000
0005E00000
0008B00000
5FFFFFF200
ENDCHAR
STARTCHAR J
ENCODING 74
SWIDTH 600 0
DWIDTH 10 0
BBX 9 10 0 0
BITMAP
001FFFFF80
0000000E50
0000002F20
0000005D00
0000008A00
000000C700
000000E400
010005E000
6D314D6000
08DEC60000
ENDCHAR
STARTCHAR K
ENCODING 75
SWIDTH 600 0
DWIDTH 10 0
BBX 10 10 0 0
BITMAP
005E0002D6
008A003D50
00B704D400
00E45D3000
03F6FB0000
06FD4F3000
09C10AA000
0C7003F200
0F3000C900
3F00005F10
ENDCHAR
STARTCHAR L
ENCODING 76
SWIDTH 600 0
DWIDTH 10 0
BBX 8 10 1 0
BITMAP
006C0000
00990000
00D60000
01F30000
04E00000
07C00000
0A900000
0D500000
2F200000
5FFFFFF2
ENDCHAR
STARTCHAR M
ENCODING 77
SWIDTH 600 0
DWIDTH 10 0
BBX 10 10 0 0
BITMAP
00BE0005F5
00EE101DE2
03DC308AE0
06BA52D7A0
09887A6A70
0C56AD0D40
1F24F41F10
4E01404D00
7A00008A00
A70000B700
ENDCHAR
STARTCHAR N
ENCODING 78
SWIDTH 600 0
DWIDTH 10 0
BBX 10 10 0 0
BITMAP
009E0000E4
00CE4002F1
01F89005C0
04D3E00890
07B0D40C60
0A80890E30
0D503E2E00
1F100D8C00
4D0008E800
7A0003F500
ENDCHAR
STARTCHAR O
ENCODING 79
SWIDTH 600 0
DWIDTH 10 0
BBX 9 10 0 0
BITMAP
0006CFD600
009D413D60
05E20006D0
0C800003F0
2F300004F0
4F000007D0
4E00000C80
2F20005E20
0AB216E500
019EEB3000
ENDCHAR
STARTCHAR P
ENCODING 80
SWIDTH 600 0
DWIDTH 10 0
BBX 10 10 0 0
BITMAP
003FFFEB30
006D0029E0
009A0002F2
00C70004F1
01F3015D80
03FFFEB500
07C0000000
0A90000000
0D60000000
1F30000000
ENDCHAR
STARTCHAR Q
ENCODING 81
SWIDTH 600 0
DWIDTH 10 0
BBX 9 13 0 -3
BITMAP
0006CFD600
009D413D60
05E20006D0
0C800003F0
2F200004F0
4F000007D0
5E00000C90
2F20005F20
0BB216E600
01AFFC4000
0008A00000
0002E50100
00004CFC00
ENDCHAR
STARTCHAR R
ENCODING 82
SWIDTH 600 0
DWIDTH 10 0
BBX 9 10 0 0
BITMAP
007FFFD910
00A9003D80
00D60008B0
01F3000B90
04F0028E20
07FFFE9200
0B905E1000
0E500D6000
2F2007D000
5E0001E500
ENDCHAR
STARTCHAR S
ENCODING 83
SWIDTH 600 0
DWIDTH 10 0
BBX 9 10 0 0
BITMAP
0006DFD700
006E414D50
00A9000100
007D300000
0009F91000
00004CD200
000000B900
0400009B00
2E7115E500
03BEEC5000
ENDCHAR
STARTCHAR T
ENCODING 84
SWIDTH 600 0
DWIDTH 10 0
BBX 9 10 1 0
BITMAP
5FFFFFFFD0
0001F30000
0004E00000
0007B00000
000A800000
000D500000
001F200000
005E000000
008B000000
00B8000000
ENDCHAR
STARTCHAR U
ENCODING 85
SWIDTH 600 0
DWIDTH 10 0
BBX 9 10 1 0
BITMAP
0B80000E40
0E50002F10
2F10005D00
5D00008A00
9A0000C700
C70000E400
E40003F100
D50009A000
9C216E3000
19EEB30000
ENDCHAR
STARTCHAR V
ENCODING 86
SWIDTH 600 0
DWIDTH 10 0
BBX 8 10 2 0
BITMAP
F400008C
D60001E4
C70009B0
A8002E20
9A00A900
7B03E100
5C0B7000
4D4D0000
2FC50000
1FC00000
ENDCHAR
STARTCHAR W
ENCODING 87
SWIDTH 600 0
DWIDTH 10 0
BBX 11 10 0 0
BITMAP
08A000001F20
099000006C00
0A701300A700
0B609D01F200
0C51CD05C000
0D487D1A7000
0E3D1C3E2000
0F790B7C0000
1ED20AC80000
2FA009F30000
ENDCHAR
STARTCHAR X
ENCODING 88
SWIDTH 600 0
DWIDTH 10 0
BBX 10 10 0 0
BITMAP
00B90003E4
004F101D60
000D70B900
0006C7B000
0001FD1000
0007ED0000
004E3E4000
02E409B000
1C7003F200
AB0000B900
ENDCHAR
STARTCHAR Y
ENCODING 89
SWIDTH 600 0
DWIDTH 10 0
BBX 9 10 1 0
BITMAP
1F30000AA0
0B80006D10
06C002E300
01F20C7000
00B68B0000
006DD10000
002F500000
004E000000
007B000000
00B8000000
ENDCHAR
STARTCHAR Z
ENCODING 90
SWIDTH 600 0
DWIDTH 10 0
BBX 10 10 0 0
BITMAP
00DFFFFFF4
0000001D80
000000BA00
000009C100
00007D1000
0005E30000
003E400000
02E6000000
1D80000000
9FFFFFFD00
ENDCHAR
STARTCHAR bracketleft
ENCODING 91
SWIDTH 600 0
DWIDTH 10 0
BBX 8 14 2 -3
BITMAP
005FFFF1
00870000
00B40000
00D10000
01D00000
04A00000
07700000
0A400000
0D100000
1D000000
4A000000
77000000
A4000000
DFFF7000
ENDCHAR
STARTCHAR backslash
ENCODING 92
SWIDTH 600 0
DWIDTH 10 0
BBX 4 14 3 -3
BITMAP
D200
A500
8700
5A00
2D00
0E10
0C30
0A60
0780
04B0
02E0
00E1
00B4
0096
ENDCHAR
STARTCHAR bracketright
ENCODING 93
SWIDTH 600 0
DWIDTH 10 0
BBX 8 14 0 -3
BITMAP
001FFFF4
000000D1
000001D0
000004A0
00000770
00000A40
00000D10
00001D00
00004A00
00007700
0000A400
0000D100
0002D000
AFFFA000
ENDCHAR
STARTCHAR asciicircum
ENCODING 94
SWIDTH 600 0
DWIDTH 10 0
BBX 7 6 1 4
BITMAP
000E8000
005AD000
00C4A500
03D04C00
09700D30
1E200790
ENDCHAR
STARTCHAR underscore
ENCODING 95
SWIDTH 600 0
DWIDTH 10 0
BBX 9 1 -1 -2
BITMAP
5FFFFFFF50
ENDCHAR
STARTCHAR grave
ENCODING 96
SWIDTH 600 0
DWIDTH 10 0
BBX 3 3 4 9
BITMAP
7800
3E40
04A0
ENDCHAR
STARTCHAR a
ENCODING 97
SWIDTH 600 0
DWIDTH 10 0
BBX 9 8 0 0
BITMAP
0019EEA5B0
00CB216F80
07D0000C50
0E60000F20
2F20003E00
2F30007C00
0DA128D900
03CFC4A600
ENDCHAR
STARTCHAR b
ENCODING 98
SWIDTH 600 0
DWIDTH 10 0
BBX 9 11 0 0
BITMAP
004E000000
007B000000
00A8000000
00D59ED700
01FB415F40
04D0000C80
07A0000B80
0B70000E60
0E40006E10
2FB216E500
5B6DFC4000
ENDCHAR
STARTCHAR c
ENCODING 99
SWIDTH 600 0
DWIDTH 10 0
BBX 8 8 1 0
BITMAP
006CFE81
09D402A6
5E100000
B7000000
D5000000
C8000000
6E512880
06CED810
ENDCHAR
STARTCHAR d
ENCODING 100
SWIDTH 600 0
DWIDTH 10 0
BBX 10 11 0 0
BITMAP
00000000B7
00000000E4
00000003F1
0019EEA7D0
00CB216FA0
07D0000D70
0E60001F40
2F20003F10
2F30007C00
0DA128D900
03CFC4A600
ENDCHAR
STARTCHAR e
ENCODING 101
SWIDTH 600 0
DWIDTH 10 0
BBX 8 8 1 0
BITMAP
007DEC40
0BA315E2
7B0000C5
CFFFFFF5
E4000000
D6000000
8E412970
08DFD810
ENDCHAR
STARTCHAR f
ENCODING 102
SWIDTH 600 0
DWIDTH 10 0
BBX 9 11 1 0
BITMAP
00005CED80
0003F51250
0009A00000
1EFFFFFA00
001F300000
003F000000
006C000000
0099000000
00C6000000
00F3000000
03F1000000
ENDCHAR
STARTCHAR g
ENCODING 103
SWIDTH 600 0
DWIDTH 10 0
BBX 9 11 0 -3
BITMAP
0019EEA5B0
01DB216F80
08C0000D50
0E50001F20
1F30004E00
0F5000AB00
09E77BC800
006871C500
000002E100
67214D8000
3AEEC60000
ENDCHAR
STARTCHAR h
ENCODING 104
SWIDTH 600 0
DWIDTH 10 0
BBX 9 11 0 0
BITMAP
004E000000
007B000000
00A8000000
00D56CEB10
01FA712E60
04E3000C70
07A0000E40
0B70002F10
0E40005D00
2F10008A00
5D0000B700
ENDCHAR
STARTCHAR i
ENCODING 105
SWIDTH 600 0
DWIDTH 10 0
BBX 7 11 1 0
BITMAP
0003E600
0004E500
00000000
4FFFC000
00099000
000C6000
001F2000
004E0000
007B0000
007D1220
001BFD60
ENDCHAR
STARTCHAR j
ENCODING 106
SWIDTH 600 0
DWIDTH 10 0
BBX 9 14 -1 -3
BITMAP
0000001D80
0000002E70
0000000000
000CFFFF00
0000006C00
0000009900
000000D600
000001F300
000004E000
000007C000
00000A9000
00000E4000
0611AC0000
1AEEA20000
ENDCHAR
STARTCHAR k
ENCODING 107
SWIDTH 600 0
DWIDTH 10 0
BBX 10 11 0 0
BITMAP
001F300000
004E000000
007B000000
00A8000AC1
00D501BB10
01F22DB000
04E3ED0000
07EE7E4000
0BD307C000
0E5001E500
2F20006D00
ENDCHAR
STARTCHAR l
ENCODING 108
SWIDTH 600 0
DWIDTH 10 0
BBX 6 11 2 0
BITMAP
AFFF20
004E00
007B00
00B700
00E400
02F100
06C000
099000
0C6000
0C9131
04DEC2
ENDCHAR
STARTCHAR m
ENCODING 109
SWIDTH 600 0
DWIDTH 10 0
BBX 10 8 0 0
BITMAP
088AE67EC0
0BC28E54F1
0E408904E0
2F10B607B0
5D00E30A80
8A02F00D50
B806C01F20
E509904E00
ENDCHAR
STARTCHAR n
ENCODING 110
SWIDTH 600 0
DWIDTH 10 0
BBX 9 8 0 0
BITMAP
00E16CEB10
02F9712E60
05E3000C70
08A0000E40
0B70002F10
0E40005D00
2F10008A00
5D0000B700
ENDCHAR
STARTCHAR o
ENCODING 111
SWIDTH 600 0
DWIDTH 10 0
BBX 9 8 0 0
BITMAP
0029EEB200
02E9218D10
0AA0000E50
2F30000C70
4F00000E50
2F20007D00
0BB217E400
01AEEA2000
ENDCHAR
STARTCHAR p
ENCODING 112
SWIDTH 600 0
DWIDTH 10 0
BBX 9 11 0 -3
BITMAP
00E29EE700
03FB415F40
06D1000C80
09A0000B80
0C70000D60
0E40005E10
3FB316E600
6C5DFC5000
9900000000
C700000000
E400000000
ENDCHAR
STARTCHAR q
ENCODING 113
SWIDTH 600 0
DWIDTH 10 0
BBX 9 11 0 -3
BITMAP
0019EEA5B0
00CB216F80
07D0000D50
0E60001F20
2F20003E00
2F30007B00
0DA128E800
03CFC4C500
000001F200
000004E000
000007B000
ENDCHAR
STARTCHAR r
ENCODING 114
SWIDTH 600 0
DWIDTH 10 0
BBX 8 8 1 0
BITMAP
00F15CF9
03E69212
06E60000
09900000
0C600000
0E300000
2F100000
5D000000
ENDCHAR
STARTCHAR s
ENCODING 115
SWIDTH 600 0
DWIDTH 10 0
BBX 8 8 1 0
BITMAP
02BEEB40
0C8116D1
0D600000
05EC6100
0016CD20
10000B80
D8202D60
29EFD700
ENDCHAR
STARTCHAR t
ENCODING 116
SWIDTH 600 0
DWIDTH 10 0
BBX 8 11 1 0
BITMAP
000B4000
000E2000
003E0000
AEFFFFF9
00A80000
00D50000
01F20000
04E00000
06C00000
05F31430
009EEB40
ENDCHAR
STARTCHAR u
ENCODING 117
SWIDTH 600 0
DWIDTH 10 0
BBX 9 8 0 0
BITMAP
02F20008A0
05E0000B70
08B0000E40
0B80002F20
0E50005E00
1F2001BB00
1F614BB800
07EE91B500
ENDCHAR
STARTCHAR v
ENCODING 118
SWIDTH 600 0
DWIDTH 10 0
BBX 9 8 1 0
BITMAP
8B00003E10
4E0000C600
1F2006C000
0D501E4000
09808A0000
06B2E20000
03EA700000
00ED000000
ENDCHAR
STARTCHAR w
ENCODING 119
SWIDTH 600 0
DWIDTH 10 0
BBX 10 8 0 0
BITMAP
4E0048006B
3F00CE00C5
3F04BE03E0
3F0A6E0980
2F1E1E1E20
2F780E6B00
2FC20DC500
1FB00DD000
ENDCHAR
STARTCHAR x
ENCODING 120
SWIDTH 600 0
DWIDTH 10 0
BBX 9 8 0 0
BITMAP
00C7002D60
005E11C800
000C6A9000
0004FA0000
000AE90000
009B2E2000
07D109A000
6E2002E400
ENDCHAR
STARTCHAR y
ENCODING 121
SWIDTH 600 0
DWIDTH 10 0
BBX 11 11 -1 -3
BITMAP
007A00004E10
003E0000D600
000E3007C000
000B602E3000
0007A0A80000
0003D4D10000
0000EC400000
0000CA000000
0004E1000000
103D50000000
7FD500000000
ENDCHAR
STARTCHAR z
ENCODING 122
SWIDTH 600 0
DWIDTH 10 0
BBX 9 8 0 0
BITMAP
01FFFFFF70
000000BB00
00000AB000
0000AB1000
000AC10000
009C100000
09C1000000
5FFFFFF800
ENDCHAR
STARTCHAR braceleft
ENCODING 123
SWIDTH 600 0
DWIDTH 10 0
BBX 9 14 1 -3
BITMAP
00003CFF40
0000C81000
0001E00000
0004C00000
0006900000
003D400000
2FF7000000
017C000000
002B000000
0058000000
0095000000
00D2000000
00E4000000
007EFA0000
ENDCHAR
STARTCHAR bar
ENCODING 124
SWIDTH 600 0
DWIDTH 10 0
BBX 2 16 4 -4
BITMAP
C5
C5
C5
C5
C5
C5
C5
C5
C5
C5
C5
C5
C5
C5
C5
C5
ENDCHAR
STARTCHAR braceright
ENCODING 125
SWIDTH 600 0
DWIDTH 10 0
BBX 8 14 0 -3
BITMAP
003FFC20
00001B60
00000A30
00000D00
00003A00
00005C20
00001DF9
0000B820
0001E000
0003C000
00069000
00097000
004E3000
CFD60000
ENDCHAR
STARTCHAR asciitilde
ENCODING 126
SWIDTH 600 0
DWIDTH 10 0
BBX 8 2 1 4
BITMAP
1BEB31B2
8716DE70
ENDCHAR
STARTCHAR uni00A0
ENCODING 160
SWIDTH 600 0
DWIDTH 10 0
BBX 1 1 0 0
BITMAP
00
ENDCHAR
STARTCHAR exclamdown
ENCODING 161
SWIDTH 600 0
DWIDTH 10 0
BBX 5 11 2 -3
BITMAP
00AE20
00CD10
000000
000000
00D000
02C000
06A000
0A7000
0D5000
2F2000
5E0000
ENDCHAR
STARTCHAR cent
ENCODING 162
SWIDTH 600 0
DWIDTH 10 0
BBX 8 12 1 -1
BITMAP
00002A00
00005700
003BEE91
04E6B271
0D70C000
4F01B000
6D048000
5E075000
1E7A4830
04CFD810
001B0000
00390000
ENDCHAR
STARTCHAR sterling
ENCODING 163
SWIDTH 600 0
DWIDTH 10 0
BBX 9 10 0 0
BITMAP
00019DEB10
000CA21880
001F100000
001F100000
0AFFFFF100
000E300000
001F100000
007A000000
05C1000000
7FFFFFF600
ENDCHAR
STARTCHAR currency
ENCODING 164
SWIDTH 600 0
DWIDTH 10 0
BBX 10 8 0 1
BITMAP
0280000081
01DACEBBA0
009C319C00
01F1003E00
04D0006C00
02F415E400
1CADEBC700
4600002900
ENDCHAR
STARTCHAR yen
ENCODING 165
SWIDTH 600 0
DWIDTH 10 0
BBX 10 10 0 0
BITMAP
00C60001D5
007B000A80
001E106B00
000A62D100
0004BB3000
0CFFFFFF50
0001F30000
2FFFFFFE00
0006D00000
000A900000
ENDCHAR
STARTCHAR brokenbar
ENCODING 166
SWIDTH 600 0
DWIDTH 10 0
BBX 2 16 4 -4
BITMAP
C5
C5
C5
C5
C5
C5
C5
10
10
C5
C5
C5
C5
C5
C5
C5
ENDCHAR
STARTCHAR section
ENCODING 167
SWIDTH 600 0
DWIDTH 10 0
BBX 7 12 1 -1
BITMAP
002BEC30
00AA14A0
00A70000
06EE5000
1E43C900
3D000B80
1D6004C0
02CB29A0
0008FC20
0000C400
A713E300
2BFD7000
ENDCHAR
STARTCHAR dieresis
ENCODING 168
SWIDTH 600 0
DWIDTH 10 0
BBX 6 2 3 9
BITMAP
3E13D1
4D14D0
ENDCHAR
STARTCHAR copyright
ENCODING 169
SWIDTH 600 0
DWIDTH 10 0
BBX 10 10 0 0
BITMAP
0006CEE910
01BA3129A0
09700000C1
2B05CEB074
654D315174
82790420A1
832CFB21B0
6700001B40
1D6115C700
02BFEA3000
ENDCHAR
STARTCHAR ordfeminine
ENCODING 170
SWIDTH 600 0
DWIDTH 10 0
BBX 7 5 2 6
BITMAP
01AEBB10
0A813D00
1E004A00
2E22A700
09EB7300
ENDCHAR
STARTCHAR guillemotleft
ENCODING 171
SWIDTH 600 0
DWIDTH 10 0
BBX 8 6 1 1
BITMAP
00570093
08B11B70
9C10D800
B901F400
2E206C00
05700A30
ENDCHAR
STARTCHAR logicalnot
ENCODING 172
SWIDTH 600 0
DWIDTH 10 0
BBX 8 4 1 2
BITMAP
9FFFFFF3
000000C3
000000C3
000000C3
ENDCHAR
STARTCHAR uni00AD
ENCODING 173
SWIDTH 600 0
DWIDTH 10 0
BBX 8 1 1 5
BITMAP
9FFFFFF3
ENDCHAR
STARTCHAR registered
ENCODING 174
SWIDTH 600 0
DWIDTH 10 0
BBX 7 7 2 5
BITMAP
007EE800
09821950
285FC190
638F9190
63937650
3B216B00
06EE9100
ENDCHAR
STARTCHAR macron
ENCODING 175
SWIDTH 600 0
DWIDTH 10 0
BBX 5 1 3 10
BITMAP
3FFFD0
ENDCHAR
STARTCHAR degree
ENCODING 176
SWIDTH 600 0
DWIDTH 10 0
BBX 5 4 3 7
BITMAP
07ED30
4A1680
681860
2CE900
ENDCHAR
STARTCHAR plusminus
ENCODING 177
SWIDTH 600 0
DWIDTH 10 0
BBX 8 9 1 0
BITMAP
000B4000
000B4000
000B4000
9FFFFFF3
000B4000
000B4000
000B4000
00000000
9FFFFFF3
ENDCHAR
STARTCHAR two.sups
ENCODING 178
SWIDTH 600 0
DWIDTH 10 0
BBX 5 7 3 6
BITMAP
06ED30
0817A0
000680
001C20
01B400
3C4000
EFFF20
ENDCHAR
STARTCHAR three.sups
ENCODING 179
SWIDTH 600 0
DWIDTH 10 0
BBX 5 7 3 6
BITMAP
08ED30
0417A0
001A70
04FA00
002C30
A22C30
4DE800
ENDCHAR
STARTCHAR acute
ENCODING 180
SWIDTH 600 0
DWIDTH 10 0
BBX 4 3 4 9
BITMAP
004B
06E5
2B20
ENDCHAR
STARTCHAR uni00B5
ENCODING 181
SWIDTH 600 0
DWIDTH 10 0
BBX 10 11 -1 -3
BITMAP
001F20008A
004E0000B7
007B0000E3
00A80002F1
00D40005C0
01F3001B90
04F714AB70
07BDEA27F0
0A60000000
0D40000000
1F20000000
ENDCHAR
STARTCHAR paragraph
ENCODING 182
SWIDTH 600 0
DWIDTH 10 0
BBX 8 12 1 -2
BITMAP
006CE999
0AFFF6C6
4FFFF3F3
8FFFE3F1
8FFFB6C0
2EFF89A0
029C5C70
00000E40
00003F10
00006D00
00009A00
0000B700
ENDCHAR
STARTCHAR periodcentered
ENCODING 183
SWIDTH 600 0
DWIDTH 10 0
BBX 3 3 3 4
BITMAP
2D90
8FC0
5E50
ENDCHAR
STARTCHAR cedilla
ENCODING 184
SWIDTH 600 0
DWIDTH 10 0
BBX 4 5 1 -5
BITMAP
00A1
04E4
00A8
02C5
5D70
ENDCHAR
STARTCHAR one.sups
ENCODING 185
SWIDTH 600 0
DWIDTH 10 0
BBX 6 6 2 6
BITMAP
007BD0
0005A0
000860
000B30
000E00
1FFFFA
ENDCHAR
STARTCHAR ordmasculine
ENCODING 186
SWIDTH 600 0
DWIDTH 10 0
BBX 5 5 3 6
BITMAP
19EE60
9913E0
E000E0
E319A0
6EE910
ENDCHAR
STARTCHAR guillemotright
ENCODING 187
SWIDTH 600 0
DWIDTH 10 0
BBX 8 6 0 1
BITMAP
02A00760
00C602E2
004F208B
008D11C9
07C11B80
2A007600
ENDCHAR
STARTCHAR onequarter
ENCODING 188
SWIDTH 600 0
DWIDTH 10 0
BBX 11 10 -1 0
BITMAP
01AE30000580
000E10005B10
002D0005A000
005A00060000
008700000000
000430083000
005A00673000
08A00490C000
39000CFFF700
000000067000
ENDCHAR
STARTCHAR onehalf
ENCODING 189
SWIDTH 600 0
DWIDTH 10 0
BBX 11 10 -1 0
BITMAP
01AE30000580
000E10005B10
002D0005A000
005A00060000
008700000000
0004306ED200
005A0071B400
08A00003A000
390000780000
00000AFFF400
ENDCHAR
STARTCHAR threequarters
ENCODING 190
SWIDTH 600 0
DWIDTH 10 0
BBX 11 10 -1 0
BITMAP
009FB0000580
0143D0005B10
007F4005A000
0716B0060000
06ED50000000
000430083000
005A00673000
08A00490C000
39000CFFF700
000000067000
ENDCHAR
STARTCHAR questiondown
ENCODING 191
SWIDTH 600 0
DWIDTH 10 0
BBX 6 11 1 -3
BITMAP
0005E6
0007E4
000000
000000
000970
004D20
06D300
7C1000
F30000
F703C2
5DFC50
ENDCHAR
STARTCHAR Agrave
ENCODING 192
SWIDTH 600 0
DWIDTH 10 0
BBX 9 14 -1 0
BITMAP
0000058000
000002E600
0000002B00
0000000000
000001EC00
0000089E00
00002E1F10
0000A70E30
0004E10C50
000C700A70
006FFFFF90
01E60007B0
08C00006D0
2F400004F0
ENDCHAR
STARTCHAR Aacute
ENCODING 193
SWIDTH 600 0
DWIDTH 10 0
BBX 10 14 -1 0
BITMAP
00000001A2
0000002CC2
0000008700
0000000000
000001EC00
0000089E00
00002E1F10
0000A70E30
0004E10C50
000C700A70
006FFFFF90
01E60007B0
08C00006D0
2F400004F0
ENDCHAR
STARTCHAR Acircumflex
ENCODING 194
SWIDTH 600 0
DWIDTH 10 0
BBX 10 13 -1 0
BITMAP
000002CD80
00001B3094
0000000000
000001EC00
0000089E00
00002E1F10
0000A70E30
0004E10C50
000C700A70
006FFFFF90
01E60007B0
08C00006D0
2F400004F0
ENDCHAR
STARTCHAR Atilde
ENCODING 195
SWIDTH 600 0
DWIDTH 10 0
BBX 11 14 -1 0
BITMAP
000000200100
00002DE81D10
0000761BE600
000000000000
000001EC0000
0000089E0000
00002E1F1000
0000A70E3000
0004E10C5000
000C700A7000
006FFFFF9000
01E60007B000
08C00006D000
2F400004F000
ENDCHAR
STARTCHAR Adieresis
ENCODING 196
SWIDTH 600 0
DWIDTH 10 0
BBX 10 13 -1 0
BITMAP
00000B50B5
00000C40C4
0000000000
000001EC00
0000089E00
00002E1F10
0000A70E30
0004E10C50
000C700A70
006FFFFF90
01E60007B0
08C00006D0
2F400004F0
ENDCHAR
STARTCHAR Aring
ENCODING 197
SWIDTH 600 0
DWIDTH 10 0
BBX 9 15 -1 0
BITMAP
0000007E70
000001B2C0
000002A2B0
000000BE40
0000000000
000001EC00
0000089E00
00002E1F10
0000A70E30
0004E10C50
000C700A70
006FFFFF90
01E60007B0
08C00006D0
2F400004F0
ENDCHAR
STARTCHAR AE
ENCODING 198
SWIDTH 600 0
DWIDTH 10 0
BBX 12 10 -1 0
BITMAP
000001DFFFF4
000009AF0000
00003D6C0000
0000C5880000
0007A0BFFC00
002E20E20000
00BFFFE00000
06C006B00000
1E3009800000
A9000CFFF800
ENDCHAR
STARTCHAR Ccedilla
ENCODING 199
SWIDTH 600 0
DWIDTH 10 0
BBX 9 15 1 -5
BITMAP
0007DFD500
01CB304D10
0AB0000000
3F30000000
8B00000000
B800000000
B900000000
8C00000000
1E9216A000
02BEEB2000
001B000000
007E200000
001B600000
003D300000
07C5000000
ENDCHAR
STARTCHAR Egrave
ENCODING 200
SWIDTH 600 0
DWIDTH 10 0
BBX 9 14 1 0
BITMAP
0000B20000
00008D1000
0000086000
0000000000
01FFFFFF60
04E0000000
07B0000000
0A80000000
0DFFFFA000
1F20000000
5E00000000
8B00000000
B800000000
EFFFFFA000
ENDCHAR
STARTCHAR Eacute
ENCODING 201
SWIDTH 600 0
DWIDTH 10 0
BBX 9 14 1 0
BITMAP
0000004900
000006E700
00001B3000
0000000000
01FFFFFF60
04E0000000
07B0000000
0A80000000
0DFFFFA000
1F20000000
5E00000000
8B00000000
B800000000
EFFFFFA000
ENDCHAR
STARTCHAR Ecircumflex
ENCODING 202
SWIDTH 600 0
DWIDTH 10 0
BBX 9 13 1 0
BITMAP
00006DD200
0007803A00
0000000000
01FFFFFF60
04E0000000
07B0000000
0A80000000
0DFFFFA000
1F20000000
5E00000000
8B00000000
B800000000
EFFFFFA000
ENDCHAR
STARTCHAR Edieresis
ENCODING 203
SWIDTH 600 0
DWIDTH 10 0
BBX 9 13 1 0
BITMAP
0003D03D00
0004C04B00
0000000000
01FFFFFF60
04E0000000
07B0000000
0A80000000
0DFFFFA000
1F20000000
5E00000000
8B00000000
B800000000
EFFFFFA000
ENDCHAR
STARTCHAR Igrave
ENCODING 204
SWIDTH 600 0
DWIDTH 10 0
BBX 10 14 0 0
BITMAP
0000580000
00002E6000
000002B000
0000000000
007FFFFFF1
00001F3000
00004E0000
00007C0000
0000A80000
0000D50000
0001F20000
0005E00000
0008B00000
5FFFFFF200
ENDCHAR
STARTCHAR Iacute
ENCODING 205
SWIDTH 600 0
DWIDTH 10 0
BBX 10 14 0 0
BITMAP
0000001A20
000002CC20
0000087000
0000000000
007FFFFFF1
00001F3000
00004E0000
00007C0000
0000A80000
0000D50000
0001F20000
0005E00000
0008B00000
5FFFFFF200
ENDCHAR
STARTCHAR Icircumflex
ENCODING 206
SWIDTH 600 0
DWIDTH 10 0
BBX 10 13 0 0
BITMAP
00002CD800
0001B30940
0000000000
007FFFFFF1
00001F3000
00004E0000
00007C0000
0000A80000
0000D50000
0001F20000
0005E00000
0008B00000
5FFFFFF200
ENDCHAR
STARTCHAR Idieresis
ENCODING 207
SWIDTH 600 0
DWIDTH 10 0
BBX 10 13 0 0
BITMAP
0000B50B50
0000C40C40
0000000000
007FFFFFF1
00001F3000
00004E0000
00007C0000
0000A80000
0000D50000
0001F20000
0005E00000
0008B00000
5FFFFFF200
ENDCHAR
STARTCHAR Eth
ENCODING 208
SWIDTH 600 0
DWIDTH 10 0
BBX 10 10 0 0
BITMAP
006FFEC500
00A9027F60
00D60007E0
01F20003F2
7FFFF402F2
07B00005E0
0A800009A0
0E50004F30
2F2027E600
5FFFEA3000
ENDCHAR
STARTCHAR Ntilde
ENCODING 209
SWIDTH 600 0
DWIDTH 10 0
BBX 10 14 0 0
BITMAP
0000020010
0002DE81D1
000761BE60
0000000000
009E0000E4
00CE4002F1
01F89005C0
04D3E00890
07B0D40C60
0A80890E30
0D503E2E00
1F100D8C00
4D0008E800
7A0003F500
ENDCHAR
STARTCHAR Ograve
ENCODING 210
SWIDTH 600 0
DWIDTH 10 0
BBX 9 14 0 0
BITMAP
0000580000
00002E6000
000002B000
0000000000
0006CFD600
009D413D60
05E20006D0
0C800003F0
2F300004F0
4F000007D0
4E00000C80
2F20005E20
0AB216E500
019EEB3000
ENDCHAR
STARTCHAR Oacute
ENCODING 211
SWIDTH 600 0
DWIDTH 10 0
BBX 9 14 0 0
BITMAP
0000001A20
000002CC20
0000087000
0000000000
0006CFD600
009D413D60
05E20006D0
0C800003F0
2F300004F0
4F000007D0
4E00000C80
2F20005E20
0AB216E500
019EEB3000
ENDCHAR
STARTCHAR Ocircumflex
ENCODING 212
SWIDTH 600 0
DWIDTH 10 0
BBX 9 13 0 0
BITMAP
00002CD800
0001B30940
0000000000
0006CFD600
009D413D60
05E20006D0
0C800003F0
2F300004F0
4F000007D0
4E00000C80
2F20005E20
0AB216E500
019EEB3000
ENDCHAR
STARTCHAR Otilde
ENCODING 213
SWIDTH 600 0
DWIDTH 10 0
BBX 10 14 0 0
BITMAP
0000020010
0002DE81D1
000761BE60
0000000000
0006CFD600
009D413D60
05E20006D0
0C800003F0
2F300004F0
4F000007D0
4E00000C80
2F20005E20
0AB216E500
019EEB3000
ENDCHAR
STARTCHAR Odieresis
ENCODING 214
SWIDTH 600 0
DWIDTH 10 0
BBX 9 13 0 0
BITMAP
0000B50B50
0000C40C40
0000000000
0006CFD600
009D413D60
05E20006D0
0C800003F0
2F300004F0
4F000007D0
4E00000C80
2F20005E20
0AB216E500
019EEB3000
ENDCHAR
STARTCHAR multiply
ENCODING 215
SWIDTH 600 0
DWIDTH 10 0
BBX 7 7 1 2
BITMAP
01000000
2D200490
04D26D20
005EC100
006DD200
06D15D30
2D2004A0
ENDCHAR
STARTCHAR Oslash
ENCODING 216
SWIDTH 600 0
DWIDTH 10 0
BBX 11 12 -1 -1
BITMAP
000000000030
00006CED79A0
0009D413EC10
005E2007ED00
00C8006D4F10
02F205D24F00
04F04D206D00
05E4E300C800
02FE4004E200
02FC216E5000
1D69EEB30000
030000000000
ENDCHAR
STARTCHAR Ugrave
ENCODING 217
SWIDTH 600 0
DWIDTH 10 0
BBX 9 14 1 0
BITMAP
0005800000
0002E60000
00002B0000
0000000000
0B80000E40
0E50002F10
2F10005D00
5D00008A00
9A0000C700
C70000E400
E40003F100
D50009A000
9C216E3000
19EEB30000
ENDCHAR
STARTCHAR Uacute
ENCODING 218
SWIDTH 600 0
DWIDTH 10 0
BBX 9 14 1 0
BITMAP
000001A200
00002CC200
0000870000
0000000000
0B80000E40
0E50002F10
2F10005D00
5D00008A00
9A0000C700
C70000E400
E40003F100
D50009A000
9C216E3000
19EEB30000
ENDCHAR
STARTCHAR Ucircumflex
ENCODING 219
SWIDTH 600 0
DWIDTH 10 0
BBX 9 13 1 0
BITMAP
0002CD8000
001B309400
0000000000
0B80000E40
0E50002F10
2F10005D00
5D00008A00
9A0000C700
C70000E400
E40003F100
D50009A000
9C216E3000
19EEB30000
ENDCHAR
STARTCHAR Udieresis
ENCODING 220
SWIDTH 600 0
DWIDTH 10 0
BBX 9 13 1 0
BITMAP
000B50B500
000C40C400
0000000000
0B80000E40
0E50002F10
2F10005D00
5D00008A00
9A0000C700
C70000E400
E40003F100
D50009A000
9C216E3000
19EEB30000
ENDCHAR
STARTCHAR Yacute
ENCODING 221
SWIDTH 600 0
DWIDTH 10 0
BBX 9 14 1 0
BITMAP
000002B100
00003EA100
0000A50000
0000000000
1F30000AA0
0B80006D10
06C002E300
01F20C7000
00B68B0000
006DD10000
002F500000
004E000000
007B000000
00B8000000
ENDCHAR
STARTCHAR Thorn
ENCODING 222
SWIDTH 600 0
DWIDTH 10 0
BBX 9 10 0 0
BITMAP
005D000000
008FFFD800
00B6004E70
00E30007B0
02F10007C0
05D0000B80
09B003AD10
0CFFED8100
0F50000000
3F10000000
ENDCHAR
STARTCHAR germandbls
ENCODING 223
SWIDTH 600 0
DWIDTH 10 0
BBX 9 11 0 0
BITMAP
0003BED600
002E614F10
009A001F10
00E500B800
02F20B8000
05D02F2000
08A00BC200
0B70008E20
0E40000B70
3F14513E40
6D03CED600
ENDCHAR
STARTCHAR agrave
ENCODING 224
SWIDTH 600 0
DWIDTH 10 0
BBX 9 12 0 0
BITMAP
00004B0000
00001D7000
000002C100
0000000000
0019EEA5B0
00CB216F80
07D0000C50
0E60000F20
2F20003E00
2F30007C00
0DA128D900
03CFC4A600
ENDCHAR
STARTCHAR aacute
ENCODING 225
SWIDTH 600 0
DWIDTH 10 0
BBX 9 12 0 0
BITMAP
0000002B20
000003E800
00000B4000
0000000000
0019EEA5B0
00CB216F80
07D0000C50
0E60000F20
2F20003E00
2F30007C00
0DA128D900
03CFC4A600
ENDCHAR
STARTCHAR acircumflex
ENCODING 226
SWIDTH 600 0
DWIDTH 10 0
BBX 9 12 0 0
BITMAP
00001BF400
0000B95D00
0005800930
0000000000
0019EEA5B0
00CB216F80
07D0000C50
0E60000F20
2F20003E00
2F30007C00
0DA128D900
03CFC4A600
ENDCHAR
STARTCHAR atilde
ENCODING 227
SWIDTH 600 0
DWIDTH 10 0
BBX 9 12 0 0
BITMAP
0000240030
0003DC82D0
000850AE40
0000000000
0019EEA5B0
00CB216F80
07D0000C50
0E60000F20
2F20003E00
2F30007C00
0DA128D900
03CFC4A600
ENDCHAR
STARTCHAR adieresis
ENCODING 228
SWIDTH 600 0
DWIDTH 10 0
BBX 9 11 0 0
BITMAP
0000D41D40
0001E31E30
0000000000
0019EEA5B0
00CB216F80
07D0000C50
0E60000F20
2F20003E00
2F30007C00
0DA128D900
03CFC4A600
ENDCHAR
STARTCHAR aring
ENCODING 229
SWIDTH 600 0
DWIDTH 10 0
BBX 9 13 0 0
BITMAP
00001BE600
0000683C00
0000864A00
00003DD200
0000000000
0019EEA5B0
00CB216F80
07D0000C50
0E60000F20
2F20003E00
2F30007C00
0DA128D900
03CFC4A600
ENDCHAR
STARTCHAR ae
ENCODING 230
SWIDTH 600 0
DWIDTH 10 0
BBX 11 8 -1 0
BITMAP
007DFA1AEC10
00721DD61A70
00000A900780
0039CFCBBD70
09D62F444410
3E101F000000
5E13BE714300
1BFB33DEB300
ENDCHAR
STARTCHAR ccedilla
ENCODING 231
SWIDTH 600 0
DWIDTH 10 0
BBX 8 13 1 -5
BITMAP
006CFE81
09D402A6
5E100000
B7000000
D5000000
C8000000
6E512880
06CED810
00480000
00BC0000
002F1000
015D0000
0BB30000
ENDCHAR
STARTCHAR egrave
ENCODING 232
SWIDTH 600 0
DWIDTH 10 0
BBX 8 12 1 0
BITMAP
00069000
0002E600
00003B00
00000000
007DEC40
0BA315E2
7B0000C5
CFFFFFF5
E4000000
D6000000
8E412970
08DFD810
ENDCHAR
STARTCHAR eacute
ENCODING 233
SWIDTH 600 0
DWIDTH 10 0
BBX 8 12 1 0
BITMAP
000003B1
00004E70
0001B300
00000000
007DEC40
0BA315E2
7B0000C5
CFFFFFF5
E4000000
D6000000
8E412970
08DFD810
ENDCHAR
STARTCHAR ecircumflex
ENCODING 234
SWIDTH 600 0
DWIDTH 10 0
BBX 8 12 1 0
BITMAP
0001DF30
001C87B0
006600A2
00000000
007DEC40
0BA315E2
7B0000C5
CFFFFFF5
E4000000
D6000000
8E412970
08DFD810
ENDCHAR
STARTCHAR edieresis
ENCODING 235
SWIDTH 600 0
DWIDTH 10 0
BBX 8 11 1 0
BITMAP
001D22E2
003E23D2
00000000
007DEC40
0BA315E2
7B0000C5
CFFFFFF5
E4000000
D6000000
8E412970
08DFD810
ENDCHAR
STARTCHAR igrave
ENCODING 236
SWIDTH 600 0
DWIDTH 10 0
BBX 7 12 1 0
BITMAP
000B4000
0007D100
00008600
00000000
4FFFC000
00099000
000C6000
001F2000
004E0000
007B0000
007D1220
001BFD60
ENDCHAR
STARTCHAR iacute
ENCODING 237
SWIDTH 600 0
DWIDTH 10 0
BBX 7 12 1 0
BITMAP
00000770
00009D30
00059100
00000000
4FFFC000
00099000
000C6000
001F2000
004E0000
007B0000
007D1220
001BFD60
ENDCHAR
STARTCHAR icircumflex
ENCODING 238
SWIDTH 600 0
DWIDTH 10 0
BBX 7 12 1 0
BITMAP
0005FB00
004D4C50
00A20290
00000000
4FFFC000
00099000
000C6000
001F2000
004E0000
007B0000
007D1220
001BFD60
ENDCHAR
STARTCHAR idieresis
ENCODING 239
SWIDTH 600 0
DWIDTH 10 0
BBX 7 11 1 0
BITMAP
007B07A0
008A0890
00000000
4FFFC000
00099000
000C6000
001F2000
004E0000
007B0000
007D1220
001BFD60
ENDCHAR
STARTCHAR eth
ENCODING 240
SWIDTH 600 0
DWIDTH 10 0
BBX 10 11 0 0
BITMAP
0000A70172
00002DDC71
0003BBC900
0002202F30
004CFE8C70
06E6216E90
1E40000A90
5E00000D60
4E00005E10
1D9116E600
03BEEB4000
ENDCHAR
STARTCHAR ntilde
ENCODING 241
SWIDTH 600 0
DWIDTH 10 0
BBX 9 12 0 0
BITMAP
0000240030
0003DC73D0
000840BE40
0000000000
00E16CEB10
02F9712E60
05E3000C70
08A0000E40
0B70002F10
0E40005D00
2F10008A00
5D0000B700
ENDCHAR
STARTCHAR ograve
ENCODING 242
SWIDTH 600 0
DWIDTH 10 0
BBX 9 12 0 0
BITMAP
0000780000
00003E4000
000004A000
0000000000
0029EEB200
02E9218D10
0AA0000E50
2F30000C70
4F00000E50
2F20007D00
0BB217E400
01AEEA2000
ENDCHAR
STARTCHAR oacute
ENCODING 243
SWIDTH 600 0
DWIDTH 10 0
BBX 9 12 0 0
BITMAP
0000004B00
000006E500
00002B2000
0000000000
0029EEB200
02E9218D10
0AA0000E50
2F30000C70
4F00000E50
2F20007D00
0BB217E400
01AEEA2000
ENDCHAR
STARTCHAR ocircumflex
ENCODING 244
SWIDTH 600 0
DWIDTH 10 0
BBX 9 12 0 0
BITMAP
00002EE100
0001D69900
0008500B10
0000000000
0029EEB200
02E9218D10
0AA0000E50
2F30000C70
4F00000E50
2F20007D00
0BB217E400
01AEEA2000
ENDCHAR
STARTCHAR otilde
ENCODING 245
SWIDTH 600 0
DWIDTH 10 0
BBX 9 12 0 0
BITMAP
0000420030
0006CD56A0
000B12CD20
0000000000
0029EEB200
02E9218D10
0AA0000E50
2F30000C70
4F00000E50
2F20007D00
0BB217E400
01AEEA2000
ENDCHAR
STARTCHAR odieresis
ENCODING 246
SWIDTH 600 0
DWIDTH 10 0
BBX 9 11 0 0
BITMAP
0003E13D10
0004D14D00
0000000000
0029EEB200
02E9218D10
0AA0000E50
2F30000C70
4F00000E50
2F20007D00
0BB217E400
01AEEA2000
ENDCHAR
STARTCHAR divide
ENCODING 247
SWIDTH 600 0
DWIDTH 10 0
BBX 8 9 1 1
BITMAP
000C6000
000C6000
00000000
00000000
9FFFFFF3
00000000
00000000
000C6000
000C6000
ENDCHAR
STARTCHAR oslash
ENCODING 248
SWIDTH 600 0
DWIDTH 10 0
BBX 10 10 0 -1
BITMAP
0000000010
0029EEB7D1
01E921BF30
0A9008DD50
2F209C1B70
4F0AB10E50
2FBA006D00
1ED217E400
B8AEEB3000
1000000000
ENDCHAR
STARTCHAR ugrave
ENCODING 249
SWIDTH 600 0
DWIDTH 10 0
BBX 9 12 0 0
BITMAP
0000880000
00003E4000
000004A000
0000000000
02F20008A0
05E0000B70
08B0000E40
0B80002F20
0E50005E00
1F2001BB00
1F614BB800
07EE91B500
ENDCHAR
STARTCHAR uacute
ENCODING 250
SWIDTH 600 0
DWIDTH 10 0
BBX 9 12 0 0
BITMAP
0000004A00
000006E500
00002B2000
0000000000
02F20008A0
05E0000B70
08B0000E40
0B80002F20
0E50005E00
1F2001BB00
1F614BB800
07EE91B500
ENDCHAR
STARTCHAR ucircumflex
ENCODING 251
SWIDTH 600 0
DWIDTH 10 0
BBX 9 12 0 0
BITMAP
00002EE100
0001D69900
0008500B00
0000000000
02F20008A0
05E0000B70
08B0000E40
0B80002F20
0E50005E00
1F2001BB00
1F614BB800
07EE91B500
ENDCHAR
STARTCHAR udieresis
ENCODING 252
SWIDTH 600 0
DWIDTH 10 0
BBX 9 11 0 0
BITMAP
0003E13D10
0004D15D00
0000000000
02F20008A0
05E0000B70
08B0000E40
0B80002F20
0E50005E00
1F2001BB00
1F614BB800
07EE91B500
ENDCHAR
STARTCHAR yacute
ENCODING 253
SWIDTH 600 0
DWIDTH 10 0
BBX 11 15 -1 -3
BITMAP
000000059000
0000007E4000
000003B10000
000000000000
007A00004E10
003E0000D600
000E3007C000
000B602E3000
0007A0A80000
0003D4D10000
0000EC400000
0000CA000000
0004E1000000
103D50000000
7FD500000000
ENDCHAR
STARTCHAR thorn
ENCODING 254
SWIDTH 600 0
DWIDTH 10 0
BBX 9 14 0 -3
BITMAP
004E000000
007B000000
00A8000000
00D59ED700
01FB415F40
05D0000C80
08A0000B80
0B70000D60
0E40005E10
2FB316E600
5C5DFC5000
8900000000
C700000000
E400000000
ENDCHAR
STARTCHAR ydieresis
ENCODING 255
SWIDTH 600 0
DWIDTH 10 0
BBX 11 14 -1 -3
BITMAP
00004D05D000
00006C06C000
000000000000
007A00004E10
003E0000D600
000E3007C000
000B602E3000
0007A0A80000
0003D4D10000
0000EC400000
0000CA000000
0004E1000000
103D50000000
7FD500000000
ENDCHAR
STARTCHAR Amacron
ENCODING 256
SWIDTH 600 0
DWIDTH 10 0
BBX 10 13 -1 0
BITMAP
00000CFFF4
0000000000
0000000000
000001EC00
0000089E00
00002E1F10
0000A70E30
0004E10C50
000C700A70
006FFFFF90
01E60007B0
08C00006D0
2F400004F0
ENDCHAR
STARTCHAR amacron
ENCODING 257
SWIDTH 600 0
DWIDTH 10 0
BBX 9 11 0 0
BITMAP
0000FFFF10
0000000000
0000000000
0019EEA5B0
00CB216F80
07D0000C50
0E60000F20
2F20003E00
2F30007C00
0DA128D900
03CFC4A600
ENDCHAR
STARTCHAR Abreve
ENCODING 258
SWIDTH 600 0
DWIDTH 10 0
BBX 10 13 -1 0
BITMAP
00000C2178
000006EE91
0000000000
000001EC00
0000089E00
00002E1F10
0000A70E30
0004E10C50
000C700A70
006FFFFF90
01E60007B0
08C00006D0
2F400004F0
ENDCHAR
STARTCHAR abreve
ENCODING 259
SWIDTH 600 0
DWIDTH 10 0
BBX 9 13 0 0
BITMAP
0000100010
0002B003A0
0001E32C40
00006ED600
0000000000
0019EEA5B0
00CB216F80
07D0000C50
0E60000F20
2F20003E00
2F30007C00
0DA128D900
03CFC4A600
ENDCHAR
STARTCHAR Aogonek
ENCODING 260
SWIDTH 600 0
DWIDTH 10 0
BBX 10 14 -1 -4
BITMAP
000001EC00
0000089E00
00002E1F10
0000A70E30
0004E10C50
000C700A70
006FFFFF90
01E60007B0
08C00006D0
2F400004F0
0000000860
0000006700
000000B620
0000006EC1
ENDCHAR
STARTCHAR aogonek
ENCODING 261
SWIDTH 600 0
DWIDTH 10 0
BBX 9 12 0 -4
BITMAP
0019EEA5B0
00CB216F80
07D0000C50
0E60000F20
2F20003E00
2F30007C00
0DA128D900
03CFC4A600
0000068100
0000490000
0000881000
00004ED200
ENDCHAR
STARTCHAR Cacute
ENCODING 262
SWIDTH 600 0
DWIDTH 10 0
BBX 9 14 1 0
BITMAP
0000004900
000006E700
00001B3000
0000000000
0007DFD500
01CB304D10
0AB0000000
3F30000000
8B00000000
B800000000
B900000000
8C00000000
1E9216A000
02BEEB2000
ENDCHAR
STARTCHAR cacute
ENCODING 263
SWIDTH 600 0
DWIDTH 10 0
BBX 8 12 1 0
BITMAP
000001B3
00002DA1
00009600
00000000
006CFE81
09D402A6
5E100000
B7000000
D5000000
C8000000
6E512880
06CED810
ENDCHAR
STARTCHAR Ccircumflex
ENCODING 264
SWIDTH 600 0
DWIDTH 10 0
BBX 9 13 1 0
BITMAP
00006DD300
0006813A00
0000000000
0007DFD500
01CB304D10
0AB0000000
3F30000000
8B00000000
B800000000
B900000000
8C00000000
1E9216A000
02BEEB2000
ENDCHAR
STARTCHAR ccircumflex
ENCODING 265
SWIDTH 600 0
DWIDTH 10 0
BBX 8 12 1 0
BITMAP
00009F70
0008B4E1
002A0065
00000000
006CFE81
09D402A6
5E100000
B7000000
D5000000
C8000000
6E512880
06CED810
ENDCHAR
STARTCHAR Cdotaccent
ENCODING 266
SWIDTH 600 0
DWIDTH 10 0
BBX 9 13 1 0
BITMAP
00000C7000
00000C7000
0000000000
0007DFD500
01CB304D10
0AB0000000
3F30000000
8B00000000
B800000000
B900000000
8C00000000
1E9216A000
02BEEB2000
ENDCHAR
STARTCHAR cdotaccent
ENCODING 267
SWIDTH 600 0
DWIDTH 10 0
BBX 8 11 1 0
BITMAP
00007E20
00008D20
00000000
006CFE81
09D402A6
5E100000
B7000000
D5000000
C8000000
6E512880
06CED810
ENDCHAR
STARTCHAR Ccaron
ENCODING 268
SWIDTH 600 0
DWIDTH 10 0
BBX 9 13 1 0
BITMAP
0002B12A30
00006DC300
0000000000
0007DFD500
01CB304D10
0AB0000000
3F30000000
8B00000000
B800000000
B900000000
8C00000000
1E9216A000
02BEEB2000
ENDCHAR
STARTCHAR ccaron
ENCODING 269
SWIDTH 600 0
DWIDTH 10 0
BBX 8 12 1 0
BITMAP
000A103A
0006B4D3
0000CF40
00000000
006CFE81
09D402A6
5E100000
B7000000
D5000000
C8000000
6E512880
06CED810
ENDCHAR
STARTCHAR Dcaron
ENCODING 270
SWIDTH 600 0
DWIDTH 10 0
BBX 9 13 0 0
BITMAP
0000A31870
00002DD600
0000000000
00AFFEA300
00D6029F30
01F3000BA0
04E00007D0
07B00006D0
0B800008B0
0E50000D70
2F20007E10
5E0039E300
8FFFD92000
ENDCHAR
STARTCHAR dcaron
ENCODING 271
SWIDTH 600 0
DWIDTH 10 0
BBX 12 13 0 0
BITMAP
000000000098
0000000000C4
00000004E1E0
00000007B3A0
0000000B8000
002BED5E5000
02E912BF2000
0AA0005E0000
2F30008B0000
4F0000B80000
4F0000E50000
1F713BF10000
05DEA4D00000
ENDCHAR
STARTCHAR Dcroat
ENCODING 272
SWIDTH 600 0
DWIDTH 10 0
BBX 10 10 0 0
BITMAP
006FFEC500
00A9027F60
00D60007E0
01F20003F2
7FFFF402F2
07B00005E0
0A800009A0
0E50004F30
2F2027E600
5FFFEA3000
ENDCHAR
STARTCHAR dcroat
ENCODING 273
SWIDTH 600 0
DWIDTH 10 0
BBX 11 11 0 0
BITMAP
00000000C600
00000ACCFF40
00000004E000
002AEE88B000
01DA218F8000
09B0000E5000
1F40002F2000
3F10005E0000
2F20009B0000
0D9129D80000
03CFC3B50000
ENDCHAR
STARTCHAR Emacron
ENCODING 274
SWIDTH 600 0
DWIDTH 10 0
BBX 9 13 1 0
BITMAP
0004FFFC00
0000000000
0000000000
01FFFFFF60
04E0000000
07B0000000
0A80000000
0DFFFFA000
1F20000000
5E00000000
8B00000000
B800000000
EFFFFFA000
ENDCHAR
STARTCHAR emacron
ENCODING 275
SWIDTH 600 0
DWIDTH 10 0
BBX 8 11 1 0
BITMAP
001FFFF0
00000000
00000000
007DEC40
0BA315E2
7B0000C5
CFFFFFF5
E4000000
D6000000
8E412970
08DFD810
ENDCHAR
STARTCHAR Ebreve
ENCODING 276
SWIDTH 600 0
DWIDTH 10 0
BBX 9 13 1 0
BITMAP
0005912C20
0001BED500
0000000000
01FFFFFF60
04E0000000
07B0000000
0A80000000
0DFFFFA000
1F20000000
5E00000000
8B00000000
B800000000
EFFFFFA000
ENDCHAR
STARTCHAR ebreve
ENCODING 277
SWIDTH 600 0
DWIDTH 10 0
BBX 8 13 1 0
BITMAP
00010001
004A0059
002E33D2
0007ED50
00000000
007DEC40
0BA315E2
7B0000C5
CFFFFFF5
E4000000
D6000000
8E412970
08DFD810
ENDCHAR
STARTCHAR Edotaccent
ENCODING 278
SWIDTH 600 0
DWIDTH 10 0
BBX 9 13 1 0
BITMAP
00000C7000
00000D7000
0000000000
01FFFFFF60
04E0000000
07B0000000
0A80000000
0DFFFFA000
1F20000000
5E00000000
8B00000000
B800000000
EFFFFFA000
ENDCHAR
STARTCHAR edotaccent
ENCODING 279
SWIDTH 600 0
DWIDTH 10 0
BBX 8 11 1 0
BITMAP
0000BC00
0000CB00
00000000
007DEC40
0BA315E2
7B0000C5
CFFFFFF5
E4000000
D6000000
8E412970
08DFD810
ENDCHAR
STARTCHAR Eogonek
ENCODING 280
SWIDTH 600 0
DWIDTH 10 0
BBX 9 14 1 -4
BITMAP
01FFFFFF60
04E0000000
07B0000000
0A80000000
0DFFFFA000
1F20000000
5E00000000
8B00000000
B800000000
EFFFFFA000
0000671000
0004A00000
0008910000
0004ED2000
ENDCHAR
STARTCHAR eogonek
ENCODING 281
SWIDTH 600 0
DWIDTH 10 0
BBX 8 12 1 -4
BITMAP
007DEC40
0BA315E2
7B0000C5
CFFFFFF5
E4000000
D6000000
8E412970
08DFFB10
0003A000
000D1000
001E2200
000AE800
ENDCHAR
STARTCHAR Ecaron
ENCODING 282
SWIDTH 600 0
DWIDTH 10 0
BBX 9 13 1 0
BITMAP
0002B12A30
00006DC300
0000000000
01FFFFFF60
04E0000000
07B0000000
0A80000000
0DFFFFA000
1F20000000
5E00000000
8B00000000
B800000000
EFFFFFA000
ENDCHAR
STARTCHAR ecaron
ENCODING 283
SWIDTH 600 0
DWIDTH 10 0
BBX 8 12 1 0
BITMAP
001A0067
000B77C1
0002FD10
00000000
007DEC40
0BA315E2
7B0000C5
CFFFFFF5
E4000000
D6000000
8E412970
08DFD810
ENDCHAR
STARTCHAR Gcircumflex
ENCODING 284
SWIDTH 600 0
DWIDTH 10 0
BBX 8 13 1 0
BITMAP
00008CD1
00096059
00000000
0019DFC3
03E9206C
1D800000
7D000000
C7000000
F400BFF9
E50000C5
C80001F2
5F6117E0
04CFEA30
ENDCHAR
STARTCHAR gcircumflex
ENCODING 285
SWIDTH 600 0
DWIDTH 10 0
BBX 9 15 0 -3
BITMAP
00001BF400
0000B95D00
0005800930
0000000000
0019EEA5B0
01DB216F80
08C0000D50
0E50001F20
1F30004E00
0F5000AB00
09E77BC800
006871C500
000002E100
67214D8000
3AEEC60000
ENDCHAR
STARTCHAR Gbreve
ENCODING 286
SWIDTH 600 0
DWIDTH 10 0
BBX 8 13 1 0
BITMAP
0007703C
0002CEC3
00000000
0019DFC3
03E9206C
1D800000
7D000000
C7000000
F400BFF9
E50000C5
C80001F2
5F6117E0
04CFEA30
ENDCHAR
STARTCHAR gbreve
ENCODING 287
SWIDTH 600 0
DWIDTH 10 0
BBX 9 16 0 -3
BITMAP
0000100010
0002B003A0
0001E32C40
00006ED600
0000000000
0019EEA5B0
01DB216F80
08C0000D50
0E50001F20
1F30004E00
0F5000AB00
09E77BC800
006871C500
000002E100
67214D8000
3AEEC60000
ENDCHAR
STARTCHAR Gdotaccent
ENCODING 288
SWIDTH 600 0
DWIDTH 10 0
BBX 8 13 1 0
BITMAP
00001D50
00001E40
00000000
0019DFC3
03E9206C
1D800000
7D000000
C7000000
F400BFF9
E50000C5
C80001F2
5F6117E0
04CFEA30
ENDCHAR
STARTCHAR gdotaccent
ENCODING 289
SWIDTH 600 0
DWIDTH 10 0
BBX 9 14 0 -3
BITMAP
000009D000
00000BC000
0000000000
0019EEA5B0
01DB216F80
08C0000D50
0E50001F20
1F30004E00
0F5000AB00
09E77BC800
006871C500
000002E100
67214D8000
3AEEC60000
ENDCHAR
STARTCHAR uni0122
ENCODING 290
SWIDTH 600 0
DWIDTH 10 0
BBX 8 14 1 -4
BITMAP
0019DFC3
03E9206C
1D800000
7D000000
C7000000
F400BFF9
E50000C5
C80001F2
5F6117E0
04CFEA30
00000000
003D5000
001A8000
04EA1000
ENDCHAR
STARTCHAR uni0123
ENCODING 291
SWIDTH 600 0
DWIDTH 10 0
BBX 9 15 0 -3
BITMAP
000002A700
00000D4000
00000B5000
0000000000
0019EEA5B0
01DB216F80
08C0000D50
0E50001F20
1F30004E00
0F5000AB00
09E77BC800
006871C500
000002E100
67214D8000
3AEEC60000
ENDCHAR
STARTCHAR Hcircumflex
ENCODING 292
SWIDTH 600 0
DWIDTH 10 0
BBX 10 13 0 0
BITMAP
00002CD800
0001B30940
0000000000
00B80000E5
00E40003F1
02F10006D0
05D00009A0
08FFFFFF70
0C60001F40
0E30003F10
3F10006D00
6C0000A900
990000D600
ENDCHAR
STARTCHAR hcircumflex
ENCODING 293
SWIDTH 600 0
DWIDTH 10 0
BBX 9 14 0 0
BITMAP
006DD20000
07803A0000
0000000000
004E000000
007B000000
00A8000000
00D56CEB10
01FA712E60
04E3000C70
07A0000E40
0B70002F10
0E40005D00
2F10008A00
5D0000B700
ENDCHAR
STARTCHAR Hbar
ENCODING 294
SWIDTH 600 0
DWIDTH 10 0
BBX 11 10 0 0
BITMAP
00C70001E400
3EFFFFFFFF10
04F00007B000
07C0000A9000
0AFFFFFF6000
0D60001F3000
1F30003F0000
3F10006C0000
6C0000A90000
990000D60000
ENDCHAR
STARTCHAR hbar
ENCODING 295
SWIDTH 600 0
DWIDTH 10 0
BBX 9 11 0 0
BITMAP
004E000000
0AFFFFF200
00A7000000
00E46DEB00
01FA612E50
05E3000D60
0890000F40
0B70003F10
0E40005D00
2F10008A00
5E0000B700
ENDCHAR
STARTCHAR Itilde
ENCODING 296
SWIDTH 600 0
DWIDTH 10 0
BBX 10 14 0 0
BITMAP
0000020010
0002DE81D1
000761BE60
0000000000
007FFFFFF1
00001F3000
00004E0000
00007C0000
0000A80000
0000D50000
0001F20000
0005E00000
0008B00000
5FFFFFF200
ENDCHAR
STARTCHAR itilde
ENCODING 297
SWIDTH 600 0
DWIDTH 10 0
BBX 8 12 1 0
BITMAP
00041012
00AAD2A5
01B04EA0
00000000
4FFFC000
00099000
000C6000
001F2000
004E0000
007B0000
007D1220
001BFD60
ENDCHAR
STARTCHAR Imacron
ENCODING 298
SWIDTH 600 0
DWIDTH 10 0
BBX 10 13 0 0
BITMAP
0000CFFF40
0000000000
0000000000
007FFFFFF1
00001F3000
00004E0000
00007C0000
0000A80000
0000D50000
0001F20000
0005E00000
0008B00000
5FFFFFF200
ENDCHAR
STARTCHAR imacron
ENCODING 299
SWIDTH 600 0
DWIDTH 10 0
BBX 7 11 1 0
BITMAP
008FFF90
00000000
00000000
4FFFC000
00099000
000C6000
001F2000
004E0000
007B0000
007D1220
001BFD60
ENDCHAR
STARTCHAR Ibreve
ENCODING 300
SWIDTH 600 0
DWIDTH 10 0
BBX 10 13 0 0
BITMAP
0000C21780
00006EE910
0000000000
007FFFFFF1
00001F3000
00004E0000
00007C0000
0000A80000
0000D50000
0001F20000
0005E00000
0008B00000
5FFFFFF200
ENDCHAR
STARTCHAR ibreve
ENCODING 301
SWIDTH 600 0
DWIDTH 10 0
BBX 8 13 1 0
BITMAP
00100010
00A400B3
008A17B0
001BEA10
00000000
4FFFC000
00099000
000C6000
001F2000
004E0000
007B0000
007D1220
001BFD60
ENDCHAR
STARTCHAR Iogonek
ENCODING 302
SWIDTH 600 0
DWIDTH 10 0
BBX 10 14 0 -4
BITMAP
007FFFFFF1
00001F3000
00004E0000
00007C0000
0000A80000
0000D50000
0001F20000
0005E00000
0008B00000
5FFFFFF200
002A100000
00B2000000
00F2100000
00AE800000
ENDCHAR
STARTCHAR iogonek
ENCODING 303
SWIDTH 600 0
DWIDTH 10 0
BBX 7 15 1 -4
BITMAP
0003E600
0004E500
00000000
4FFFC000
00099000
000C6000
001F2000
004E0000
007B0000
007D1220
001BFF70
0001B400
000A4000
000D4200
0008EB00
ENDCHAR
STARTCHAR Idotaccent
ENCODING 304
SWIDTH 600 0
DWIDTH 10 0
BBX 10 13 0 0
BITMAP
000005D000
000006D000
0000000000
007FFFFFF1
00001F3000
00004E0000
00007C0000
0000A80000
0000D50000
0001F20000
0005E00000
0008B00000
5FFFFFF200
ENDCHAR
STARTCHAR dotlessi
ENCODING 305
SWIDTH 600 0
DWIDTH 10 0
BBX 7 8 1 0
BITMAP
4FFFC000
00099000
000C6000
001F2000
004E0000
007B0000
007D1220
001BFD60
ENDCHAR
STARTCHAR IJ
ENCODING 306
SWIDTH 600 0
DWIDTH 10 0
BBX 9 13 0 -3
BITMAP
005E0004E0
008B0007B0
00B8000A80
00E4000D50
02F1001F20
06D0004E00
09A0008B00
0C7000B800
0F4000E500
3F1002F200
000005E000
00011B9000
0006EB1000
ENDCHAR
STARTCHAR ij
ENCODING 307
SWIDTH 600 0
DWIDTH 10 0
BBX 8 14 1 -3
BITMAP
01D800CB
02E701DA
00000000
07B005E0
0A8008B0
0D500B70
1F200E40
4E002F10
7C005D00
A9008A00
D600B700
0000E400
0016E000
01ED4000
ENDCHAR
STARTCHAR Jcircumflex
ENCODING 308
SWIDTH 600 0
DWIDTH 10 0
BBX 9 13 0 0
BITMAP
00002CD800
0001B30940
0000000000
001FFFFF80
0000000E50
0000002F20
0000005D00
0000008A00
000000C700
000000E400
010005E000
6D314D6000
08DEC60000
ENDCHAR
STARTCHAR jcircumflex
ENCODING 309
SWIDTH 600 0
DWIDTH 10 0
BBX 10 15 -1 -3
BITMAP
0000003ED0
000002D5B7
000009301A
0000000000
000CFFFF00
0000006C00
0000009900
000000D600
000001F300
000004E000
000007C000
00000A9000
00000E4000
0611AC0000
1AEEA20000
ENDCHAR
STARTCHAR uni0136
ENCODING 310
SWIDTH 600 0
DWIDTH 10 0
BBX 10 14 0 -4
BITMAP
005E0002D6
008A003D50
00B704D400
00E45D3000
03F6FB0000
06FD4F3000
09C10AA000
0C7003F200
0F3000C900
3F00005F10
0000000000
0006D30000
0001C60000
006D800000
ENDCHAR
STARTCHAR uni0137
ENCODING 311
SWIDTH 600 0
DWIDTH 10 0
BBX 10 15 0 -4
BITMAP
001F300000
004E000000
007B000000
00A8000AC1
00D501BB10
01F22DB000
04E3ED0000
07EE7E4000
0BD307C000
0E5001E500
2F20006D00
0000000000
0008C20000
0002D40000
008D700000
ENDCHAR
STARTCHAR kgreenlandic
ENCODING 312
SWIDTH 600 0
DWIDTH 10 0
BBX 10 8 0 0
BITMAP
00B7001AB1
00E402C900
02F13E8000
05D5ED0000
08EE4D6000
0BC206D000
0E5000D600
2F20006D00
ENDCHAR
STARTCHAR Lacute
ENCODING 313
SWIDTH 600 0
DWIDTH 10 0
BBX 8 14 1 0
BITMAP
00005800
0007E600
002B2000
00000000
006C0000
00990000
00D60000
01F30000
04E00000
07C00000
0A900000
0D500000
2F200000
5FFFFFF2
ENDCHAR
STARTCHAR lacute
ENCODING 314
SWIDTH 600 0
DWIDTH 10 0
BBX 6 15 2 0
BITMAP
00003A
0005E8
000B30
000000
AFFF20
004E00
007B00
00B700
00E400
02F100
06C000
099000
0C6000
0C9131
04DEC2
ENDCHAR
STARTCHAR uni013B
ENCODING 315
SWIDTH 600 0
DWIDTH 10 0
BBX 8 14 1 -4
BITMAP
006C0000
00990000
00D60000
01F30000
04E00000
07C00000
0A900000
0D500000
2F200000
5FFFFFF2
00000000
002E6000
0018A000
02EA2000
ENDCHAR
STARTCHAR uni013C
ENCODING 316
SWIDTH 600 0
DWIDTH 10 0
BBX 6 15 2 -4
BITMAP
AFFF20
004E00
007B00
00B700
00E400
02F100
06C000
099000
0C6000
0C9131
04DEC2
000000
00CA00
005E00
0CC400
ENDCHAR
STARTCHAR Lcaron
ENCODING 317
SWIDTH 600 0
DWIDTH 10 0
BBX 8 13 1 0
BITMAP
00000089
000000B5
000000E1
006C02B0
00990000
00D60000
01F30000
04E00000
07C00000
0A900000
0D500000
2F200000
5FFFFFF2
ENDCHAR
STARTCHAR lcaron
ENCODING 318
SWIDTH 600 0
DWIDTH 10 0
BBX 8 13 2 0
BITMAP
000001F1
000004C0
AFFF2780
004E0A30
007B0000
00B70000
00E40000
02F10000
06C00000
09900000
0C600000
0C913100
04DEC200
ENDCHAR
STARTCHAR Ldot
ENCODING 319
SWIDTH 600 0
DWIDTH 10 0
BBX 8 10 1 0
BITMAP
006C0000
00990000
00D60000
01F30000
04E000CA
07C001D9
0A900000
0D500000
2F200000
5FFFFFF2
ENDCHAR
STARTCHAR ldot
ENCODING 320
SWIDTH 600 0
DWIDTH 10 0
BBX 9 11 1 0
BITMAP
3FFF800000
000D500000
001F200000
004E000000
008A000000
00B7001DA0
00E4001D90
03F1000000
06D0000000
06E2130000
01BED70000
ENDCHAR
STARTCHAR Lslash
ENCODING 321
SWIDTH 600 0
DWIDTH 10 0
BBX 9 10 0 0
BITMAP
0006C00000
000A900000
000D600000
001F316800
004F8D8100
03BE610000
2BD9000000
00D5000000
02F2000000
05FFFFFF20
ENDCHAR
STARTCHAR lslash
ENCODING 322
SWIDTH 600 0
DWIDTH 10 0
BBX 8 11 1 0
BITMAP
0AFFF200
0004E000
0007B000
000B86C2
001ED710
18DF1000
266C0000
00990000
00C60000
00C91310
004DEC20
ENDCHAR
STARTCHAR Nacute
ENCODING 323
SWIDTH 600 0
DWIDTH 10 0
BBX 10 14 0 0
BITMAP
0000001A20
000002CC20
0000087000
0000000000
009E0000E4
00CE4002F1
01F89005C0
04D3E00890
07B0D40C60
0A80890E30
0D503E2E00
1F100D8C00
4D0008E800
7A0003F500
ENDCHAR
STARTCHAR nacute
ENCODING 324
SWIDTH 600 0
DWIDTH 10 0
BBX 9 12 0 0
BITMAP
0000002B10
000004E800
00000B4000
0000000000
00E16CEB10
02F9712E60
05E3000C70
08A0000E40
0B70002F10
0E40005D00
2F10008A00
5D0000B700
ENDCHAR
STARTCHAR uni0145
ENCODING 325
SWIDTH 600 0
DWIDTH 10 0
BBX 10 14 0 -4
BITMAP
009E0000E4
00CE4002F1
01F89005C0
04D3E00890
07B0D40C60
0A80890E30
0D503E2E00
1F100D8C00
4D0008E800
7A0003F500
0000000000
001D800000
0017B00000
01EB200000
ENDCHAR
STARTCHAR uni0146
ENCODING 326
SWIDTH 600 0
DWIDTH 10 0
BBX 9 12 0 -4
BITMAP
00E16CEB10
02F9712E60
05E3000C70
08A0000E40
0B70002F10
0E40005D00
2F10008A00
5D0000B700
0000000000
000D900000
0006D00000
00DB300000
ENDCHAR
STARTCHAR Ncaron
ENCODING 327
SWIDTH 600 0
DWIDTH 10 0
BBX 10 13 0 0
BITMAP
0000940780
00001DD700
0000000000
009E0000E4
00CE4002F1
01F89005C0
04D3E00890
07B0D40C60
0A80890E30
0D503E2E00
1F100D8C00
4D0008E800
7A0003F500
ENDCHAR
STARTCHAR ncaron
ENCODING 328
SWIDTH 600 0
DWIDTH 10 0
BBX 9 12 0 0
BITMAP
0001B00580
0000A86D10
00001EE200
0000000000
00E16CEB10
02F9712E60
05E3000C70
08A0000E40
0B70002F10
0E40005D00
2F10008A00
5D0000B700
ENDCHAR
STARTCHAR napostrophe
ENCODING 329
SWIDTH 600 0
DWIDTH 10 0
BBX 11 11 -1 0
BITMAP
00BE30000000
00DF60000000
002F30000000
04D84B2AED40
1C507CA31BA0
0000AB0008A0
0000D5000A80
0001F2000D50
0004E0001F20
0007C0004E00
000A90007B00
ENDCHAR
STARTCHAR Eng
ENCODING 330
SWIDTH 600 0
DWIDTH 10 0
BBX 9 10 0 0
BITMAP
00B88DEA10
00ED613D80
02F20007D0
05E00006D0
08B00007D0
0B700009A0
0E40000D70
3F10004F10
6D0012D700
9A01DE8000
ENDCHAR
STARTCHAR eng
ENCODING 331
SWIDTH 600 0
DWIDTH 10 0
BBX 9 11 0 -3
BITMAP
00E16CEB10
02F9712E60
05E3000C70
08A0000E40
0B70002F10
0E40005D00
2F10008A00
5D0000B700
000000E400
000015E000
0001ED5000
ENDCHAR
STARTCHAR Omacron
ENCODING 332
SWIDTH 600 0
DWIDTH 10 0
BBX 9 13 0 0
BITMAP
0000CFFF40
0000000000
0000000000
0006CFD600
009D413D60
05E20006D0
0C800003F0
2F300004F0
4F000007D0
4E00000C80
2F20005E20
0AB216E500
019EEB3000
ENDCHAR
STARTCHAR omacron
ENCODING 333
SWIDTH 600 0
DWIDTH 10 0
BBX 9 11 0 0
BITMAP
0003FFFD00
0000000000
0000000000
0029EEB200
02E9218D10
0AA0000E50
2F30000C70
4F00000E50
2F20007D00
0BB217E400
01AEEA2000
ENDCHAR
STARTCHAR Obreve
ENCODING 334
SWIDTH 600 0
DWIDTH 10 0
BBX 9 13 0 0
BITMAP
0000C21780
00006EE910
0000000000
0006CFD600
009D413D60
05E20006D0
0C800003F0
2F300004F0
4F000007D0
4E00000C80
2F20005E20
0AB216E500
019EEB3000
ENDCHAR
STARTCHAR obreve
ENCODING 335
SWIDTH 600 0
DWIDTH 10 0
BBX 9 13 0 0
BITMAP
0000100000
0006800770
0003D24D10
00008EC300
0000000000
0029EEB200
02E9218D10
0AA0000E50
2F30000C70
4F00000E50
2F20007D00
0BB217E400
01AEEA2000
ENDCHAR
STARTCHAR Ohungarumlaut
ENCODING 336
SWIDTH 600 0
DWIDTH 10 0
BBX 10 14 0 0
BITMAP
000001B076
00000B63D2
0000480A20
0000000000
0006CFD600
009D413D60
05E20006D0
0C800003F0
2F300004F0
4F000007D0
4E00000C80
2F20005E20
0AB216E500
019EEB3000
ENDCHAR
STARTCHAR ohungarumlaut
ENCODING 337
SWIDTH 600 0
DWIDTH 10 0
BBX 10 12 0 0
BITMAP
00000491B1
00001D2980
0000842A00
0000000000
0029EEB200
02E9218D10
0AA0000E50
2F30000C70
4F00000E50
2F20007D00
0BB217E400
01AEEA2000
ENDCHAR
STARTCHAR OE
ENCODING 338
SWIDTH 600 0
DWIDTH 10 0
BBX 11 10 0 0
BITMAP
0006CEFFFF50
00AC43E10000
08C106B00000
1F5009700000
5E000CFFA000
8B000F100000
8B003D000000
6E006A000000
1E92A7000000
03BEFFFF9000
ENDCHAR
STARTCHAR oe
ENCODING 339
SWIDTH 600 0
DWIDTH 10 0
BBX 11 8 -1 0
BITMAP
003CE908EC10
02E61CA70A70
099008B00780
0E3008FFFF60
1F100A400000
1F001F400000
0E61BCA02400
05EE71BEC500
ENDCHAR
STARTCHAR Racute
ENCODING 340
SWIDTH 600 0
DWIDTH 10 0
BBX 9 14 0 0
BITMAP
0000001A20
000002DB20
0000087000
0000000000
007FFFD910
00A9003D80
00D60008B0
01F3000B90
04F0028E20
07FFFE9200
0B905E1000
0E500D6000
2F2007D000
5E0001E500
ENDCHAR
STARTCHAR racute
ENCODING 341
SWIDTH 600 0
DWIDTH 10 0
BBX 8 12 1 0
BITMAP
00000096
00001BC2
00007800
00000000
00F15CF9
03E69212
06E60000
09900000
0C600000
0E300000
2F100000
5D000000
ENDCHAR
STARTCHAR uni0156
ENCODING 342
SWIDTH 600 0
DWIDTH 10 0
BBX 9 14 0 -4
BITMAP
007FFFD910
00A9003D80
00D60008B0
01F3000B90
04F0028E20
07FFFE9200
0B905E1000
0E500D6000
2F2007D000
5E0001E500
0000000000
000CA00000
0005E00000
00CC400000
ENDCHAR
STARTCHAR uni0157
ENCODING 343
SWIDTH 600 0
DWIDTH 10 0
BBX 9 12 0 -4
BITMAP
000F15CF90
003E692120
006E600000
0099000000
00C6000000
00E3000000
02F1000000
05D0000000
0000000000
0BA0000000
04E0000000
CC40000000
ENDCHAR
STARTCHAR Rcaron
ENCODING 344
SWIDTH 600 0
DWIDTH 10 0
BBX 9 13 0 0
BITMAP
0000A40780
00002DD700
0000000000
007FFFD910
00A9003D80
00D60008B0
01F3000B90
04F0028E20
07FFFE9200
0B905E1000
0E500D6000
2F2007D000
5E0001E500
ENDCHAR
STARTCHAR rcaron
ENCODING 345
SWIDTH 600 0
DWIDTH 10 0
BBX 8 12 1 0
BITMAP
0008301B
0004D3D5
0000AF60
00000000
00F15CF9
03E69212
06E60000
09900000
0C600000
0E300000
2F100000
5D000000
ENDCHAR
STARTCHAR Sacute
ENCODING 346
SWIDTH 600 0
DWIDTH 10 0
BBX 9 14 0 0
BITMAP
0000002B00
000004EA10
00000A5000
0000000000
0006DFD700
006E414D50
00A9000100
007D300000
0009F91000
00004CD200
000000B900
0400009B00
2E7115E500
03BEEC5000
ENDCHAR
STARTCHAR sacute
ENCODING 347
SWIDTH 600 0
DWIDTH 10 0
BBX 8 12 1 0
BITMAP
000004B0
00006E50
0002B200
00000000
02BEEB40
0C8116D1
0D600000
05EC6100
0016CD20
10000B80
D8202D60
29EFD700
ENDCHAR
STARTCHAR Scircumflex
ENCODING 348
SWIDTH 600 0
DWIDTH 10 0
BBX 9 13 0 0
BITMAP
00003DD500
0004A11B10
0000000000
0006DFD700
006E414D50
00A9000100
007D300000
0009F91000
00004CD200
000000B900
0400009B00
2E7115E500
03BEEC5000
ENDCHAR
STARTCHAR scircumflex
ENCODING 349
SWIDTH 600 0
DWIDTH 10 0
BBX 8 12 1 0
BITMAP
0002EE10
001D6990
008500B1
00000000
02BEEB40
0C8116D1
0D600000
05EC6100
0016CD20
10000B80
D8202D60
29EFD700
ENDCHAR
STARTCHAR uni015E
ENCODING 350
SWIDTH 600 0
DWIDTH 10 0
BBX 9 15 0 -5
BITMAP
0006DFD700
006E414D50
00A9000100
007D300000
0009F91000
00004CD200
000000B900
0400009B00
2E7115E500
03BEEC5000
0007400000
001E800000
0005D00000
0018900000
00EA100000
ENDCHAR
STARTCHAR uni015F
ENCODING 351
SWIDTH 600 0
DWIDTH 10 0
BBX 8 13 1 -5
BITMAP
02BEEB40
0C8116D1
0D600000
05EC6100
0016CD20
10000B80
D8202D60
29EFD700
00650000
00D90000
005E0000
017A0000
0DA10000
ENDCHAR
STARTCHAR Scaron
ENCODING 352
SWIDTH 600 0
DWIDTH 10 0
BBX 9 13 0 0
BITMAP
0000B21950
00003ED500
0000000000
0006DFD700
006E414D50
00A9000100
007D300000
0009F91000
00004CD200
000000B900
0400009B00
2E7115E500
03BEEC5000
ENDCHAR
STARTCHAR scaron
ENCODING 353
SWIDTH 600 0
DWIDTH 10 0
BBX 8 12 1 0
BITMAP
00390075
000C69B0
0004FC10
00000000
02BEEB40
0C8116D1
0D600000
05EC6100
0016CD20
10000B80
D8202D60
29EFD700
ENDCHAR
STARTCHAR uni0162
ENCODING 354
SWIDTH 600 0
DWIDTH 10 0
BBX 9 15 1 -5
BITMAP
5FFFFFFFD0
0001F30000
0004E00000
0007B00000
000A800000
000D500000
001F200000
005E000000
008B000000
00B8000000
00A1000000
04E4000000
00A8000000
02C5000000
5D70000000
ENDCHAR
STARTCHAR uni0163
ENCODING 355
SWIDTH 600 0
DWIDTH 10 0
BBX 8 16 1 -5
BITMAP
000B4000
000E2000
003E0000
AEFFFFF9
00A80000
00D50000
01F20000
04E00000
06C00000
05F31430
009EEB40
00092000
003F5000
0008A000
002B6000
03D80000
ENDCHAR
STARTCHAR Tcaron
ENCODING 356
SWIDTH 600 0
DWIDTH 10 0
BBX 9 13 1 0
BITMAP
0009407800
0001DD7000
0000000000
5FFFFFFFD0
0001F30000
0004E00000
0007B00000
000A800000
000D500000
001F200000
005E000000
008B000000
00B8000000
ENDCHAR
STARTCHAR tcaron
ENCODING 357
SWIDTH 600 0
DWIDTH 10 0
BBX 8 13 1 0
BITMAP
00000089
000000B5
000B40D1
000E22C0
003E0000
AEFFFFF9
00A80000
00D50000
01F20000
04E00000
06C00000
05F31430
009EEB40
ENDCHAR
STARTCHAR Tbar
ENCODING 358
SWIDTH 600 0
DWIDTH 10 0
BBX 9 10 1 0
BITMAP
5FFFFFFFD0
0001F30000
0004E00000
0007B00000
0CFFFFA000
000E500000
002F200000
005E000000
008B000000
00B8000000
ENDCHAR
STARTCHAR tbar
ENCODING 359
SWIDTH 600 0
DWIDTH 10 0
BBX 9 11 0 0
BITMAP
0000B40000
0000E20000
0003E00000
0AEFFFFF90
000A800000
000E500000
4EFFFFFB00
005D000000
006C000000
004F314300
0009EEB400
ENDCHAR
STARTCHAR Utilde
ENCODING 360
SWIDTH 600 0
DWIDTH 10 0
BBX 9 14 1 0
BITMAP
0000200100
002DE81D10
00761BE600
0000000000
0B80000E40
0E50002F10
2F10005D00
5D00008A00
9A0000C700
C70000E400
E40003F100
D50009A000
9C216E3000
19EEB30000
ENDCHAR
STARTCHAR utilde
ENCODING 361
SWIDTH 600 0
DWIDTH 10 0
BBX 9 12 0 0
BITMAP
0000420030
0006CD5690
000B12DD20
0000000000
02F20008A0
05E0000B70
08B0000E40
0B80002F20
0E50005E00
1F2001BB00
1F614BB800
07EE91B500
ENDCHAR
STARTCHAR Umacron
ENCODING 362
SWIDTH 600 0
DWIDTH 10 0
BBX 9 13 1 0
BITMAP
000CFFF400
0000000000
0000000000
0B80000E40
0E50002F10
2F10005D00
5D00008A00
9A0000C700
C70000E400
E40003F100
D50009A000
9C216E3000
19EEB30000
ENDCHAR
STARTCHAR umacron
ENCODING 363
SWIDTH 600 0
DWIDTH 10 0
BBX 9 11 0 0
BITMAP
0004FFFD00
0000000000
0000000000
02F20008A0
05E0000B70
08B0000E40
0B80002F20
0E50005E00
1F2001BB00
1F614BB800
07EE91B500
ENDCHAR
STARTCHAR Ubreve
ENCODING 364
SWIDTH 600 0
DWIDTH 10 0
BBX 9 13 1 0
BITMAP
000C217800
0006EE9100
0000000000
0B80000E40
0E50002F10
2F10005D00
5D00008A00
9A0000C700
C70000E400
E40003F100
D50009A000
9C216E3000
19EEB30000
ENDCHAR
STARTCHAR ubreve
ENCODING 365
SWIDTH 600 0
DWIDTH 10 0
BBX 9 13 0 0
BITMAP
0000100000
0006800770
0004D24D10
00009EC300
0000000000
02F20008A0
05E0000B70
08B0000E40
0B80002F20
0E50005E00
1F2001BB00
1F614BB800
07EE91B500
ENDCHAR
STARTCHAR Uring
ENCODING 366
SWIDTH 600 0
DWIDTH 10 0
BBX 9 15 1 0
BITMAP
00007E7000
0001B2C000
0002A2B000
0000BE4000
0000000000
0B80000E40
0E50002F10
2F10005D00
5D00008A00
9A0000C700
C70000E400
E40003F100
D50009A000
9C216E3000
19EEB30000
ENDCHAR
STARTCHAR uring
ENCODING 367
SWIDTH 600 0
DWIDTH 10 0
BBX 9 13 0 0
BITMAP
00002DD300
0000A46800
0000C38700
00006EB100
0000000000
02F20008A0
05E0000B70
08B0000E40
0B80002F20
0E50005E00
1F2001BB00
1F614BB800
07EE91B500
ENDCHAR
STARTCHAR Uhungarumlaut
ENCODING 368
SWIDTH 600 0
DWIDTH 10 0
BBX 9 14 1 0
BITMAP
00001B0760
0000B63D20
000480A200
0000000000
0B80000E40
0E50002F10
2F10005D00
5D00008A00
9A0000C700
C70000E400
E40003F100
D50009A000
9C216E3000
19EEB30000
ENDCHAR
STARTCHAR uhungarumlaut
ENCODING 369
SWIDTH 600 0
DWIDTH 10 0
BBX 10 12 0 0
BITMAP
00000591B1
00002D2980
0000842A00
0000000000
02F20008A0
05E0000B70
08B0000E40
0B80002F20
0E50005E00
1F2001BB00
1F614BB800
07EE91B500
ENDCHAR
STARTCHAR Uogonek
ENCODING 370
SWIDTH 600 0
DWIDTH 10 0
BBX 9 14 1 -4
BITMAP
0B80000E40
0E50002F10
2F20005D00
5E00008A00
9B0000B700
C80000E400
E50002E100
E40006A000
A7001C3000
1986930000
02B3000000
0C20000000
1F21000000
0AE8000000
ENDCHAR
STARTCHAR uogonek
ENCODING 371
SWIDTH 600 0
DWIDTH 10 0
BBX 9 12 0 -4
BITMAP
02F20008A0
05E0000B70
08B0000E40
0B80002F20
0E50005E00
1F2001BB00
1F614BB800
07EE91B500
0000077000
0000570000
0000A62000
00005EC100
ENDCHAR
STARTCHAR Wcircumflex
ENCODING 372
SWIDTH 600 0
DWIDTH 10 0
BBX 11 13 0 0
BITMAP
00002CD80000
0002A20A3000
000000000000
08A000001F20
099000006C00
0A701300A700
0B609D01F200
0C51CD05C000
0D487D1A7000
0E3D1C3E2000
0F790B7C0000
1ED20AC80000
2FA009F30000
ENDCHAR
STARTCHAR wcircumflex
ENCODING 373
SWIDTH 600 0
DWIDTH 10 0
BBX 10 12 0 0
BITMAP
00003ED100
0002D5A700
0009301A00
0000000000
4E0048006B
3F00CE00C5
3F04BE03E0
3F0A6E0980
2F1E1E1E20
2F780E6B00
2FC20DC500
1FB00DD000
ENDCHAR
STARTCHAR Ycircumflex
ENCODING 374
SWIDTH 600 0
DWIDTH 10 0
BBX 9 13 1 0
BITMAP
0003DD5000
003A21B200
0000000000
1F30000AA0
0B80006D10
06C002E300
01F20C7000
00B68B0000
006DD10000
002F500000
004E000000
007B000000
00B8000000
ENDCHAR
STARTCHAR ycircumflex
ENCODING 375
SWIDTH 600 0
DWIDTH 10 0
BBX 11 15 -1 -3
BITMAP
000003ED1000
00002D5A7000
00009301A000
000000000000
007A00004E10
003E0000D600
000E3007C000
000B602E3000
0007A0A80000
0003D4D10000
0000EC400000
0000CA000000
0004E1000000
103D50000000
7FD500000000
ENDCHAR
STARTCHAR Ydieresis
ENCODING 376
SWIDTH 600 0
DWIDTH 10 0
BBX 9 13 1 0
BITMAP
000D30D200
001D21D100
0000000000
1F30000AA0
0B80006D10
06C002E300
01F20C7000
00B68B0000
006DD10000
002F500000
004E000000
007B000000
00B8000000
ENDCHAR
STARTCHAR Zacute
ENCODING 377
SWIDTH 600 0
DWIDTH 10 0
BBX 10 14 0 0
BITMAP
0000002B10
000003EA10
00000A5000
0000000000
00DFFFFFF4
0000001D80
000000BA00
000009C100
00007D1000
0005E30000
003E400000
02E6000000
1D80000000
9FFFFFFD00
ENDCHAR
STARTCHAR zacute
ENCODING 378
SWIDTH 600 0
DWIDTH 10 0
BBX 9 12 0 0
BITMAP
0000005A00
000007E500
00002B2000
0000000000
01FFFFFF70
000000BB00
00000AB000
0000AB1000
000AC10000
009C100000
09C1000000
5FFFFFF800
ENDCHAR
STARTCHAR Zdotaccent
ENCODING 379
SWIDTH 600 0
DWIDTH 10 0
BBX 10 13 0 0
BITMAP
000008B000
000009A000
0000000000
00DFFFFFF4
0000001D80
000000BA00
000009C100
00007D1000
0005E30000
003E400000
02E6000000
1D80000000
9FFFFFFD00
ENDCHAR
STARTCHAR zdotaccent
ENCODING 380
SWIDTH 600 0
DWIDTH 10 0
BBX 9 11 0 0
BITMAP
00001D9000
00002E8000
0000000000
01FFFFFF70
000000BB00
00000AB000
0000AB1000
000AC10000
009C100000
09C1000000
5FFFFFF800
ENDCHAR
STARTCHAR Zcaron
ENCODING 381
SWIDTH 600 0
DWIDTH 10 0
BBX 10 13 0 0
BITMAP
0000B31960
00003ED500
0000000000
00DFFFFFF4
0000001D80
000000BA00
000009C100
00007D1000
0005E30000
003E400000
02E6000000
1D80000000
9FFFFFFD00
ENDCHAR
STARTCHAR zcaron
ENCODING 382
SWIDTH 600 0
DWIDTH 10 0
BBX 9 12 0 0
BITMAP
0004800840
0000D5AA00
00005FB000
0000000000
01FFFFFF70
000000BB00
00000AB000
0000AB1000
000AC10000
009C100000
09C1000000
5FFFFFF800
ENDCHAR
STARTCHAR longs
ENCODING 383
SWIDTH 600 0
DWIDTH 10 0
BBX 9 11 1 0
BITMAP
00005CED80
0003F71250
0009C00000
1EFF800000
001F500000
003F200000
006D000000
009A000000
00C7000000
00F4000000
03F1000000
ENDCHAR
STARTCHAR uni0180
ENCODING 384
SWIDTH 600 0
DWIDTH 10 0
BBX 9 11 0 0
BITMAP
004E000000
0AFFFFF200
00B7000000
00E49ED700
02FA315F40
05D0000C80
0890000B80
0B60000D60
0E40006E10
2FB216E500
5B5DFC4000
ENDCHAR
STARTCHAR uni018A
ENCODING 394
SWIDTH 600 0
DWIDTH 10 0
BBX 10 10 0 0
BITMAP
003AEEC700
05D5E54DA0
1E32F203F3
4B05E000F5
5B08A000F5
2E4B7002F2
021E4007D0
003F102E50
006C16E700
009FDA3000
ENDCHAR
STARTCHAR uni018F
ENCODING 399
SWIDTH 600 0
DWIDTH 10 0
BBX 9 10 0 0
BITMAP
0006CED910
003B303D80
00000006E0
00000003F0
00000003F0
0EFFFFFFC0
1F20000A70
0F30004E10
0BA127E400
02BEEA2000
ENDCHAR
STARTCHAR uni0192
ENCODING 402
SWIDTH 600 0
DWIDTH 10 0
BBX 11 12 -1 -2
BITMAP
00000019EE60
000000AB2120
000002E10000
0003EFFFF100
00000C600000
00001F100000
00005C000000
000098000000
0000D4000000
0003E0000000
021C70000000
3DE900000000
ENDCHAR
STARTCHAR uni0193
ENCODING 403
SWIDTH 600 0
DWIDTH 10 0
BBX 10 13 1 0
BITMAP
00000008E5
0000002E10
0000004B00
0019DEDC00
03E9206D00
1D80000000
7D00000000
C700000000
F400BFF900
E50000C500
C80001F200
5F6117E000
04CFEA3000
ENDCHAR
STARTCHAR Ohorn
ENCODING 416
SWIDTH 600 0
DWIDTH 10 0
BBX 11 12 0 0
BITMAP
000000000C10
000000001E10
0006CED9A400
009D413D7000
05E20006E000
0C800003F100
2F300004F000
4F000007D000
4E00000C8000
2F20005E2000
0AB216E50000
019EEB300000
ENDCHAR
STARTCHAR ohorn
ENCODING 417
SWIDTH 600 0
DWIDTH 10 0
BBX 10 10 0 0
BITMAP
0000000077
00000000B5
0029EEBB70
02E9218D10
0AA0000E50
2F30000C70
4F00000E50
2F20007D00
0BB217E400
01AEEB3000
ENDCHAR
STARTCHAR Uhorn
ENCODING 431
SWIDTH 600 0
DWIDTH 10 0
BBX 11 13 1 0
BITMAP
000000000940
000000000A50
000000003C10
0B80000E8100
0E50002F2000
2F10005E0000
5D00008B0000
9A0000C80000
C70000E60000
E40003F30000
D50009E00000
9C216F600000
19EEC5000000
ENDCHAR
STARTCHAR uhorn
ENCODING 432
SWIDTH 600 0
DWIDTH 10 0
BBX 11 11 0 0
BITMAP
000000000760
000000000970
000000003E30
02F20008F700
05E0000B9000
08B0000E5000
0B80002F2000
0E50005E0000
1F2001BB0000
1F614BB80000
07EE91B50000
ENDCHAR
STARTCHAR uni01C2
ENCODING 450
SWIDTH 600 0
DWIDTH 10 0
BBX 8 14 1 -3
BITMAP
00008A00
0000B700
0000E400
0003F100
0006C000
6EFFFFF4
000C6000
000F3000
DEFFFFB0
006C0000
00A80000
00D50000
02F10000
06D00000
ENDCHAR
STARTCHAR uni01CD
ENCODING 461
SWIDTH 600 0
DWIDTH 10 0
BBX 10 13 -1 0
BITMAP
0000094078
000001DD70
0000000000
000001EC00
0000089E00
00002E1F10
0000A70E30
0004E10C50
000C700A70
006FFFFF90
01E60007B0
08C00006D0
2F400004F0
ENDCHAR
STARTCHAR uni01CE
ENCODING 462
SWIDTH 600 0
DWIDTH 10 0
BBX 9 12 0 0
BITMAP
0000B00480
0000996D20
00001EE200
0000000000
0019EEA5B0
00CB216F80
07D0000C50
0E60000F20
2F20003E00
2F30007C00
0DA128D900
03CFC4A600
ENDCHAR
STARTCHAR uni01CF
ENCODING 463
SWIDTH 600 0
DWIDTH 10 0
BBX 10 13 0 0
BITMAP
0000940780
00001DD700
0000000000
007FFFFFF1
00001F3000
00004E0000
00007C0000
0000A80000
0000D50000
0001F20000
0005E00000
0008B00000
5FFFFFF200
ENDCHAR
STARTCHAR uni01D0
ENCODING 464
SWIDTH 600 0
DWIDTH 10 0
BBX 8 12 1 0
BITMAP
007501A1
002E3C70
0008F800
00000000
4FFFC000
00099000
000C6000
001F2000
004E0000
007B0000
007D1220
001BFD60
ENDCHAR
STARTCHAR uni01D1
ENCODING 465
SWIDTH 600 0
DWIDTH 10 0
BBX 9 13 0 0
BITMAP
0000940780
00001DD700
0000000000
0006CFD600
009D413D60
05E20006D0
0C800003F0
2F300004F0
4F000007D0
4E00000C80
2F20005E20
0AB216E500
019EEB3000
ENDCHAR
STARTCHAR uni01D2
ENCODING 466
SWIDTH 600 0
DWIDTH 10 0
BBX 9 12 0 0
BITMAP
0003900750
0000C69B00
00004FC100
0000000000
0029EEB200
02E9218D10
0AA0000E50
2F30000C70
4F00000E50
2F20007D00
0BB217E400
01AEEA2000
ENDCHAR
STARTCHAR uni01D3
ENCODING 467
SWIDTH 600 0
DWIDTH 10 0
BBX 9 13 1 0
BITMAP
0009407800
0001DD7000
0000000000
0B80000E40
0E50002F10
2F10005D00
5D00008A00
9A0000C700
C70000E400
E40003F100
D50009A000
9C216E3000
19EEB30000
ENDCHAR
STARTCHAR uni01D4
ENCODING 468
SWIDTH 600 0
DWIDTH 10 0
BBX 9 12 0 0
BITMAP
0003900750
0000D59B00
00004FC100
0000000000
02F20008A0
05E0000B70
08B0000E40
0B80002F20
0E50005E00
1F2001BB00
1F614BB800
07EE91B500
ENDCHAR
STARTCHAR uni01D5
ENCODING 469
SWIDTH 600 0
DWIDTH 10 0
BBX 9 15 1 0
BITMAP
0008FFF900
0000000000
000B30C200
0000000000
0000000000
0B80000E40
0E50002F10
2F10005D00
5D00008A00
9A0000C700
C70000E400
E40003F100
D50009A000
9C216E3000
19EEB30000
ENDCHAR
STARTCHAR uni01D6
ENCODING 470
SWIDTH 600 0
DWIDTH 10 0
BBX 9 13 0 0
BITMAP
0000BFFF50
0000000000
0002C03B00
0000000000
0000000000
02F20008A0
05E0000B70
08B0000E40
0B80002F20
0E50005E00
1F2001BB00
1F614BB800
07EE91B500
ENDCHAR
STARTCHAR uni01D7
ENCODING 471
SWIDTH 600 0
DWIDTH 10 0
BBX 9 15 1 0
BITMAP
000002B200
00000A3000
000B30C200
0000000000
0000000000
0B80000E40
0E50002F10
2F10005D00
5D00008A00
9A0000C700
C70000E400
E40003F100
D50009A000
9C216E3000
19EEB30000
ENDCHAR
STARTCHAR uni01D8
ENCODING 472
SWIDTH 600 0
DWIDTH 10 0
BBX 9 13 0 0
BITMAP
0000004900
000002A100
0002C03B00
0000000000
0000000000
02F20008A0
05E0000B70
08B0000E40
0B80002F20
0E50005E00
1F2001BB00
1F614BB800
07EE91B500
ENDCHAR
STARTCHAR uni01D9
ENCODING 473
SWIDTH 600 0
DWIDTH 10 0
BBX 9 15 1 0
BITMAP
0002A17700
00008E8000
000B30C200
0000000000
0000000000
0B80000E40
0E50002F10
2F10005D00
5D00008A00
9A0000C700
C70000E400
E40003F100
D50009A000
9C216E3000
19EEB30000
ENDCHAR
STARTCHAR uni01DA
ENCODING 474
SWIDTH 600 0
DWIDTH 10 0
BBX 9 13 0 0
BITMAP
0000851940
00001CD500
0002C03B00
0000000000
0000000000
02F20008A0
05E0000B70
08B0000E40
0B80002F20
0E50005E00
1F2001BB00
1F614BB800
07EE91B500
ENDCHAR
STARTCHAR uni01DB
ENCODING 475
SWIDTH 600 0
DWIDTH 10 0
BBX 9 15 1 0
BITMAP
0000B30000
00002A0000
000B30C200
0000000000
0000000000
0B80000E40
0E50002F10
2F10005D00
5D00008A00
9A0000C700
C70000E400
E40003F100
D50009A000
9C216E3000
19EEB30000
ENDCHAR
STARTCHAR uni01DC
ENCODING 476
SWIDTH 600 0
DWIDTH 10 0
BBX 9 13 0 0
BITMAP
00000B1000
0000057000
0002C03B00
0000000000
0000000000
02F20008A0
05E0000B70
08B0000E40
0B80002F20
0E50005E00
1F2001BB00
1F614BB800
07EE91B500
ENDCHAR
STARTCHAR uni01E2
ENCODING 482
SWIDTH 600 0
DWIDTH 10 0
BBX 12 13 -1 0
BITMAP
0000000FFFF1
000000000000
000000000000
000001DFFFF4
000009AF0000
00003D6C0000
0000C5880000
0007A0BFFC00
002E20E20000
00BFFFE00000
06C006B00000
1E3009800000
A9000CFFF800
ENDCHAR
STARTCHAR uni01E3
ENCODING 483
SWIDTH 600 0
DWIDTH 10 0
BBX 11 11 -1 0
BITMAP
00003FFFD000
000000000000
000000000000
007DFA1AEC10
00721DD61A70
00000A900780
0039CFCBBD70
09D62F444410
3E101F000000
5E13BE714300
1BFB33DEB300
ENDCHAR
STARTCHAR Gcaron
ENCODING 486
SWIDTH 600 0
DWIDTH 10 0
BBX 9 13 1 0
BITMAP
0004903B10
00009DB100
0000000000
0019DFC300
03E9206C00
1D80000000
7D00000000
C700000000
F400BFF900
E50000C500
C80001F200
5F6117E000
04CFEA3000
ENDCHAR
STARTCHAR gcaron
ENCODING 487
SWIDTH 600 0
DWIDTH 10 0
BBX 9 15 0 -3
BITMAP
0000B00480
0000996D20
00001EE200
0000000000
0019EEA5B0
01DB216F80
08C0000D50
0E50001F20
1F30004E00
0F5000AB00
09E77BC800
006871C500
000002E100
67214D8000
3AEEC60000
ENDCHAR
STARTCHAR uni01EA
ENCODING 490
SWIDTH 600 0
DWIDTH 10 0
BBX 9 14 0 -4
BITMAP
0006CFD600
009D413D60
05E20006D0
0C800003F0
2F300004F0
4F000007D0
4E00000C90
2F20005E20
0BB216E400
01AEFC4000
002B200000
00C2000000
01F2100000
00AE800000
ENDCHAR
STARTCHAR uni01EB
ENCODING 491
SWIDTH 600 0
DWIDTH 10 0
BBX 9 12 0 -4
BITMAP
0029EEB200
01E9218D10
0AA0000E50
2F30000C70
4F00000E50
2F20007D10
0CB217E400
02BFFB3000
003B200000
00B2000000
00E2200000
00AE900000
ENDCHAR
STARTCHAR uni01F4
ENCODING 500
SWIDTH 600 0
DWIDTH 10 0
BBX 8 14 1 0
BITMAP
00000067
000008E5
00003B20
00000000
0019DFC3
03E9206C
1D800000
7D000000
C7000000
F400BFF9
E50000C5
C80001F2
5F6117E0
04CFEA30
ENDCHAR
STARTCHAR uni01F5
ENCODING 501
SWIDTH 600 0
DWIDTH 10 0
BBX 9 15 0 -3
BITMAP
0000002B20
000003E800
00000B4000
0000000000
0019EEA5B0
01DB216F80
08C0000D50
0E50001F20
1F30004E00
0F5000AB00
09E77BC800
006871C500
000002E100
67214D8000
3AEEC60000
ENDCHAR
STARTCHAR uni01F8
ENCODING 504
SWIDTH 600 0
DWIDTH 10 0
BBX 10 14 0 0
BITMAP
0000580000
00002E6000
000002B000
0000000000
009E0000E4
00CE4002F1
01F89005C0
04D3E00890
07B0D40C60
0A80890E30
0D503E2E00
1F100D8C00
4D0008E800
7A0003F500
ENDCHAR
STARTCHAR uni01F9
ENCODING 505
SWIDTH 600 0
DWIDTH 10 0
BBX 9 12 0 0
BITMAP
00005A0000
00001D7000
000002C100
0000000000
00E16CEB10
02F9712E60
05E3000C70
08A0000E40
0B70002F10
0E40005D00
2F10008A00
5D0000B700
ENDCHAR
STARTCHAR Aringacute
ENCODING 506
SWIDTH 600 0
DWIDTH 10 0
BBX 10 16 -1 0
BITMAP
0000000010
00000004D3
0000005670
000002A2C0
000001CE60
0000000000
000001EC00
0000089E00
00002E1F10
0000A70E30
0004E10C50
000C700A70
006FFFFF90
01E60007B0
08C00006D0
2F400004F0
ENDCHAR
STARTCHAR aringacute
ENCODING 507
SWIDTH 600 0
DWIDTH 10 0
BBX 9 14 0 0
BITMAP
0000000400
000001A800
00002DF700
0000773C00
00004ED400
0000000000
0019EEA5B0
00CB216F80
07D0000C50
0E60001F20
2F20004E00
2F30008C00
0DA129E900
03CFC4A600
ENDCHAR
STARTCHAR AEacute
ENCODING 508
SWIDTH 600 0
DWIDTH 10 0
BBX 12 14 -1 0
BITMAP
0000000002B1
000000003EA1
00000000A500
000000000000
000001DFFFF4
000009AF0000
00003D6C0000
0000C5880000
0007A0BFFC00
002E20E20000
00BFFFE00000
06C006B00000
1E3009800000
A9000CFFF800
ENDCHAR
STARTCHAR aeacute
ENCODING 509
SWIDTH 600 0
DWIDTH 10 0
BBX 11 12 -1 0
BITMAP
00000004B000
0000006E6000
000001B20000
000000000000
007DFA1AEC10
00721DD61A70
00000A900780
0039CFCBBD70
09D62F444410
3E101F000000
5E13BE714300
1BFB33DEB300
ENDCHAR
STARTCHAR Oslashacute
ENCODING 510
SWIDTH 600 0
DWIDTH 10 0
BBX 11 15 -1 -1
BITMAP
00000001A200
0000002CC200
000000870000
000000000030
00006CED79A0
0009D413EC10
005E2007ED00
00C8006D4F10
02F205D24F00
04F04D206D00
05E4E300C800
02FE4004E200
02FC216E5000
1D69EEB30000
030000000000
ENDCHAR
STARTCHAR oslashacute
ENCODING 511
SWIDTH 600 0
DWIDTH 10 0
BBX 10 13 0 -1
BITMAP
0000004B00
000006E500
00002B2000
0000000010
0029EEB7D1
01E921BF30
0A9008DD50
2F209C1B70
4F0AB10E50
2FBA006D00
1ED217E400
B8AEEB3000
1000000000
ENDCHAR
STARTCHAR uni0218
ENCODING 536
SWIDTH 600 0
DWIDTH 10 0
BBX 9 14 0 -4
BITMAP
0006DFD700
006E414D50
00A9000100
007D300000
0009F91000
00004CD200
000000B900
0400009B00
2E7115E500
03BEEC5000
0000000000
000CA00000
0005E00000
00CC400000
ENDCHAR
STARTCHAR uni0219
ENCODING 537
SWIDTH 600 0
DWIDTH 10 0
BBX 8 12 1 -4
BITMAP
02BEEB40
0C8116D1
0D600000
05EC6100
0016CD20
10000B80
D8202D60
29EFD700
00000000
00CA0000
004E0000
0CC40000
ENDCHAR
STARTCHAR uni021A
ENCODING 538
SWIDTH 600 0
DWIDTH 10 0
BBX 9 14 1 -4
BITMAP
5FFFFFFFD0
0001F30000
0004E00000
0007B00000
000A800000
000D500000
001F200000
005E000000
008B000000
00B8000000
0000000000
03D5000000
01A8000000
4E91000000
ENDCHAR
STARTCHAR uni021B
ENCODING 539
SWIDTH 600 0
DWIDTH 10 0
BBX 8 15 1 -4
BITMAP
000B4000
000E2000
003E0000
AEFFFFF9
00A80000
00D50000
01F20000
04E00000
06C00000
05F31430
009EEB40
00000000
001E7000
0018B000
01EB2000
ENDCHAR
STARTCHAR uni0237
ENCODING 567
SWIDTH 600 0
DWIDTH 10 0
BBX 8 11 -1 -3
BITMAP
000CFFFF
0000006C
00000099
000000D6
000001F3
000004E0
000007C0
00000A90
00000E40
0611AC00
1AEEA200
ENDCHAR
STARTCHAR uni0243
ENCODING 579
SWIDTH 600 0
DWIDTH 10 0
BBX 9 10 0 0
BITMAP
005FFFD910
008A003D90
00C70009A0
01F4015D30
04FFFFC200
07C0018D10
DFFFE00E50
0D50001F40
1F3014BB00
4FFFEC7100
ENDCHAR
STARTCHAR uni0250
ENCODING 592
SWIDTH 600 0
DWIDTH 10 0
BBX 8 8 1 0
BITMAP
1F18DEA1
4EB512D6
7D1000E5
99137CB0
CFEC9400
E4000000
C8115B20
4CFEB500
ENDCHAR
STARTCHAR uni0251
ENCODING 593
SWIDTH 600 0
DWIDTH 10 0
BBX 9 8 0 0
BITMAP
0019EEA5B0
00CB216F80
07D0000C50
0E60000F20
2F20003E00
2F30007C00
0DA128D900
03CFC4A600
ENDCHAR
STARTCHAR uni0252
ENCODING 594
SWIDTH 600 0
DWIDTH 10 0
BBX 9 8 0 0
BITMAP
00E29ED700
02FA415F40
05D1000C80
08A0000B80
0B70000E60
0E40006E10
2FB216E500
5A6DFC4000
ENDCHAR
STARTCHAR uni0253
ENCODING 595
SWIDTH 600 0
DWIDTH 10 0
BBX 9 11 0 0
BITMAP
0004CEC000
003E402000
0099000000
00D59ED700
01FB315F40
04D0000C80
0790000B80
0A70000E60
0D40006E10
2FB216E500
5B6DFC4000
ENDCHAR
STARTCHAR uni0254
ENCODING 596
SWIDTH 600 0
DWIDTH 10 0
BBX 9 8 0 0
BITMAP
006CFD8100
03B303CA00
0000004F20
0000001F30
0000004F10
000000BA00
5B203BD100
08EFD81000
ENDCHAR
STARTCHAR uni0255
ENCODING 597
SWIDTH 600 0
DWIDTH 10 0
BBX 9 9 0 -1
BITMAP
0006CFE810
00AC402A60
06D1000000
0C60000000
0D408DE600
0BAC915C00
04FC119900
09BBEE9100
2C10000000
ENDCHAR
STARTCHAR uni0256
ENCODING 598
SWIDTH 600 0
DWIDTH 10 0
BBX 10 14 0 -3
BITMAP
00000000B7
00000000E4
00000003F1
0019EEA7D0
00CB216FA0
07D0000D70
0E60001F40
2F20003F10
2F30007D00
0DA128E900
03CFC4D600
000001F300
000002F300
000000CE30
ENDCHAR
STARTCHAR uni0257
ENCODING 599
SWIDTH 600 0
DWIDTH 10 0
BBX 12 11 0 0
BITMAP
000000004DE1
00000000D710
00000002F200
0019EEA7D000
00CB216FA000
07D0000D7000
0E60001F4000
2F20003F1000
2F30007C0000
0DA128D90000
03CFC4A60000
ENDCHAR
STARTCHAR uni0258
ENCODING 600
SWIDTH 600 0
DWIDTH 10 0
BBX 8 8 1 0
BITMAP
019EEB30
1D7117E1
980000D5
CFFFFFF6
000001F5
000008E1
A5128F50
4CFEB300
ENDCHAR
STARTCHAR uni0259
ENCODING 601
SWIDTH 600 0
DWIDTH 10 0
BBX 9 8 0 0
BITMAP
003AEEC400
0085118E20
0000000E60
0000000B70
1FFFFFFF50
2F00003E10
0D8115D500
03BEEB3000
ENDCHAR
STARTCHAR uni025A
ENCODING 602
SWIDTH 600 0
DWIDTH 10 0
BBX 10 8 0 0
BITMAP
04BEE80000
05313E6220
00001BEDA1
0049DDA1EC
7CA40B7000
F2003E1000
C913D60000
2CFD500000
ENDCHAR
STARTCHAR uni025B
ENCODING 603
SWIDTH 600 0
DWIDTH 10 0
BBX 9 8 0 0
BITMAP
002AEFD700
00E9103B50
00D7100000
007FFF2000
0B92000000
1F30000000
0DB2027400
02BEFD9200
ENDCHAR
STARTCHAR uni025C
ENCODING 604
SWIDTH 600 0
DWIDTH 10 0
BBX 9 8 0 0
BITMAP
005BEFD600
0075116F10
0000018C00
000AFFC100
000002C900
0000007C00
1D7114E700
04BEEC6000
ENDCHAR
STARTCHAR uni025E
ENCODING 606
SWIDTH 600 0
DWIDTH 10 0
BBX 9 8 0 0
BITMAP
0018DFD800
02DA214F30
0BA0016E10
2F30AFD200
4F0002AC00
2F30005E00
0AC313D900
018DED7000
ENDCHAR
STARTCHAR uni025F
ENCODING 607
SWIDTH 600 0
DWIDTH 10 0
BBX 10 11 -1 -3
BITMAP
000CFFFF00
0000006D00
0000008A00
000000B800
000DEFFFFC
000002F200
000005D000
000009A000
00000D6000
06119D1000
1AEEB20000
ENDCHAR
STARTCHAR uni0260
ENCODING 608
SWIDTH 600 0
DWIDTH 10 0
BBX 11 13 0 -3
BITMAP
000000006EA0
00000002F300
0019EEA7C000
00CB216F9000
07D0000C5000
0D60000F2000
1F30003E0000
1F30007B0000
0CA117E80000
02BED5C50000
000002E10000
67213C800000
3AEEC6000000
ENDCHAR
STARTCHAR uni0261
ENCODING 609
SWIDTH 600 0
DWIDTH 10 0
BBX 9 11 0 -3
BITMAP
0019EEA5B0
01DB216F80
08C0000D50
0E50001F20
1F30004E00
0F5000AB00
09E77BC800
006871C500
000002E100
67214D8000
3AEEC60000
ENDCHAR
STARTCHAR uni0262
ENCODING 610
SWIDTH 600 0
DWIDTH 10 0
BBX 8 8 1 0
BITMAP
007CFE91
0BC402B5
7D100000
D6000000
F400FFF1
E60003D0
7E4119A0
06CEDA20
ENDCHAR
STARTCHAR uni0263
ENCODING 611
SWIDTH 600 0
DWIDTH 10 0
BBX 9 11 1 -3
BITMAP
7B00004E10
3E0001D500
0E3008A000
0A703E1000
06B0C50000
02E7A00000
00DE100000
05CF100000
0D2D400000
3D1E200000
1CE8000000
ENDCHAR
STARTCHAR uni0264
ENCODING 612
SWIDTH 600 0
DWIDTH 10 0
BBX 8 8 1 0
BITMAP
4ED519EC
117FD912
005EF200
05D29B00
1E303F00
5C003E00
5E22B900
0AED8000
ENDCHAR
STARTCHAR uni0265
ENCODING 613
SWIDTH 600 0
DWIDTH 10 0
BBX 9 11 0 -3
BITMAP
02F20008A0
05E0000B70
08B0000E40
0B80002F10
0E50004D00
1F2000BA00
1F614AC700
07EE91E400
000002F100
000005D000
000008A000
ENDCHAR
STARTCHAR uni0266
ENCODING 614
SWIDTH 600 0
DWIDTH 10 0
BBX 9 11 0 0
BITMAP
0004CEC000
003E512000
0099000000
00D46CEB10
01FA712E60
04E3000C60
07A0000E40
0A70002F10
0D40005D00
2F10008A00
5D0000B700
ENDCHAR
STARTCHAR uni0267
ENCODING 615
SWIDTH 600 0
DWIDTH 10 0
BBX 9 14 0 -3
BITMAP
0004CEC000
003E512000
0099000000
00D46CEB10
01FA712E60
04E3000C60
07A0000E40
0A70002F10
0D40005D00
2F10008A00
5D0000B700
000000E400
000015E000
0001ED5000
ENDCHAR
STARTCHAR uni0268
ENCODING 616
SWIDTH 600 0
DWIDTH 10 0
BBX 7 11 1 0
BITMAP
0003E600
0004E500
00000000
4FFFC000
00099000
000D5000
8EFFFFA0
005E0000
007B0000
007D1220
001BFD60
ENDCHAR
STARTCHAR uni026A
ENCODING 618
SWIDTH 600 0
DWIDTH 10 0
BBX 9 8 0 0
BITMAP
00EFFFFF70
00009B0000
0000C80000
0000E50000
0002F20000
0005E00000
0008B00000
4FFFFFF200
ENDCHAR
STARTCHAR uni026B
ENCODING 619
SWIDTH 600 0
DWIDTH 10 0
BBX 7 11 1 0
BITMAP
0AFFF200
0004E000
0007B000
025C7130
1DAF6860
582FEB10
006C0000
00990000
00C60000
00C91310
004DEC20
ENDCHAR
STARTCHAR uni026C
ENCODING 620
SWIDTH 600 0
DWIDTH 10 0
BBX 7 11 1 0
BITMAP
0AFFF200
0004E000
0008A000
5EAC7000
A75F3000
3DFFFF40
006C0000
00A90000
00C60000
00C90310
004DEC20
ENDCHAR
STARTCHAR uni026D
ENCODING 621
SWIDTH 600 0
DWIDTH 10 0
BBX 5 14 2 -3
BITMAP
AFFF20
004E00
007B00
00A800
00E400
02F100
05D000
08A000
0C7000
0F3000
3F1000
6D0000
5E2130
0AED70
ENDCHAR
STARTCHAR uni026E
ENCODING 622
SWIDTH 600 0
DWIDTH 10 0
BBX 10 14 0 -3
BITMAP
007B000000
00A7000000
00D4000000
02FFFFFFF3
05C0002C50
089003C300
0B705C2000
0E42FFE500
2F10218E00
5D00001F20
8A00003F10
0000008A00
05A216E200
019EFB3000
ENDCHAR
STARTCHAR uni026F
ENCODING 623
SWIDTH 600 0
DWIDTH 10 0
BBX 10 8 0 0
BITMAP
0A805D01F3
0D508A03F0
1F20B706C0
4E00E40990
7B02F10C60
A805C01F30
C92DC1AF10
8EA4EC6C00
ENDCHAR
STARTCHAR uni0270
ENCODING 624
SWIDTH 600 0
DWIDTH 10 0
BBX 10 11 0 -3
BITMAP
0A805C01F2
0D508904E0
1F20B607B0
4E00E30A80
8B02F00D50
A806C01F20
C83DC1AE00
8EA4EC8B00
0000009800
000000C500
000000F200
ENDCHAR
STARTCHAR uni0271
ENCODING 625
SWIDTH 600 0
DWIDTH 10 0
BBX 10 11 0 -3
BITMAP
088AE67EC0
0BC28E54F1
0E408904E0
2F10B607B0
5D00E30A80
8A02F00D50
B806C01F20
E509904E00
0000007B00
000001C700
00004EB100
ENDCHAR
STARTCHAR uni0272
ENCODING 626
SWIDTH 600 0
DWIDTH 10 0
BBX 11 11 -2 -3
BITMAP
0000E16CEB10
0002F9712E60
0005E3000C70
0008A0000E40
000B70002F10
000E40005D00
002F10008A00
005D0000B700
008A00000000
01D600000000
4EA000000000
ENDCHAR
STARTCHAR uni0273
ENCODING 627
SWIDTH 600 0
DWIDTH 10 0
BBX 9 11 0 -3
BITMAP
00C16CEB10
02F9712E60
05E3000C70
08A0000E40
0B70002F10
0E40005D00
2F10008A00
5D0000B700
000000E400
000001F400
000000BF40
ENDCHAR
STARTCHAR uni0274
ENCODING 628
SWIDTH 600 0
DWIDTH 10 0
BBX 9 8 0 0
BITMAP
00BB000E40
00EF202F10
02F9905D00
05D3E17B00
08A0C6A800
0B706CC500
0E401EF200
1F2009E000
ENDCHAR
STARTCHAR uni0275
ENCODING 629
SWIDTH 600 0
DWIDTH 10 0
BBX 9 8 0 0
BITMAP
0029EEB200
02D7217D10
0A60000C50
2FFFFFFF70
4E00001E50
2F20007E10
0BB217E400
01AEEB2000
ENDCHAR
STARTCHAR uni0276
ENCODING 630
SWIDTH 600 0
DWIDTH 10 0
BBX 10 8 0 0
BITMAP
007DFFEEEC
0AC30C6000
5E100E3000
B8002FFFA0
E5005C0000
D5008A0000
9C21B70000
1AEFFFFFA0
ENDCHAR
STARTCHAR uni0278
ENCODING 632
SWIDTH 600 0
DWIDTH 10 0
BBX 9 14 0 -3
BITMAP
000008B000
00000C7000
00001F4000
004BEFC500
07E68C5E50
2F40A908B0
7C00D606D0
9A02F308B0
7C05E01E60
2F78B3CA00
03CFFD6000
000E500000
002F200000
006D000000
ENDCHAR
STARTCHAR uni0279
ENCODING 633
SWIDTH 600 0
DWIDTH 10 0
BBX 8 8 0 0
BITMAP
0000007C
00000099
000000C6
000000E3
000003F0
00002CC0
0215A890
3EE91960
ENDCHAR
STARTCHAR uni027A
ENCODING 634
SWIDTH 600 0
DWIDTH 10 0
BBX 9 11 0 0
BITMAP
0000000990
0000000D60
0000001F30
0000004E00
0000007B00
000000A800
000000D400
000002F100
00001CD000
0215B8A000
4EE9196000
ENDCHAR
STARTCHAR uni027B
ENCODING 635
SWIDTH 600 0
DWIDTH 10 0
BBX 7 11 0 -3
BITMAP
000009A0
00000B70
00000E40
00002F10
00004D00
00009A00
0217D700
4ED6C500
0000F200
0001F320
0000BE80
ENDCHAR
STARTCHAR uni027D
ENCODING 637
SWIDTH 600 0
DWIDTH 10 0
BBX 8 11 1 -3
BITMAP
00F15CE9
03E69212
06E60000
09900000
0C600000
0E300000
3F000000
6D000000
8B000000
6E215000
0AED9100
ENDCHAR
STARTCHAR uni027E
ENCODING 638
SWIDTH 600 0
DWIDTH 10 0
BBX 8 8 1 0
BITMAP
0018DFE9
00BC3022
03E10000
08A00000
0B700000
0E400000
2F100000
5D000000
ENDCHAR
STARTCHAR uni0280
ENCODING 640
SWIDTH 600 0
DWIDTH 10 0
BBX 8 8 1 0
BITMAP
06FFFD60
099006F1
0C7002F2
0F402AB0
3FFFF910
6D01E400
9A008A00
B7002F20
ENDCHAR
STARTCHAR uni0281
ENCODING 641
SWIDTH 600 0
DWIDTH 10 0
BBX 8 8 1 0
BITMAP
0D6003F1
06C006D0
01E409A0
07EFFF70
7D300F40
D6002F10
CA105D00
4CFFFB00
ENDCHAR
STARTCHAR uni0282
ENCODING 642
SWIDTH 600 0
DWIDTH 10 0
BBX 9 11 0 -3
BITMAP
002BEEB400
00C8116D10
00D6000000
005EC61000
00016CD200
010000B800
1E8202D600
5D9EFD7000
8900000000
8A10000000
3ED0000000
ENDCHAR
STARTCHAR uni0283
ENCODING 643
SWIDTH 600 0
DWIDTH 10 0
BBX 11 14 -1 -3
BITMAP
00000009ED80
0000008C2250
000000D60000
000002F20000
000005E00000
000008B00000
00000B800000
00000E500000
00003F100000
00006D000000
00009A000000
0000C7000000
0514F2000000
1BED50000000
ENDCHAR
STARTCHAR uni0284
ENCODING 644
SWIDTH 600 0
DWIDTH 10 0
BBX 11 14 -1 -3
BITMAP
0000001AED80
0000009C1250
000000E50000
000003F10000
000006D00000
00000A900000
008EFFFFF300
00001F300000
00004F000000
00006C000000
000099000000
0000D6000000
0514E1000000
1BED50000000
ENDCHAR
STARTCHAR uni0287
ENCODING 647
SWIDTH 600 0
DWIDTH 10 0
BBX 8 11 0 -3
BITMAP
02ADEB20
01511C90
000008B0
00000A80
00000D50
00001F20
00004E00
5FFFFFFE
0000A700
0000D400
0000E100
ENDCHAR
STARTCHAR uni0288
ENCODING 648
SWIDTH 600 0
DWIDTH 10 0
BBX 8 14 1 -3
BITMAP
000B4000
000E2000
003E0000
AEFFFFF9
00A80000
00D50000
01F20000
04E00000
07B00000
0A800000
0D500000
0F400000
0D912500
04DFD800
ENDCHAR
STARTCHAR uni0289
ENCODING 649
SWIDTH 600 0
DWIDTH 10 0
BBX 10 8 0 0
BITMAP
00A8000F40
00D5002F10
01F3005D00
9FFFFFFFF1
06C000B700
099001E400
0AB14BF100
04DE93D000
ENDCHAR
STARTCHAR uni028A
ENCODING 650
SWIDTH 600 0
DWIDTH 10 0
BBX 8 8 1 0
BITMAP
6FF70EFE
06B00970
3D1004E0
A70002F1
E40005E0
F4000B90
BB219D10
2AEE9100
ENDCHAR
STARTCHAR uni028B
ENCODING 651
SWIDTH 600 0
DWIDTH 10 0
BBX 8 8 1 0
BITMAP
2F207FB0
5E0002E5
8B0000C7
B80000E5
E50004F1
F4000B90
CB11AD10
2BEE9100
ENDCHAR
STARTCHAR uni028C
ENCODING 652
SWIDTH 600 0
DWIDTH 10 0
BBX 8 8 0 0
BITMAP
00009F40
0003DA70
000C67A0
006C04D0
01E401F2
08A000D5
2E2000A8
B800007C
ENDCHAR
STARTCHAR uni028D
ENCODING 653
SWIDTH 600 0
DWIDTH 10 0
BBX 10 8 -1 0
BITMAP
0009F207F6
001ED20DC6
007AC34BB6
00D4B3A5B7
04D0B5D0B7
0A70AA80B7
1E20AE20A8
7B005700A8
ENDCHAR
STARTCHAR uni028E
ENCODING 654
SWIDTH 600 0
DWIDTH 10 0
BBX 10 11 0 0
BITMAP
0000001AED
000000C911
000008B000
00003F2000
0000CE3000
0007A97000
002E26B000
00C702E000
06C000E300
2E3000A700
B800006B00
ENDCHAR
STARTCHAR uni028F
ENCODING 655
SWIDTH 600 0
DWIDTH 10 0
BBX 8 8 1 0
BITMAP
2F4000B9
0B9007C0
05E14E20
00D6D400
008F7000
005E0000
008B0000
00A90000
ENDCHAR
STARTCHAR uni0290
ENCODING 656
SWIDTH 600 0
DWIDTH 10 0
BBX 9 11 0 -3
BITMAP
01FFFFFF70
000000BB00
00000AB000
0000AB1000
000AC10000
009C100000
09C1000000
5FFFFFF800
000000E500
000000F500
0000009F60
ENDCHAR
STARTCHAR uni0291
ENCODING 657
SWIDTH 600 0
DWIDTH 10 0
BBX 9 10 0 -2
BITMAP
01FFFFFF50
000001C900
00001B9000
0000BA0000
000BA06EA0
00AA05B1D0
0AB10C25A0
5FFFFFEA10
0000C20000
0002A00000
ENDCHAR
STARTCHAR uni0292
ENCODING 658
SWIDTH 600 0
DWIDTH 10 0
BBX 10 11 -1 -3
BITMAP
000CFFFFF5
0000002B50
000005B200
00008A1000
000AFFD500
0002118F20
0000000E50
0000000D50
0000005D10
1D6116E400
04BEEB2000
ENDCHAR
STARTCHAR uni0294
ENCODING 660
SWIDTH 600 0
DWIDTH 10 0
BBX 7 11 2 0
BITMAP
18DFD800
A9203E70
000009A0
00000B80
00006E10
0029D200
04E60000
07B00000
0B800000
0E500000
2F200000
ENDCHAR
STARTCHAR uni0295
ENCODING 661
SWIDTH 600 0
DWIDTH 10 0
BBX 8 11 2 0
BITMAP
02AEEB30
2E8116E1
8B000020
A9000000
7D000000
1CB10000
01CA0000
00B80000
00E50000
02F10000
05D00000
ENDCHAR
STARTCHAR uni0298
ENCODING 664
SWIDTH 600 0
DWIDTH 10 0
BBX 8 11 1 0
BITMAP
002AED70
02E813E5
0C80007A
4F10005C
9A0AA05C
C60B908A
E40000C7
E30002F2
C6000AA0
7D219D10
08EEA100
ENDCHAR
STARTCHAR uni0299
ENCODING 665
SWIDTH 600 0
DWIDTH 10 0
BBX 8 8 1 0
BITMAP
08FFFE90
0A8004F2
0D4017D0
1FFFFD20
4E001BA0
7B0007B0
A8003D60
DFFFD700
ENDCHAR
STARTCHAR uni029C
ENCODING 668
SWIDTH 600 0
DWIDTH 10 0
BBX 9 8 0 0
BITMAP
00F4000A80
03F1000D50
06C0001F30
09FFFFFE00
0B60008C00
0E3000A900
2F1000D600
5D0001F300
ENDCHAR
STARTCHAR uni029D
ENCODING 669
SWIDTH 600 0
DWIDTH 10 0
BBX 8 15 0 -4
BITMAP
000001D8
000002E7
00000000
00CFFFF0
000006C0
00000990
00000C60
00000F30
00003F00
00006C00
00009900
6DEBD500
E42AF500
7EEA7D00
00000C10
ENDCHAR
STARTCHAR uni029E
ENCODING 670
SWIDTH 600 0
DWIDTH 10 0
BBX 9 11 0 -3
BITMAP
09A0000C60
02F3000E30
009A003F00
002F48EC00
0009F89900
004E60C600
06E401F300
8D2003E000
000006C000
00000A9000
00000D6000
ENDCHAR
STARTCHAR uni029F
ENCODING 671
SWIDTH 600 0
DWIDTH 10 0
BBX 7 8 1 0
BITMAP
00D50000
01F20000
04E00000
07C00000
0A900000
0C600000
1F300000
3FFFFFC0
ENDCHAR
STARTCHAR uni02A1
ENCODING 673
SWIDTH 600 0
DWIDTH 10 0
BBX 8 11 1 0
BITMAP
018DFD80
0A9203D7
0000009A
000000C7
000008B0
0005C700
9EFFFFE0
008B0000
00B80000
00E50000
02F20000
ENDCHAR
STARTCHAR uni02A2
ENCODING 674
SWIDTH 600 0
DWIDTH 10 0
BBX 9 11 1 0
BITMAP
003AEEB300
02E8116E10
09B0000200
0AA0000000
05E1000000
008C300000
6EFFFFF100
000B700000
000E400000
002F100000
005D000000
ENDCHAR
STARTCHAR uni02A4
ENCODING 676
SWIDTH 600 0
DWIDTH 10 0
BBX 12 14 -1 -3
BITMAP
000000890000
000000C50000
000000F20000
004DE7FFFFF5
03E51DA007B0
0A800A803D10
1F300D51D400
3F001F2A7000
3F003E3FF900
1F42CB013F30
07EB88000E40
000000003F10
00003813C800
00001AED7000
ENDCHAR
STARTCHAR uni02A6
ENCODING 678
SWIDTH 600 0
DWIDTH 10 0
BBX 9 11 0 0
BITMAP
0014000000
005B000000
00A8000000
1EFFFFFE90
02F10E6160
05D00E5000
08A005E600
0B70003E40
0E50000B60
0CA2016E30
03BEFEB400
ENDCHAR
STARTCHAR uni02A7
ENCODING 679
SWIDTH 600 0
DWIDTH 10 0
BBX 10 14 1 -3
BITMAP
00A6001AEA
00D3008D10
02F100D800
7FFFFFF500
08A004F100
0C7007D000
0E400AA000
3F100D7000
6D001F4000
6E114F1000
2CF87C0000
0000A90000
0012E40000
00BE800000
ENDCHAR
STARTCHAR h.sups
ENCODING 688
SWIDTH 600 0
DWIDTH 10 0
BBX 6 9 3 5
BITMAP
022000
095000
0C2000
0D7EC1
3E51D3
6800D2
9501E0
C203B0
600240
ENDCHAR
STARTCHAR j.sups
ENCODING 690
SWIDTH 600 0
DWIDTH 10 0
BBX 6 10 2 4
BITMAP
000098
000000
000000
03FFE0
0002B0
000680
000950
000D20
315C00
9EC300
ENDCHAR
STARTCHAR r.sups
ENCODING 691
SWIDTH 600 0
DWIDTH 10 0
BBX 6 6 3 5
BITMAP
0499E7
07E511
0A6000
0C2000
0E0000
150000
ENDCHAR
STARTCHAR w.sups
ENCODING 695
SWIDTH 600 0
DWIDTH 10 0
BBX 8 5 2 6
BITMAP
850B7085
763A81C0
67B49850
5B91BC00
3F20F600
ENDCHAR
STARTCHAR y.sups
ENCODING 696
SWIDTH 600 0
DWIDTH 10 0
BBX 7 7 2 4
BITMAP
06900A50
02C03B00
00D0B200
00A77000
006C0000
12D40000
AE600000
ENDCHAR
STARTCHAR uni02B9
ENCODING 697
SWIDTH 600 0
DWIDTH 10 0
BBX 3 4 4 7
BITMAP
05D0
0970
0D10
3A00
ENDCHAR
STARTCHAR uni02BB
ENCODING 699
SWIDTH 600 0
DWIDTH 10 0
BBX 4 5 4 6
BITMAP
0199
2D92
AA00
DF70
9E50
ENDCHAR
STARTCHAR uni02BC
ENCODING 700
SWIDTH 600 0
DWIDTH 10 0
BBX 5 5 3 6
BITMAP
02DC00
04EF10
006D00
16E400
5A3000
ENDCHAR
STARTCHAR uni02BE
ENCODING 702
SWIDTH 600 0
DWIDTH 10 0
BBX 4 5 4 8
BITMAP
3E70
02D3
00A4
04D1
AA20
ENDCHAR
STARTCHAR uni02BF
ENCODING 703
SWIDTH 600 0
DWIDTH 10 0
BBX 4 5 4 8
BITMAP
02A9
1D40
5A00
4D20
08E2
ENDCHAR
STARTCHAR uni02C1
ENCODING 705
SWIDTH 600 0
DWIDTH 10 0
BBX 6 7 3 7
BITMAP
02BEB1
0C5165
1D0000
0D3000
03D200
00C200
006000
ENDCHAR
STARTCHAR circumflex
ENCODING 710
SWIDTH 600 0
DWIDTH 10 0
BBX 6 3 3 9
BITMAP
02EE10
1D6990
8500B1
ENDCHAR
STARTCHAR caron
ENCODING 711
SWIDTH 600 0
DWIDTH 10 0
BBX 6 3 3 9
BITMAP
390075
0C69B0
04FC10
ENDCHAR
STARTCHAR uni02C8
ENCODING 712
SWIDTH 600 0
DWIDTH 10 0
BBX 3 5 4 6
BITMAP
0BB0
0D70
0F30
2E00
3A00
ENDCHAR
STARTCHAR uni02C9
ENCODING 713
SWIDTH 600 0
DWIDTH 10 0
BBX 5 1 3 10
BITMAP
3FFFD0
ENDCHAR
STARTCHAR uni02CA
ENCODING 714
SWIDTH 600 0
DWIDTH 10 0
BBX 4 3 4 9
BITMAP
004B
06E5
2B20
ENDCHAR
STARTCHAR uni02CB
ENCODING 715
SWIDTH 600 0
DWIDTH 10 0
BBX 3 3 4 9
BITMAP
7800
3E40
04A0
ENDCHAR
STARTCHAR uni02CC
ENCODING 716
SWIDTH 600 0
DWIDTH 10 0
BBX 3 5 2 -4
BITMAP
0860
0C40
1F20
5F00
9D00
ENDCHAR
STARTCHAR uni02D0
ENCODING 720
SWIDTH 600 0
DWIDTH 10 0
BBX 5 8 2 0
BITMAP
00CF40
006600
000000
000000
000000
000000
048000
2EE100
ENDCHAR
STARTCHAR uni02D1
ENCODING 721
SWIDTH 600 0
DWIDTH 10 0
BBX 3 2 4 6
BITMAP
CF40
6600
ENDCHAR
STARTCHAR breve
ENCODING 728
SWIDTH 600 0
DWIDTH 10 0
BBX 6 4 3 9
BITMAP
010000
680077
3D24D1
08EC30
ENDCHAR
STARTCHAR dotaccent
ENCODING 729
SWIDTH 600 0
DWIDTH 10 0
BBX 3 2 4 9
BITMAP
0CA0
1D90
ENDCHAR
STARTCHAR ring
ENCODING 730
SWIDTH 600 0
DWIDTH 10 0
BBX 4 4 4 9
BITMAP
2CD3
A468
C377
5EB1
ENDCHAR
STARTCHAR ogonek
ENCODING 731
SWIDTH 600 0
DWIDTH 10 0
BBX 3 4 2 -4
BITMAP
1A30
A200
E220
AE90
ENDCHAR
STARTCHAR tilde
ENCODING 732
SWIDTH 600 0
DWIDTH 10 0
BBX 6 3 3 9
BITMAP
042003
6CD56A
B12CD2
ENDCHAR
STARTCHAR hungarumlaut
ENCODING 733
SWIDTH 600 0
DWIDTH 10 0
BBX 6 3 4 9
BITMAP
0491B1
1D2980
842A00
ENDCHAR
STARTCHAR uni02DE
ENCODING 734
SWIDTH 600 0
DWIDTH 10 0
BBX 5 3 3 4
BITMAP
17A000
97D100
00AD10
ENDCHAR
STARTCHAR uni02E0
ENCODING 736
SWIDTH 600 0
DWIDTH 10 0
BBX 6 7 3 4
BITMAP
670077
2B02B0
0C0A20
098600
07B000
28B200
2EB000
ENDCHAR
STARTCHAR l.sups
ENCODING 737
SWIDTH 600 0
DWIDTH 10 0
BBX 4 8 4 6
BITMAP
4FE0
02B0
0680
0950
0C20
0D00
2D11
1DE4
ENDCHAR
STARTCHAR s.sups
ENCODING 738
SWIDTH 600 0
DWIDTH 10 0
BBX 5 5 3 6
BITMAP
09EE50
1E1250
037600
831A50
3DFB10
ENDCHAR
STARTCHAR x.sups
ENCODING 739
SWIDTH 600 0
DWIDTH 10 0
BBX 6 6 3 5
BITMAP
0D13C1
078C20
03F500
1C8900
B50D20
200110
ENDCHAR
STARTCHAR uni02E4
ENCODING 740
SWIDTH 600 0
DWIDTH 10 0
BBX 6 8 3 6
BITMAP
02BEB1
0C5165
1D0000
0D3000
03D200
00C200
00D000
02A000
ENDCHAR
STARTCHAR uni0300
ENCODING 768
SWIDTH 600 0
DWIDTH 10 0
BBX 3 3 4 9
BITMAP
7800
3E40
04A0
ENDCHAR
STARTCHAR uni0301
ENCODING 769
SWIDTH 600 0
DWIDTH 10 0
BBX 4 3 4 9
BITMAP
004B
06E5
2B20
ENDCHAR
STARTCHAR uni0302
ENCODING 770
SWIDTH 600 0
DWIDTH 10 0
BBX 6 3 3 9
BITMAP
02EE10
1D6990
8500B1
ENDCHAR
STARTCHAR uni0303
ENCODING 771
SWIDTH 600 0
DWIDTH 10 0
BBX 6 3 3 9
BITMAP
042003
6CD56A
B12CD2
ENDCHAR
STARTCHAR uni0304
ENCODING 772
SWIDTH 600 0
DWIDTH 10 0
BBX 5 1 3 10
BITMAP
3FFFD0
ENDCHAR
STARTCHAR uni0305
ENCODING 773
SWIDTH 600 0
DWIDTH 10 0
BBX 5 1 3 10
BITMAP
3FFFD0
ENDCHAR
STARTCHAR uni0306
ENCODING 774
SWIDTH 600 0
DWIDTH 10 0
BBX 6 4 3 9
BITMAP
010000
680077
3D24D1
08EC30
ENDCHAR
STARTCHAR uni0307
ENCODING 775
SWIDTH 600 0
DWIDTH 10 0
BBX 3 2 4 9
BITMAP
0CA0
1D90
ENDCHAR
STARTCHAR uni0308
ENCODING 776
SWIDTH 600 0
DWIDTH 10 0
BBX 6 2 3 9
BITMAP
3E13D1
4D14D0
ENDCHAR
STARTCHAR uni0309
ENCODING 777
SWIDTH 600 0
DWIDTH 10 0
BBX 3 4 5 9
BITMAP
D900
2E30
3E10
B400
ENDCHAR
STARTCHAR uni030A
ENCODING 778
SWIDTH 600 0
DWIDTH 10 0
BBX 4 4 4 9
BITMAP
2CD3
A468
C377
5EB1
ENDCHAR
STARTCHAR uni030B
ENCODING 779
SWIDTH 600 0
DWIDTH 10 0
BBX 6 3 4 9
BITMAP
0491B1
1D2980
842A00
ENDCHAR
STARTCHAR uni030C
ENCODING 780
SWIDTH 600 0
DWIDTH 10 0
BBX 6 3 3 9
BITMAP
390075
0C69B0
04FC10
ENDCHAR
STARTCHAR uni030F
ENCODING 783
SWIDTH 600 0
DWIDTH 10 0
BBX 5 3 2 9
BITMAP
1C0850
0B45A0
0570C0
ENDCHAR
STARTCHAR uni0310
ENCODING 784
SWIDTH 600 0
DWIDTH 10 0
BBX 6 5 3 9
BITMAP
003800
019F11
662349
4C13D2
09EC40
ENDCHAR
STARTCHAR uni0311
ENCODING 785
SWIDTH 600 0
DWIDTH 10 0
BBX 6 4 3 8
BITMAP
05DE50
3C24E0
A300C1
100010
ENDCHAR
STARTCHAR uni0312
ENCODING 786
SWIDTH 600 0
DWIDTH 10 0
BBX 3 3 4 9
BITMAP
0690
2D00
1E50
ENDCHAR
STARTCHAR uni0313
ENCODING 787
SWIDTH 600 0
DWIDTH 10 0
BBX 3 3 4 9
BITMAP
09A0
04B0
1B20
ENDCHAR
STARTCHAR uni0318
ENCODING 792
SWIDTH 600 0
DWIDTH 10 0
BBX 3 5 2 -5
BITMAP
0020
00C0
DFA0
0470
0110
ENDCHAR
STARTCHAR uni0319
ENCODING 793
SWIDTH 600 0
DWIDTH 10 0
BBX 4 5 1 -5
BITMAP
0200
0C00
0FF8
3900
1100
ENDCHAR
STARTCHAR uni031A
ENCODING 794
SWIDTH 600 0
DWIDTH 10 0
BBX 3 3 5 8
BITMAP
8FF0
00B0
0150
ENDCHAR
STARTCHAR uni031B
ENCODING 795
SWIDTH 600 0
DWIDTH 10 0
BBX 3 4 5 7
BITMAP
01B0
02E0
1AA0
A910
ENDCHAR
STARTCHAR uni031C
ENCODING 796
SWIDTH 600 0
DWIDTH 10 0
BBX 3 3 2 -4
BITMAP
4D50
C400
7C00
ENDCHAR
STARTCHAR uni031D
ENCODING 797
SWIDTH 600 0
DWIDTH 10 0
BBX 4 2 1 -3
BITMAP
00C0
4FFB
ENDCHAR
STARTCHAR uni031E
ENCODING 798
SWIDTH 600 0
DWIDTH 10 0
BBX 4 2 1 -4
BITMAP
1FFE
0390
ENDCHAR
STARTCHAR uni031F
ENCODING 799
SWIDTH 600 0
DWIDTH 10 0
BBX 4 5 1 -5
BITMAP
0020
00C0
3FFC
0480
0110
ENDCHAR
STARTCHAR uni0320
ENCODING 800
SWIDTH 600 0
DWIDTH 10 0
BBX 4 1 1 -3
BITMAP
3FFC
ENDCHAR
STARTCHAR uni0323
ENCODING 803
SWIDTH 600 0
DWIDTH 10 0
BBX 3 2 2 -4
BITMAP
7E20
8D20
ENDCHAR
STARTCHAR uni0324
ENCODING 804
SWIDTH 600 0
DWIDTH 10 0
BBX 5 2 1 -4
BITMAP
A70A70
C60C60
ENDCHAR
STARTCHAR uni0325
ENCODING 805
SWIDTH 600 0
DWIDTH 10 0
BBX 4 4 1 -4
BITMAP
09E8
4A1D
592C
1CE4
ENDCHAR
STARTCHAR uni0326
ENCODING 806
SWIDTH 600 0
DWIDTH 10 0
BBX 4 3 1 -4
BITMAP
04D5
01A8
4E91
ENDCHAR
STARTCHAR uni0327
ENCODING 807
SWIDTH 600 0
DWIDTH 10 0
BBX 4 5 1 -5
BITMAP
00A1
04E4
00A8
02C5
5D70
ENDCHAR
STARTCHAR uni0328
ENCODING 808
SWIDTH 600 0
DWIDTH 10 0
BBX 3 4 2 -4
BITMAP
1A30
A200
E220
AE90
ENDCHAR
STARTCHAR uni0329
ENCODING 809
SWIDTH 600 0
DWIDTH 10 0
BBX 2 3 2 -4
BITMAP
0D
3B
69
ENDCHAR
STARTCHAR uni032A
ENCODING 810
SWIDTH 600 0
DWIDTH 10 0
BBX 5 3 1 -4
BITMAP
7FFF60
920830
600500
ENDCHAR
STARTCHAR uni032C
ENCODING 812
SWIDTH 600 0
DWIDTH 10 0
BBX 5 3 1 -4
BITMAP
9202A0
5C4D40
0BF500
ENDCHAR
STARTCHAR uni032E
ENCODING 814
SWIDTH 600 0
DWIDTH 10 0
BBX 5 4 1 -4
BITMAP
100010
D001D0
B71A70
3DE800
ENDCHAR
STARTCHAR uni032F
ENCODING 815
SWIDTH 600 0
DWIDTH 10 0
BBX 6 4 0 -5
BITMAP
01AFB1
0B61A6
3A0059
010000
ENDCHAR
STARTCHAR uni0330
ENCODING 816
SWIDTH 600 0
DWIDTH 10 0
BBX 7 3 0 -4
BITMAP
01410210
0CAB1C20
4807E800
ENDCHAR
STARTCHAR uni0331
ENCODING 817
SWIDTH 600 0
DWIDTH 10 0
BBX 5 1 1 -3
BITMAP
BFFF50
ENDCHAR
STARTCHAR uni0334
ENCODING 820
SWIDTH 600 0
DWIDTH 10 0
BBX 7 3 1 3
BITMAP
02510130
1DAC2860
5805EB10
ENDCHAR
STARTCHAR uni0339
ENCODING 825
SWIDTH 600 0
DWIDTH 10 0
BBX 3 3 2 -4
BITMAP
4D20
0960
BA10
ENDCHAR
STARTCHAR uni033A
ENCODING 826
SWIDTH 600 0
DWIDTH 10 0
BBX 5 3 1 -4
BITMAP
330230
830740
AFFF20
ENDCHAR
STARTCHAR uni033B
ENCODING 827
SWIDTH 600 0
DWIDTH 10 0
BBX 5 3 1 -4
BITMAP
6FFF60
920730
BFFF10
ENDCHAR
STARTCHAR uni033C
ENCODING 828
SWIDTH 600 0
DWIDTH 10 0
BBX 6 3 0 -4
BITMAP
0BE7E9
574B1C
000001
ENDCHAR
STARTCHAR uni033D
ENCODING 829
SWIDTH 600 0
DWIDTH 10 0
BBX 4 3 4 8
BITMAP
2A92
1D90
4370
ENDCHAR
STARTCHAR uni0342
ENCODING 834
SWIDTH 600 0
DWIDTH 10 0
BBX 6 3 3 9
BITMAP
042003
6CD56A
B12CD2
ENDCHAR
STARTCHAR uni0345
ENCODING 837
SWIDTH 600 0
DWIDTH 10 0
BBX 2 2 3 -3
BITMAP
E0
D9
ENDCHAR
STARTCHAR uni035F
ENCODING 863
SWIDTH 600 0
DWIDTH 10 0
BBX 17 1 -5 -3
BITMAP
7FFFFFFFFFFFFFFF20
ENDCHAR
STARTCHAR uni0361
ENCODING 865
SWIDTH 600 0
DWIDTH 10 0
BBX 15 3 -2 9
BITMAP
00027ADEFEC83000
03AC84210248DB20
2B300000000005B0
ENDCHAR
STARTCHAR pi
ENCODING 960
SWIDTH 600 0
DWIDTH 10 0
BBX 9 9 1 -1
BITMAP
CFFFFFFF60
079005C000
0B60098000
0E300C5000
2F001F1000
6B003D0000
A8006C1000
E4003EC000
1000000000
ENDCHAR
STARTCHAR a.sups
ENCODING 7491
SWIDTH 600 0
DWIDTH 10 0
BBX 7 5 2 6
BITMAP
01AEBB10
0A813D00
1E004A00
2E22A700
09EB7300
ENDCHAR
STARTCHAR b.sups
ENCODING 7495
SWIDTH 600 0
DWIDTH 10 0
BBX 7 7 2 6
BITMAP
00B30000
00E00000
03DAEA00
06B21D30
0A500D20
0D417C00
19BEA200
ENDCHAR
STARTCHAR d.sups
ENCODING 7496
SWIDTH 600 0
DWIDTH 10 0
BBX 7 8 2 6
BITMAP
00000010
00000680
00000940
01AEBC10
0B814D00
1D005900
2E22B600
09EB8200
ENDCHAR
STARTCHAR e.sups
ENCODING 7497
SWIDTH 600 0
DWIDTH 10 0
BBX 5 5 3 6
BITMAP
07DE60
7911D0
CFFFD0
C41530
4DEA10
ENDCHAR
STARTCHAR g.sups
ENCODING 7501
SWIDTH 600 0
DWIDTH 10 0
BBX 7 7 2 4
BITMAP
019EBB10
0A913D00
1E004A00
1E22A700
09EBC400
3404E100
3CEC4000
ENDCHAR
STARTCHAR k.sups
ENCODING 7503
SWIDTH 600 0
DWIDTH 10 0
BBX 6 9 3 5
BITMAP
023000
077000
0A4000
0D11A5
1D2B30
4DCC00
7B1B50
A404C0
200020
ENDCHAR
STARTCHAR m.sups
ENCODING 7504
SWIDTH 600 0
DWIDTH 10 0
BBX 9 6 1 5
BITMAP
087DD5DD10
0B81C91C30
0E00D10C10
2C01D01D00
5904A03A00
3302302300
ENDCHAR
STARTCHAR o.sups
ENCODING 7506
SWIDTH 600 0
DWIDTH 10 0
BBX 5 5 3 6
BITMAP
19EE60
9913E0
E000E0
E319A0
6EE910
ENDCHAR
STARTCHAR p.sups
ENCODING 7510
SWIDTH 600 0
DWIDTH 10 0
BBX 7 7 2 4
BITMAP
02C9EB10
05C31C50
08700B40
0B616D10
0DAEB200
2C000000
58000000
ENDCHAR
STARTCHAR t.sups
ENCODING 7511
SWIDTH 600 0
DWIDTH 10 0
BBX 6 7 3 6
BITMAP
006300
00C100
6FFFF3
04B000
077000
096120
06ED50
ENDCHAR
STARTCHAR u.sups
ENCODING 7512
SWIDTH 600 0
DWIDTH 10 0
BBX 6 5 3 6
BITMAP
5900C2
8601E0
B204B0
E23B80
AEB940
ENDCHAR
STARTCHAR v.sups
ENCODING 7515
SWIDTH 600 0
DWIDTH 10 0
BBX 6 5 3 6
BITMAP
6800D2
3B0880
1D2D10
0DA600
0AC000
ENDCHAR
STARTCHAR c.sups
ENCODING 7580
SWIDTH 600 0
DWIDTH 10 0
BBX 5 5 3 6
BITMAP
05CE80
4D3140
A60000
981420
2CFA10
ENDCHAR
STARTCHAR f.sups
ENCODING 7584
SWIDTH 600 0
DWIDTH 10 0
BBX 6 9 4 5
BITMAP
008EC1
04C120
087000
EFFF50
0D1000
1D0000
4A0000
770000
420000
ENDCHAR
STARTCHAR z.sups
ENCODING 7611
SWIDTH 600 0
DWIDTH 10 0
BBX 7 5 2 6
BITMAP
04FFFE10
00019200
00191000
02910000
1EFFF600
ENDCHAR
STARTCHAR uni1E06
ENCODING 7686
SWIDTH 600 0
DWIDTH 10 0
BBX 9 13 0 -3
BITMAP
005FFFD910
008B003D90
00B70009A0
00E4003E40
03FCBDC400
06D445BA00
09A0000E40
0C60001F30
1F3013BB00
4FFFEC7100
0000000000
0000000000
07FFF90000
ENDCHAR
STARTCHAR uni1E07
ENCODING 7687
SWIDTH 600 0
DWIDTH 10 0
BBX 9 14 0 -3
BITMAP
004E000000
007B000000
00A8000000
00D59ED700
01FB415F40
04D0000C80
07A0000B80
0B70000E60
0E40006E10
2FB216E500
5B6DFC4000
0000000000
0000000000
06FFFA0000
ENDCHAR
STARTCHAR uni1E0C
ENCODING 7692
SWIDTH 600 0
DWIDTH 10 0
BBX 9 14 0 -4
BITMAP
00AFFEA300
00D6029F30
01F3000BA0
04E00007D0
07B00006D0
0B800008B0
0E50000D70
2F20007E10
5E0039E300
8FFFD92000
0000000000
0000000000
009D100000
00AC100000
ENDCHAR
STARTCHAR uni1E0D
ENCODING 7693
SWIDTH 600 0
DWIDTH 10 0
BBX 10 15 0 -4
BITMAP
00000000B7
00000000E4
00000003F1
0019EEA7D0
00CB216FA0
07D0000D70
0E60001F40
2F20003F10
2F30007C00
0DA128D900
03CFC4A600
0000000000
0000000000
004E500000
005E400000
ENDCHAR
STARTCHAR uni1E0E
ENCODING 7694
SWIDTH 600 0
DWIDTH 10 0
BBX 9 13 0 -3
BITMAP
00AFFEA300
00D6029F30
01F3000BA0
04E00007D0
07B00006D0
0B800008B0
0E50000D70
2F20007E10
5E0039E300
8FFFD92000
0000000000
0000000000
0DFFF30000
ENDCHAR
STARTCHAR uni1E0F
ENCODING 7695
SWIDTH 600 0
DWIDTH 10 0
BBX 10 14 0 -3
BITMAP
00000000B7
00000000E4
00000003F1
0019EEA7D0
00CB216FA0
07D0000D70
0E60001F40
2F20003F10
2F30007C00
0DA128D900
03CFC4A600
0000000000
0000000000
07FFF90000
ENDCHAR
STARTCHAR uni1E10
ENCODING 7696
SWIDTH 600 0
DWIDTH 10 0
BBX 9 15 0 -5
BITMAP
00AFFEA300
00D6029F30
01F3000BA0
04E00007D0
07B00006D0
0B800008B0
0E50000D70
2F20007E10
5E0039E300
8FFFD92000
001A000000
008D200000
001C500000
003D200000
08C4000000
ENDCHAR
STARTCHAR uni1E11
ENCODING 7697
SWIDTH 600 0
DWIDTH 10 0
BBX 10 16 0 -5
BITMAP
00000000B7
00000000E4
00000003F1
0019EEA7D0
00CB216FA0
07D0000D70
0E60001F40
2F20003F10
2F30007C00
0DA128D900
03CFC4A600
000A100000
005E300000
001A700000
002C400000
06D6000000
ENDCHAR
STARTCHAR uni1E16
ENCODING 7702
SWIDTH 600 0
DWIDTH 10 0
BBX 9 16 1 0
BITMAP
0000004A00
000003A100
0000000000
0004FFFC00
0000000000
0000000000
01FFFFFF60
04E0000000
07B0000000
0A80000000
0DFFFFA000
1F20000000
5E00000000
8B00000000
B800000000
EFFFFFA000
ENDCHAR
STARTCHAR uni1E17
ENCODING 7703
SWIDTH 600 0
DWIDTH 10 0
BBX 8 14 1 0
BITMAP
000003A0
00001A10
00000000
001FFFF0
00000000
00000000
007DEC40
0BA315E2
7B0000C5
CFFFFFF5
E4000000
D6000000
8E412970
08DFD810
ENDCHAR
STARTCHAR uni1E20
ENCODING 7712
SWIDTH 600 0
DWIDTH 10 0
BBX 8 13 1 0
BITMAP
0007FFFA
00000000
00000000
0019DFC3
03E9206C
1D800000
7D000000
C7000000
F400BFF9
E50000C5
C80001F2
5F6117E0
04CFEA30
ENDCHAR
STARTCHAR uni1E21
ENCODING 7713
SWIDTH 600 0
DWIDTH 10 0
BBX 9 14 0 -3
BITMAP
0000FFFF10
0000000000
0000000000
0019EEA5B0
01DB216F80
08C0000D50
0E50001F20
1F30004E00
0F5000AB00
09E77BC800
006871C500
000002E100
67214D8000
3AEEC60000
ENDCHAR
STARTCHAR uni1E24
ENCODING 7716
SWIDTH 600 0
DWIDTH 10 0
BBX 10 14 0 -4
BITMAP
00B80000E5
00E40003F1
02F10006D0
05D00009A0
08FFFFFF70
0C60001F40
0E30003F10
3F10006D00
6C0000A900
990000D600
0000000000
0000000000
007E200000
008D200000
ENDCHAR
STARTCHAR uni1E25
ENCODING 7717
SWIDTH 600 0
DWIDTH 10 0
BBX 9 15 0 -4
BITMAP
004E000000
007B000000
00A8000000
00D56CEB10
01FA712E60
04E3000C70
07A0000E40
0B70002F10
0E40005D00
2F10008A00
5D0000B700
0000000000
0000000000
002E700000
004E600000
ENDCHAR
STARTCHAR uni1E26
ENCODING 7718
SWIDTH 600 0
DWIDTH 10 0
BBX 10 13 0 0
BITMAP
0000B50B50
0000C40C40
0000000000
00B80000E5
00E40003F1
02F10006D0
05D00009A0
08FFFFFF70
0C60001F40
0E30003F10
3F10006D00
6C0000A900
990000D600
ENDCHAR
STARTCHAR uni1E27
ENCODING 7719
SWIDTH 600 0
DWIDTH 10 0
BBX 9 14 0 0
BITMAP
03D03C0000
04B05B0000
0000000000
004E000000
007B000000
00A8000000
00D56CEB10
01FA712E60
04E3000C70
07A0000E40
0B70002F10
0E40005D00
2F10008A00
5D0000B700
ENDCHAR
STARTCHAR uni1E28
ENCODING 7720
SWIDTH 600 0
DWIDTH 10 0
BBX 12 15 -2 -5
BITMAP
0000B80000E5
0000E40003F1
0002F10006D0
0005D00009A0
0008FFFFFF70
000C60001F40
000E30003F10
003F10006D00
006C0000A900
00990000D600
009200000000
02F600000000
008A00000000
02A700000000
3D8000000000
ENDCHAR
STARTCHAR uni1E29
ENCODING 7721
SWIDTH 600 0
DWIDTH 10 0
BBX 10 16 -1 -5
BITMAP
0004E00000
0007B00000
000A800000
000D56CEB1
001FA712E6
004E3000C7
007A0000E4
00B70002F1
00E40005D0
02F10008A0
05D0000B70
0650000000
0D90000000
04E0000000
17A0000000
DA10000000
ENDCHAR
STARTCHAR uni1E2A
ENCODING 7722
SWIDTH 600 0
DWIDTH 10 0
BBX 10 14 0 -4
BITMAP
00B80000E5
00E40003F1
02F10006D0
05D00009A0
08FFFFFF70
0C60001F40
0E30003F10
3F10006D00
6C0000A900
990000D600
0100010000
0D001D0000
0B71A70000
03DE800000
ENDCHAR
STARTCHAR uni1E2B
ENCODING 7723
SWIDTH 600 0
DWIDTH 10 0
BBX 9 15 0 -4
BITMAP
004E000000
007B000000
00A8000000
00D56CEB10
01FA712E60
04E3000C70
07A0000E40
0B70002F10
0E40005D00
2F10008A00
5D0000B700
0000010000
0850094000
06B15C0000
01AEB20000
ENDCHAR
STARTCHAR uni1E32
ENCODING 7730
SWIDTH 600 0
DWIDTH 10 0
BBX 10 14 0 -4
BITMAP
005E0002D6
008A003D50
00B704D400
00E45D3000
03F6FB0000
06FD4F3000
09C10AA000
0C7003F200
0F3000C900
3F00005F10
0000000000
0000000000
0009D10000
000AC10000
ENDCHAR
STARTCHAR uni1E33
ENCODING 7731
SWIDTH 600 0
DWIDTH 10 0
BBX 10 15 0 -4
BITMAP
001F300000
004E000000
007B000000
00A8000AC1
00D501BB10
01F22DB000
04E3ED0000
07EE7E4000
0BD307C000
0E5001E500
2F20006D00
0000000000
0000000000
000BC00000
000CB00000
ENDCHAR
STARTCHAR uni1E34
ENCODING 7732
SWIDTH 600 0
DWIDTH 10 0
BBX 10 13 0 -3
BITMAP
005E0002D6
008A003D50
00B704D400
00E45D3000
03F6FB0000
06FD4F3000
09C10AA000
0C7003F200
0F3000C900
3F00005F10
0000000000
0000000000
00DFFF3000
ENDCHAR
STARTCHAR uni1E35
ENCODING 7733
SWIDTH 600 0
DWIDTH 10 0
BBX 10 14 0 -3
BITMAP
001F300000
004E000000
007B000000
00A8000AC1
00D501BB10
01F22DB000
04E3ED0000
07EE7E4000
0BD307C000
0E5001E500
2F20006D00
0000000000
0000000000
00FFFF1000
ENDCHAR
STARTCHAR uni1E36
ENCODING 7734
SWIDTH 600 0
DWIDTH 10 0
BBX 8 14 1 -4
BITMAP
006C0000
00990000
00D60000
01F30000
04E00000
07C00000
0A900000
0D500000
2F200000
5FFFFFF2
00000000
00000000
005E4000
006E3000
ENDCHAR
STARTCHAR uni1E37
ENCODING 7735
SWIDTH 600 0
DWIDTH 10 0
BBX 6 15 2 -4
BITMAP
AFFF20
004E00
007B00
00B700
00E400
02F100
06C000
099000
0C6000
0C9131
04DEC2
000000
000000
02D800
03E700
ENDCHAR
STARTCHAR uni1E38
ENCODING 7736
SWIDTH 600 0
DWIDTH 10 0
BBX 8 17 1 -4
BITMAP
06FFFB00
00000000
00000000
006C0000
00990000
00D60000
01F30000
04E00000
07C00000
0A900000
0D500000
2F200000
5FFFFFF2
00000000
00000000
005E4000
006E3000
ENDCHAR
STARTCHAR uni1E39
ENCODING 7737
SWIDTH 600 0
DWIDTH 10 0
BBX 6 18 2 -4
BITMAP
03FFFE
000000
000000
AFFF20
004E00
007B00
00B700
00E400
02F100
06C000
099000
0C6000
0C9131
04DEC2
000000
000000
02D800
03E700
ENDCHAR
STARTCHAR uni1E3A
ENCODING 7738
SWIDTH 600 0
DWIDTH 10 0
BBX 8 13 1 -3
BITMAP
006C0000
00990000
00D60000
01F30000
04E00000
07C00000
0A900000
0D500000
2F200000
5FFFFFF2
00000000
00000000
09FFF800
ENDCHAR
STARTCHAR uni1E3B
ENCODING 7739
SWIDTH 600 0
DWIDTH 10 0
BBX 6 14 2 -3
BITMAP
AFFF20
004E00
007B00
00B700
00E400
02F100
06C000
099000
0C6000
0C9131
04DEC2
000000
000000
4FFFC0
ENDCHAR
STARTCHAR uni1E3E
ENCODING 7742
SWIDTH 600 0
DWIDTH 10 0
BBX 10 14 0 0
BITMAP
0000001A20
000002CC20
0000087000
0000000000
00BE0005F5
00EE101DE2
03DC308AE0
06BA52D7A0
09887A6A70
0C56AD0D40
1F24F41F10
4E01404D00
7A00008A00
A70000B700
ENDCHAR
STARTCHAR uni1E3F
ENCODING 7743
SWIDTH 600 0
DWIDTH 10 0
BBX 10 12 0 0
BITMAP
0000002B10
000004E700
00000B3000
0000000000
088AE67EC0
0BC28E54F1
0E408904E0
2F10B607B0
5D00E30A80
8A02F00D50
B806C01F20
E509904E00
ENDCHAR
STARTCHAR uni1E40
ENCODING 7744
SWIDTH 600 0
DWIDTH 10 0
BBX 10 13 0 0
BITMAP
000005D000
000006D000
0000000000
00BE0005F5
00EE101DE2
03DC308AE0
06BA52D7A0
09887A6A70
0C56AD0D40
1F24F41F10
4E01404D00
7A00008A00
A70000B700
ENDCHAR
STARTCHAR uni1E41
ENCODING 7745
SWIDTH 600 0
DWIDTH 10 0
BBX 10 11 0 0
BITMAP
00000AD000
00000CC000
0000000000
088AE67EC0
0BC28E54F1
0E408904E0
2F10B607B0
5D00E30A80
8A02F00D50
B806C01F20
E509904E00
ENDCHAR
STARTCHAR uni1E42
ENCODING 7746
SWIDTH 600 0
DWIDTH 10 0
BBX 10 14 0 -4
BITMAP
00BE0005F5
00EE101DE2
03DC308AE0
06BA52D7A0
09887A6A70
0C56AD0D40
1F24F41F10
4E01404D00
7A00008A00
A70000B700
0000000000
0000000000
007E200000
008D200000
ENDCHAR
STARTCHAR uni1E43
ENCODING 7747
SWIDTH 600 0
DWIDTH 10 0
BBX 10 12 0 -4
BITMAP
088AE67EC0
0BC28E54F1
0E408904E0
2F10B607B0
5D00E30A80
8A02F00D50
B806C01F20
E509904E00
0000000000
0000000000
005E400000
006E300000
ENDCHAR
STARTCHAR uni1E44
ENCODING 7748
SWIDTH 600 0
DWIDTH 10 0
BBX 10 13 0 0
BITMAP
000005D000
000006D000
0000000000
009E0000E4
00CE4002F1
01F89005C0
04D3E00890
07B0D40C60
0A80890E30
0D503E2E00
1F100D8C00
4D0008E800
7A0003F500
ENDCHAR
STARTCHAR uni1E45
ENCODING 7749
SWIDTH 600 0
DWIDTH 10 0
BBX 9 11 0 0
BITMAP
00000AD000
00000BC000
0000000000
00E16CEB10
02F9712E60
05E3000C70
08A0000E40
0B70002F10
0E40005D00
2F10008A00
5D0000B700
ENDCHAR
STARTCHAR uni1E46
ENCODING 7750
SWIDTH 600 0
DWIDTH 10 0
BBX 10 14 0 -4
BITMAP
009E0000E4
00CE4002F1
01F89005C0
04D3E00890
07B0D40C60
0A80890E30
0D503E2E00
1F100D8C00
4D0008E800
7A0003F500
0000000000
0000000000
004E500000
005E400000
ENDCHAR
STARTCHAR uni1E47
ENCODING 7751
SWIDTH 600 0
DWIDTH 10 0
BBX 9 12 0 -4
BITMAP
00E16CEB10
02F9712E60
05E3000C70
08A0000E40
0B70002F10
0E40005D00
2F10008A00
5D0000B700
0000000000
0000000000
002E700000
004E600000
ENDCHAR
STARTCHAR uni1E48
ENCODING 7752
SWIDTH 600 0
DWIDTH 10 0
BBX 10 13 0 -3
BITMAP
009E0000E4
00CE4002F1
01F89005C0
04D3E00890
07B0D40C60
0A80890E30
0D503E2E00
1F100D8C00
4D0008E800
7A0003F500
0000000000
0000000000
07FFF90000
ENDCHAR
STARTCHAR uni1E49
ENCODING 7753
SWIDTH 600 0
DWIDTH 10 0
BBX 9 11 0 -3
BITMAP
00E16CEB10
02F9712E60
05E3000C70
08A0000E40
0B70002F10
0E40005D00
2F10008A00
5D0000B700
0000000000
0000000000
06FFFB0000
ENDCHAR
STARTCHAR uni1E52
ENCODING 7762
SWIDTH 600 0
DWIDTH 10 0
BBX 9 16 0 0
BITMAP
0000001B30
000000A400
0000000000
0000CFFF40
0000000000
0000000000
0006CFD600
009D413D60
05E20006D0
0C800003F0
2F300004F0
4F000007D0
4E00000C80
2F20005E20
0AB216E500
019EEB3000
ENDCHAR
STARTCHAR uni1E53
ENCODING 7763
SWIDTH 600 0
DWIDTH 10 0
BBX 9 14 0 0
BITMAP
0000004900
000002A100
0000000000
0003FFFD00
0000000000
0000000000
0029EEB200
02E9218D10
0AA0000E50
2F30000C70
4F00000E50
2F20007D00
0BB217E400
01AEEA2000
ENDCHAR
STARTCHAR uni1E58
ENCODING 7768
SWIDTH 600 0
DWIDTH 10 0
BBX 9 13 0 0
BITMAP
000006D000
000007D000
0000000000
007FFFD910
00A9003D80
00D60008B0
01F3000B90
04F0028E20
07FFFE9200
0B905E1000
0E500D6000
2F2007D000
5E0001E500
ENDCHAR
STARTCHAR uni1E59
ENCODING 7769
SWIDTH 600 0
DWIDTH 10 0
BBX 8 11 1 0
BITMAP
00004E50
00006E40
00000000
00F15CF9
03E69212
06E60000
09900000
0C600000
0E300000
2F100000
5D000000
ENDCHAR
STARTCHAR uni1E5A
ENCODING 7770
SWIDTH 600 0
DWIDTH 10 0
BBX 9 14 0 -4
BITMAP
007FFFD910
00A9003D80
00D60008B0
01F3000B90
04F0028E20
07FFFE9200
0B905E1000
0E500D6000
2F2007D000
5E0001E500
0000000000
0000000000
002D800000
003E700000
ENDCHAR
STARTCHAR uni1E5B
ENCODING 7771
SWIDTH 600 0
DWIDTH 10 0
BBX 9 12 0 -4
BITMAP
000F15CF90
003E692120
006E600000
0099000000
00C6000000
00E3000000
02F1000000
05D0000000
0000000000
0000000000
1D80000000
2E70000000
ENDCHAR
STARTCHAR uni1E5C
ENCODING 7772
SWIDTH 600 0
DWIDTH 10 0
BBX 9 17 0 -4
BITMAP
0000DFFF40
0000000000
0000000000
007FFFD910
00A9003D80
00D60008B0
01F3000B90
04F0028E20
07FFFE9200
0B905E1000
0E500D6000
2F2007D000
5E0001E500
0000000000
0000000000
002D800000
003E700000
ENDCHAR
STARTCHAR uni1E5D
ENCODING 7773
SWIDTH 600 0
DWIDTH 10 0
BBX 9 15 0 -4
BITMAP
00009FFF70
0000000000
0000000000
000F15CF90
003E692120
006E600000
0099000000
00C6000000
00E3000000
02F1000000
05D0000000
0000000000
0000000000
1D80000000
2E70000000
ENDCHAR
STARTCHAR uni1E5E
ENCODING 7774
SWIDTH 600 0
DWIDTH 10 0
BBX 9 13 0 -3
BITMAP
007FFFD910
00A9003D80
00D60008B0
01F3000B90
04F0028E20
07FFFE9200
0B905E1000
0E500D6000
2F2007D000
5E0001E500
0000000000
0000000000
04FFFC0000
ENDCHAR
STARTCHAR uni1E5F
ENCODING 7775
SWIDTH 600 0
DWIDTH 10 0
BBX 10 11 -1 -3
BITMAP
0000F15CF9
0003E69212
0006E60000
0009900000
000C600000
000E300000
002F100000
005D000000
0000000000
0000000000
4FFFC00000
ENDCHAR
STARTCHAR uni1E60
ENCODING 7776
SWIDTH 600 0
DWIDTH 10 0
BBX 9 13 0 0
BITMAP
000009B000
000009A000
0000000000
0006DFD700
006E414D50
00A9000100
007D300000
0009F91000
00004CD200
000000B900
0400009B00
2E7115E500
03BEEC5000
ENDCHAR
STARTCHAR uni1E61
ENCODING 7777
SWIDTH 600 0
DWIDTH 10 0
BBX 8 11 1 0
BITMAP
0000CA00
0001D900
00000000
02BEEB40
0C8116D1
0D600000
05EC6100
0016CD20
10000B80
D8202D60
29EFD700
ENDCHAR
STARTCHAR uni1E62
ENCODING 7778
SWIDTH 600 0
DWIDTH 10 0
BBX 9 14 0 -4
BITMAP
0006DFD700
006E414D50
00A9000100
007D300000
0009F91000
00004CD200
000000B900
0400009B00
2E7115E500
03BEEC5000
0000000000
0000000000
002D800000
003E700000
ENDCHAR
STARTCHAR uni1E63
ENCODING 7779
SWIDTH 600 0
DWIDTH 10 0
BBX 8 12 1 -4
BITMAP
02BEEB40
0C8116D1
0D600000
05EC6100
0016CD20
10000B80
D8202D60
29EFD700
00000000
00000000
01D80000
02E70000
ENDCHAR
STARTCHAR uni1E6C
ENCODING 7788
SWIDTH 600 0
DWIDTH 10 0
BBX 9 14 1 -4
BITMAP
5FFFFFFFD0
0001F30000
0004E00000
0007B00000
000A800000
000D500000
001F200000
005E000000
008B000000
00B8000000
0000000000
0000000000
06E3000000
08E2000000
ENDCHAR
STARTCHAR uni1E6D
ENCODING 7789
SWIDTH 600 0
DWIDTH 10 0
BBX 8 15 1 -4
BITMAP
000B4000
000E2000
003E0000
AEFFFFF9
00A80000
00D50000
01F20000
04E00000
06C00000
05F31430
009EEB40
00000000
00000000
004E5000
006E4000
ENDCHAR
STARTCHAR uni1E6E
ENCODING 7790
SWIDTH 600 0
DWIDTH 10 0
BBX 9 13 1 -3
BITMAP
5FFFFFFFD0
0001F30000
0004E00000
0007B00000
000A800000
000D500000
001F200000
005E000000
008B000000
00B8000000
0000000000
0000000000
BFFF600000
ENDCHAR
STARTCHAR uni1E6F
ENCODING 7791
SWIDTH 600 0
DWIDTH 10 0
BBX 8 14 1 -3
BITMAP
000B4000
000E2000
003E0000
AEFFFFF9
00A80000
00D50000
01F20000
04E00000
06C00000
05F31430
009EEB40
00000000
00000000
08FFF800
ENDCHAR
STARTCHAR uni1E7E
ENCODING 7806
SWIDTH 600 0
DWIDTH 10 0
BBX 8 14 2 -4
BITMAP
F400008C
D60001E4
C70009B0
A8002E20
9A00A900
7B03E100
5C0B7000
4D4D0000
2FC50000
1FC00000
00000000
00000000
7E200000
8D200000
ENDCHAR
STARTCHAR uni1E7F
ENCODING 7807
SWIDTH 600 0
DWIDTH 10 0
BBX 9 12 1 -4
BITMAP
8B00003E10
4E0000C600
1F2006C000
0D501E4000
09808A0000
06B2E20000
03EA700000
00ED000000
0000000000
0000000000
05E4000000
07E3000000
ENDCHAR
STARTCHAR Wgrave
ENCODING 7808
SWIDTH 600 0
DWIDTH 10 0
BBX 11 14 0 0
BITMAP
000068000000
00003E500000
000003B00000
000000000000
08A000001F20
099000006C00
0A701300A700
0B609D01F200
0C51CD05C000
0D487D1A7000
0E3D1C3E2000
0F790B7C0000
1ED20AC80000
2FA009F30000
ENDCHAR
STARTCHAR wgrave
ENCODING 7809
SWIDTH 600 0
DWIDTH 10 0
BBX 10 12 0 0
BITMAP
0000960000
00004E3000
0000069000
0000000000
4E0048006B
3F00CE00C5
3F04BE03E0
3F0A6E0980
2F1E1E1E20
2F780E6B00
2FC20DC500
1FB00DD000
ENDCHAR
STARTCHAR Wacute
ENCODING 7810
SWIDTH 600 0
DWIDTH 10 0
BBX 11 14 0 0
BITMAP
0000001A2000
000002DB2000
000008700000
000000000000
08A000001F20
099000006C00
0A701300A700
0B609D01F200
0C51CD05C000
0D487D1A7000
0E3D1C3E2000
0F790B7C0000
1ED20AC80000
2FA009F30000
ENDCHAR
STARTCHAR wacute
ENCODING 7811
SWIDTH 600 0
DWIDTH 10 0
BBX 10 12 0 0
BITMAP
0000005900
000007E400
00003B1000
0000000000
4E0048006B
3F00CE00C5
3F04BE03E0
3F0A6E0980
2F1E1E1E20
2F780E6B00
2FC20DC500
1FB00DD000
ENDCHAR
STARTCHAR Wdieresis
ENCODING 7812
SWIDTH 600 0
DWIDTH 10 0
BBX 11 13 0 0
BITMAP
0000B40C4000
0000C30D3000
000000000000
08A000001F20
099000006C00
0A701300A700
0B609D01F200
0C51CD05C000
0D487D1A7000
0E3D1C3E2000
0F790B7C0000
1ED20AC80000
2FA009F30000
ENDCHAR
STARTCHAR wdieresis
ENCODING 7813
SWIDTH 600 0
DWIDTH 10 0
BBX 10 11 0 0
BITMAP
0004D05D00
0006C06C00
0000000000
4E0048006B
3F00CE00C5
3F04BE03E0
3F0A6E0980
2F1E1E1E20
2F780E6B00
2FC20DC500
1FB00DD000
ENDCHAR
STARTCHAR uni1E8E
ENCODING 7822
SWIDTH 600 0
DWIDTH 10 0
BBX 9 13 1 0
BITMAP
00008B0000
00009A0000
0000000000
1F30000AA0
0B80006D10
06C002E300
01F20C7000
00B68B0000
006DD10000
002F500000
004E000000
007B000000
00B8000000
ENDCHAR
STARTCHAR uni1E8F
ENCODING 7823
SWIDTH 600 0
DWIDTH 10 0
BBX 11 14 -1 -3
BITMAP
000001D80000
000002E70000
000000000000
007A00004E10
003E0000D600
000E3007C000
000B602E3000
0007A0A80000
0003D4D10000
0000EC400000
0000CA000000
0004E1000000
103D50000000
7FD500000000
ENDCHAR
STARTCHAR uni1E90
ENCODING 7824
SWIDTH 600 0
DWIDTH 10 0
BBX 10 13 0 0
BITMAP
00003DD500
0003A21B20
0000000000
00DFFFFFF4
0000001D80
000000BA00
000009C100
00007D1000
0005E30000
003E400000
02E6000000
1D80000000
9FFFFFFD00
ENDCHAR
STARTCHAR uni1E91
ENCODING 7825
SWIDTH 600 0
DWIDTH 10 0
BBX 9 12 0 0
BITMAP
00003EE100
0002D5A800
0009401B00
0000000000
01FFFFFF70
000000BB00
00000AB000
0000AB1000
000AC10000
009C100000
09C1000000
5FFFFFF800
ENDCHAR
STARTCHAR uni1E92
ENCODING 7826
SWIDTH 600 0
DWIDTH 10 0
BBX 10 14 0 -4
BITMAP
00DFFFFFF4
0000001D80
000000BA00
000009C100
00007D1000
0005E30000
003E400000
02E6000000
1D80000000
9FFFFFFD00
0000000000
0000000000
001D900000
002E800000
ENDCHAR
STARTCHAR uni1E93
ENCODING 7827
SWIDTH 600 0
DWIDTH 10 0
BBX 9 12 0 -4
BITMAP
01FFFFFF70
000000BB00
00000AB000
0000AB1000
000AC10000
009C100000
09C1000000
5FFFFFF800
0000000000
0000000000
002D800000
003E700000
ENDCHAR
STARTCHAR uni1E94
ENCODING 7828
SWIDTH 600 0
DWIDTH 10 0
BBX 10 13 0 -3
BITMAP
00DFFFFFF4
0000001D80
000000BA00
000009C100
00007D1000
0005E30000
003E400000
02E6000000
1D80000000
9FFFFFFD00
0000000000
0000000000
03FFFD0000
ENDCHAR
STARTCHAR uni1E95
ENCODING 7829
SWIDTH 600 0
DWIDTH 10 0
BBX 9 11 0 -3
BITMAP
01FFFFFF70
000000BB00
00000AB000
0000AB1000
000AC10000
009C100000
09C1000000
5FFFFFF800
0000000000
0000000000
04FFFC0000
ENDCHAR
STARTCHAR uni1E96
ENCODING 7830
SWIDTH 600 0
DWIDTH 10 0
BBX 9 14 0 -3
BITMAP
004E000000
007B000000
00A8000000
00D56CEB10
01FA712E60
04E3000C70
07A0000E40
0B70002F10
0E40005D00
2F10008A00
5D0000B700
0000000000
0000000000
06FFFB0000
ENDCHAR
STARTCHAR uni1E97
ENCODING 7831
SWIDTH 600 0
DWIDTH 10 0
BBX 8 13 1 0
BITMAP
00C50C50
00D40D40
000B4000
000E2000
003E0000
AEFFFFF9
00A80000
00D50000
01F20000
04E00000
06C00000
05F31430
009EEB40
ENDCHAR
STARTCHAR uni1E9E
ENCODING 7838
SWIDTH 600 0
DWIDTH 10 0
BBX 9 10 0 0
BITMAP
0004BEEA10
005E612AA0
00E6003C50
04E105D300
08B00EB200
0B80029E30
0E40000B90
2F10000A90
6D0A315F40
9A06DEC500
ENDCHAR
STARTCHAR uni1EA0
ENCODING 7840
SWIDTH 600 0
DWIDTH 10 0
BBX 9 14 -1 -4
BITMAP
000001EC00
0000089E00
00002E1F10
0000A70E30
0004E10C50
000C700A70
006FFFFF90
01E60007B0
08C00006D0
2F400004F0
0000000000
0000000000
0003E60000
0004E50000
ENDCHAR
STARTCHAR uni1EA1
ENCODING 7841
SWIDTH 600 0
DWIDTH 10 0
BBX 9 12 0 -4
BITMAP
0019EEA5B0
00CB216F80
07D0000C50
0E60000F20
2F20003E00
2F30007C00
0DA128D900
03CFC4A600
0000000000
0000000000
004E500000
005E400000
ENDCHAR
STARTCHAR uni1EA2
ENCODING 7842
SWIDTH 600 0
DWIDTH 10 0
BBX 9 14 -1 0
BITMAP
000000BC10
0000002D40
000000A800
0000000000
000001EC00
0000089E00
00002E1F10
0000A70E30
0004E10C50
000C700A70
006FFFFF90
01E60007B0
08C00006D0
2F400004F0
ENDCHAR
STARTCHAR uni1EA3
ENCODING 7843
SWIDTH 600 0
DWIDTH 10 0
BBX 9 13 0 0
BITMAP
00000AB100
000001C600
000002D400
0000097000
0000000000
0019EEA5B0
00CB216F80
07D0000C50
0E60000F20
2F20003E00
2F30007C00
0DA128D900
03CFC4A600
ENDCHAR
STARTCHAR uni1EA4
ENCODING 7844
SWIDTH 600 0
DWIDTH 10 0
BBX 11 14 -1 0
BITMAP
0000000003A0
000001BE7A20
00000951B100
000000000000
000001EC0000
0000089E0000
00002E1F1000
0000A70E3000
0004E10C5000
000C700A7000
006FFFFF9000
01E60007B000
08C00006D000
2F400004F000
ENDCHAR
STARTCHAR uni1EA5
ENCODING 7845
SWIDTH 600 0
DWIDTH 10 0
BBX 10 12 0 0
BITMAP
000000004A
00002CE5A1
0001B32B00
0000000000
0019EEA5B0
00CB216F80
07D0000C50
0E60000F20
2F20003E00
2F30007C00
0DA128D900
03CFC4A600
ENDCHAR
STARTCHAR uni1EA6
ENCODING 7846
SWIDTH 600 0
DWIDTH 10 0
BBX 10 14 -1 0
BITMAP
0000920000
00002ABE50
00000951B1
0000000000
000001EC00
0000089E00
00002E1F10
0000A70E30
0004E10C50
000C700A70
006FFFFF90
01E60007B0
08C00006D0
2F400004F0
ENDCHAR
STARTCHAR uni1EA7
ENCODING 7847
SWIDTH 600 0
DWIDTH 10 0
BBX 9 12 0 0
BITMAP
0059000000
00095CE400
0001B32B00
0000000000
0019EEA5B0
00CB216F80
07D0000C50
0E60000F20
2F20003E00
2F30007C00
0DA128D900
03CFC4A600
ENDCHAR
STARTCHAR uni1EA8
ENCODING 7848
SWIDTH 600 0
DWIDTH 10 0
BBX 11 15 -1 0
BITMAP
000000002E60
0000000007A0
000001BE5D30
00000951B100
000000000000
000001EC0000
0000089E0000
00002E1F1000
0000A70E3000
0004E10C5000
000C700A7000
006FFFFF9000
01E60007B000
08C00006D000
2F400004F000
ENDCHAR
STARTCHAR uni1EA9
ENCODING 7849
SWIDTH 600 0
DWIDTH 10 0
BBX 10 13 0 0
BITMAP
00000003D5
0000000088
00002CE5C2
0000B32B00
0000000000
0019EEA5B0
00CB216F80
07D0000C50
0E60000F20
2F20003E00
2F30007C00
0DA128D900
03CFC4A600
ENDCHAR
STARTCHAR uni1EAA
ENCODING 7850
SWIDTH 600 0
DWIDTH 10 0
BBX 10 15 -1 0
BITMAP
000004EA2A
00000928E6
000001BE50
00000952B0
0000000000
000001EC00
0000089E00
00002E1F10
0000A70E30
0004E10C50
000C700A70
006FFFFF90
01E60007B0
08C00006D0
2F400004F0
ENDCHAR
STARTCHAR uni1EAB
ENCODING 7851
SWIDTH 600 0
DWIDTH 10 0
BBX 9 13 0 0
BITMAP
00003C7270
0000A4BE30
00002CE400
0000B42B00
0000000000
0019EEA5B0
00CB216F80
07D0000C50
0E60000F20
2F20003E00
2F30007C00
0DA128D900
03CFC4A600
ENDCHAR
STARTCHAR uni1EAC
ENCODING 7852
SWIDTH 600 0
DWIDTH 10 0
BBX 10 17 -1 -4
BITMAP
000002CD80
00001B3094
0000000000
000001EC00
0000089E00
00002E1F10
0000A70E30
0004E10C50
000C700A70
006FFFFF90
01E60007B0
08C00006D0
2F400004F0
0000000000
0000000000
0003E60000
0004E50000
ENDCHAR
STARTCHAR uni1EAD
ENCODING 7853
SWIDTH 600 0
DWIDTH 10 0
BBX 9 16 0 -4
BITMAP
00001BF400
0000B95D00
0005800930
0000000000
0019EEA5B0
00CB216F80
07D0000C50
0E60000F20
2F20003E00
2F30007C00
0DA128D900
03CFC4A600
0000000000
0000000000
004E500000
005E400000
ENDCHAR
STARTCHAR uni1EAE
ENCODING 7854
SWIDTH 600 0
DWIDTH 10 0
BBX 10 15 -1 0
BITMAP
00000002B1
0000011B31
00000C3188
000005EE90
0000000000
000001EC00
0000089E00
00002E1F10
0000A70E30
0004E10C50
000C700A70
006FFFFF90
01E60007B0
08C00006D0
2F400004F0
ENDCHAR
STARTCHAR uni1EAF
ENCODING 7855
SWIDTH 600 0
DWIDTH 10 0
BBX 9 13 0 0
BITMAP
0000103B10
0002A1B5A0
0001E32C40
00006ED600
0000000000
0019EEA5B0
00CB216F80
07D0000C50
0E60000F20
2F20003E00
2F30007C00
0DA128D900
03CFC4A600
ENDCHAR
STARTCHAR uni1EB0
ENCODING 7856
SWIDTH 600 0
DWIDTH 10 0
BBX 10 15 -1 0
BITMAP
0000009500
0000012B01
00000C3188
000005EE90
0000000000
000001EC00
0000089E00
00002E1F10
0000A70E30
0004E10C50
000C700A70
006FFFFF90
01E60007B0
08C00006D0
2F400004F0
ENDCHAR
STARTCHAR uni1EB1
ENCODING 7857
SWIDTH 600 0
DWIDTH 10 0
BBX 9 13 0 0
BITMAP
00001A3010
0002A3A3A0
0001E32C40
00006ED600
0000000000
0019EEA5B0
00CB216F80
07D0000C50
0E60000F20
2F20003E00
2F30007C00
0DA128D900
03CFC4A600
ENDCHAR
STARTCHAR uni1EB2
ENCODING 7858
SWIDTH 600 0
DWIDTH 10 0
BBX 10 16 -1 0
BITMAP
0000002E50
00000007A0
0000011C21
00000C3188
000005EE90
0000000000
000001EC00
0000089E00
00002E1F10
0000A70E30
0004E10C50
000C700A70
006FFFFF90
01E60007B0
08C00006D0
2F400004F0
ENDCHAR
STARTCHAR uni1EB3
ENCODING 7859
SWIDTH 600 0
DWIDTH 10 0
BBX 9 14 0 0
BITMAP
000004D500
0000108910
0002A3C5A0
0001E32C40
00006ED600
0000000000
0019EEA5B0
00CB216F80
07D0000C50
0E60000F20
2F20003E00
2F30007C00
0DA128D900
03CFC4A600
ENDCHAR
STARTCHAR uni1EB4
ENCODING 7860
SWIDTH 600 0
DWIDTH 10 0
BBX 10 15 -1 0
BITMAP
000004EA2A
00000A28E7
00000C3197
000005EE80
0000000000
000001EC00
0000089E00
00002E1F10
0000A70E30
0004E10C50
000C700A70
006FFFFF90
01E60007B0
08C00006D0
2F400004F0
ENDCHAR
STARTCHAR uni1EB5
ENCODING 7861
SWIDTH 600 0
DWIDTH 10 0
BBX 9 13 0 0
BITMAP
00004C7290
0000C4BE40
0001D21A40
00007ED700
0000000000
0019EEA5B0
00CB216F80
07D0000C50
0E60000F20
2F20003E00
2F30007C00
0DA128D900
03CFC4A600
ENDCHAR
STARTCHAR uni1EB6
ENCODING 7862
SWIDTH 600 0
DWIDTH 10 0
BBX 10 17 -1 -4
BITMAP
00000C2178
000006EE91
0000000000
000001EC00
0000089E00
00002E1F10
0000A70E30
0004E10C50
000C700A70
006FFFFF90
01E60007B0
08C00006D0
2F400004F0
0000000000
0000000000
0003E60000
0004E50000
ENDCHAR
STARTCHAR uni1EB7
ENCODING 7863
SWIDTH 600 0
DWIDTH 10 0
BBX 9 17 0 -4
BITMAP
0000100010
0002B003A0
0001E32C40
00006ED600
0000000000
0019EEA5B0
00CB216F80
07D0000C50
0E60000F20
2F20003E00
2F30007C00
0DA128D900
03CFC4A600
0000000000
0000000000
004E500000
005E400000
ENDCHAR
STARTCHAR uni1EB8
ENCODING 7864
SWIDTH 600 0
DWIDTH 10 0
BBX 9 14 1 -4
BITMAP
01FFFFFF60
04E0000000
07B0000000
0A80000000
0DFFFFA000
1F20000000
5E00000000
8B00000000
B800000000
EFFFFFA000
0000000000
0000000000
00BC000000
00CB000000
ENDCHAR
STARTCHAR uni1EB9
ENCODING 7865
SWIDTH 600 0
DWIDTH 10 0
BBX 8 12 1 -4
BITMAP
007DEC40
0BA315E2
7B0000C5
CFFFFFF5
E4000000
D6000000
8E412970
08DFD810
00000000
00000000
01D80000
02E70000
ENDCHAR
STARTCHAR uni1EBA
ENCODING 7866
SWIDTH 600 0
DWIDTH 10 0
BBX 9 14 1 0
BITMAP
00003E7000
000007C000
00003C3000
0000000000
01FFFFFF60
04E0000000
07B0000000
0A80000000
0DFFFFA000
1F20000000
5E00000000
8B00000000
B800000000
EFFFFFA000
ENDCHAR
STARTCHAR uni1EBB
ENCODING 7867
SWIDTH 600 0
DWIDTH 10 0
BBX 8 13 1 0
BITMAP
0000BA10
00002D50
00002E20
0000A600
00000000
007DEC40
0BA315E2
7B0000C5
CFFFFFF5
E4000000
D6000000
8E412970
08DFD810
ENDCHAR
STARTCHAR uni1EBC
ENCODING 7868
SWIDTH 600 0
DWIDTH 10 0
BBX 9 14 1 0
BITMAP
0000210010
0007EE3690
000C15EC20
0000000000
01FFFFFF60
04E0000000
07B0000000
0A80000000
0DFFFFA000
1F20000000
5E00000000
8B00000000
B800000000
EFFFFFA000
ENDCHAR
STARTCHAR uni1EBD
ENCODING 7869
SWIDTH 600 0
DWIDTH 10 0
BBX 8 12 1 0
BITMAP
00033003
004CC64C
00931BD3
00000000
007DEC40
0BA315E2
7B0000C5
CFFFFFF5
E4000000
D6000000
8E412970
08DFD810
ENDCHAR
STARTCHAR uni1EBE
ENCODING 7870
SWIDTH 600 0
DWIDTH 10 0
BBX 10 14 1 0
BITMAP
0000000084
00004DD860
0002A16700
0000000000
01FFFFFF60
04E0000000
07B0000000
0A80000000
0DFFFFA000
1F20000000
5E00000000
8B00000000
B800000000
EFFFFFA000
ENDCHAR
STARTCHAR uni1EBF
ENCODING 7871
SWIDTH 600 0
DWIDTH 10 0
BBX 9 12 1 0
BITMAP
0000000590
0003DD6910
001B23A000
0000000000
007DEC4000
0BA315E200
7B0000C500
CFFFFFF500
E400000000
D600000000
8E41297000
08DFD81000
ENDCHAR
STARTCHAR uni1EC0
ENCODING 7872
SWIDTH 600 0
DWIDTH 10 0
BBX 9 14 1 0
BITMAP
0029000000
00088DD100
0002A16700
0000000000
01FFFFFF60
04E0000000
07B0000000
0A80000000
0DFFFFA000
1F20000000
5E00000000
8B00000000
B800000000
EFFFFFA000
ENDCHAR
STARTCHAR uni1EC1
ENCODING 7873
SWIDTH 600 0
DWIDTH 10 0
BBX 8 12 1 0
BITMAP
06700000
00A5DD20
001B23A0
00000000
007DEC40
0BA315E2
7B0000C5
CFFFFFF5
E4000000
D6000000
8E412970
08DFD810
ENDCHAR
STARTCHAR uni1EC2
ENCODING 7874
SWIDTH 600 0
DWIDTH 10 0
BBX 10 15 1 0
BITMAP
00000008C1
00000001C3
00004DD790
0002A16700
0000000000
01FFFFFF60
04E0000000
07B0000000
0A80000000
0DFFFFA000
1F20000000
5E00000000
8B00000000
B800000000
EFFFFFA000
ENDCHAR
STARTCHAR uni1EC3
ENCODING 7875
SWIDTH 600 0
DWIDTH 10 0
BBX 9 13 1 0
BITMAP
0000005D30
0000000A70
0003DE6B10
001B23A000
0000000000
007DEC4000
0BA315E200
7B0000C500
CFFFFFF500
E400000000
D600000000
8E41297000
08DFD81000
ENDCHAR
STARTCHAR uni1EC4
ENCODING 7876
SWIDTH 600 0
DWIDTH 10 0
BBX 9 15 1 0
BITMAP
0000AE5560
000293CD10
00004DD100
0002A16700
0000000000
01FFFFFF60
04E0000000
07B0000000
0A80000000
0DFFFFA000
1F20000000
5E00000000
8B00000000
B800000000
EFFFFFA000
ENDCHAR
STARTCHAR uni1EC5
ENCODING 7877
SWIDTH 600 0
DWIDTH 10 0
BBX 8 13 1 0
BITMAP
0005C636
000B4BE2
0003DE30
001B33A0
00000000
007DEC40
0BA315E2
7B0000C5
CFFFFFF5
E4000000
D6000000
8E412970
08DFD810
ENDCHAR
STARTCHAR uni1EC6
ENCODING 7878
SWIDTH 600 0
DWIDTH 10 0
BBX 9 17 1 -4
BITMAP
00006DD200
0007803A00
0000000000
01FFFFFF60
04E0000000
07B0000000
0A80000000
0DFFFFA000
1F20000000
5E00000000
8B00000000
B800000000
EFFFFFA000
0000000000
0000000000
00BC000000
00CB000000
ENDCHAR
STARTCHAR uni1EC7
ENCODING 7879
SWIDTH 600 0
DWIDTH 10 0
BBX 8 16 1 -4
BITMAP
0001DF30
001C87B0
006600A2
00000000
007DEC40
0BA315E2
7B0000C5
CFFFFFF5
E4000000
D6000000
8E412970
08DFD810
00000000
00000000
01D80000
02E70000
ENDCHAR
STARTCHAR uni1EC8
ENCODING 7880
SWIDTH 600 0
DWIDTH 10 0
BBX 10 14 0 0
BITMAP
00000BC100
000002D400
00000A8000
0000000000
007FFFFFF1
00001F3000
00004E0000
00007C0000
0000A80000
0000D50000
0001F20000
0005E00000
0008B00000
5FFFFFF200
ENDCHAR
STARTCHAR uni1EC9
ENCODING 7881
SWIDTH 600 0
DWIDTH 10 0
BBX 7 13 1 0
BITMAP
0003D600
00005E00
00007B00
0002B200
00000000
4FFFC000
00099000
000C6000
001F2000
004E0000
007B0000
007D1220
001BFD60
ENDCHAR
STARTCHAR uni1ECA
ENCODING 7882
SWIDTH 600 0
DWIDTH 10 0
BBX 10 14 0 -4
BITMAP
007FFFFFF1
00001F3000
00004E0000
00007C0000
0000A80000
0000D50000
0001F20000
0005E00000
0008B00000
5FFFFFF200
0000000000
0000000000
007E200000
008D200000
ENDCHAR
STARTCHAR uni1ECB
ENCODING 7883
SWIDTH 600 0
DWIDTH 10 0
BBX 7 15 1 -4
BITMAP
0003E600
0004E500
00000000
4FFFC000
00099000
000C6000
001F2000
004E0000
007B0000
007D1220
001BFD60
00000000
00000000
000CA000
001D9000
ENDCHAR
STARTCHAR uni1ECC
ENCODING 7884
SWIDTH 600 0
DWIDTH 10 0
BBX 9 14 0 -4
BITMAP
0006CFD600
009D413D60
05E20006D0
0C800003F0
2F300004F0
4F000007D0
4E00000C80
2F20005E20
0AB216E500
019EEB3000
0000000000
0000000000
007E200000
008D200000
ENDCHAR
STARTCHAR uni1ECD
ENCODING 7885
SWIDTH 600 0
DWIDTH 10 0
BBX 9 12 0 -4
BITMAP
0029EEB200
02E9218D10
0AA0000E50
2F30000C70
4F00000E50
2F20007D00
0BB217E400
01AEEA2000
0000000000
0000000000
007E200000
008D200000
ENDCHAR
STARTCHAR uni1ECE
ENCODING 7886
SWIDTH 600 0
DWIDTH 10 0
BBX 9 14 0 0
BITMAP
00000BC100
000002D400
00000A8000
0000000000
0006CFD600
009D413D60
05E20006D0
0C800003F0
2F300004F0
4F000007D0
4E00000C80
2F20005E20
0AB216E500
019EEB3000
ENDCHAR
STARTCHAR uni1ECF
ENCODING 7887
SWIDTH 600 0
DWIDTH 10 0
BBX 9 13 0 0
BITMAP
00000D9000
000002E300
000003E100
00000B4000
0000000000
0029EEB200
02E9218D10
0AA0000E50
2F30000C70
4F00000E50
2F20007D00
0BB217E400
01AEEA2000
ENDCHAR
STARTCHAR uni1ED0
ENCODING 7888
SWIDTH 600 0
DWIDTH 10 0
BBX 10 14 0 0
BITMAP
000000003A
00001BE7A2
0000951B10
0000000000
0006CFD600
009D413D60
05E20006D0
0C800003F0
2F300004F0
4F000007D0
4E00000C80
2F20005E20
0AB216E500
019EEB3000
ENDCHAR
STARTCHAR uni1ED1
ENCODING 7889
SWIDTH 600 0
DWIDTH 10 0
BBX 10 12 0 0
BITMAP
0000000077
00004DD680
0003A24900
0000000000
0029EEB200
02E9218D10
0AA0000E50
2F30000C70
4F00000E50
2F20007D00
0BB217E400
01AEEA2000
ENDCHAR
STARTCHAR uni1ED2
ENCODING 7890
SWIDTH 600 0
DWIDTH 10 0
BBX 9 14 0 0
BITMAP
0009200000
0002ABE500
0000951B10
0000000000
0006CFD600
009D413D60
05E20006D0
0C800003F0
2F300004F0
4F000007D0
4E00000C80
2F20005E20
0AB216E500
019EEB3000
ENDCHAR
STARTCHAR uni1ED3
ENCODING 7891
SWIDTH 600 0
DWIDTH 10 0
BBX 9 12 0 0
BITMAP
0085000000
001B5DD100
0003A24900
0000000000
0029EEB200
02E9218D10
0AA0000E50
2F30000C70
4F00000E50
2F20007D00
0BB217E400
01AEEA2000
ENDCHAR
STARTCHAR uni1ED4
ENCODING 7892
SWIDTH 600 0
DWIDTH 10 0
BBX 10 15 0 0
BITMAP
00000002E6
000000007A
00001BE5D3
0000951B10
0000000000
0006CFD600
009D413D60
05E20006D0
0C800003F0
2F300004F0
4F000007D0
4E00000C80
2F20005E20
0AB216E500
019EEB3000
ENDCHAR
STARTCHAR uni1ED5
ENCODING 7893
SWIDTH 600 0
DWIDTH 10 0
BBX 10 13 0 0
BITMAP
00000007C2
00000001B5
00004DD6A0
0003A24900
0000000000
0029EEB200
02E9218D10
0AA0000E50
2F30000C70
4F00000E50
2F20007D00
0BB217E400
01AEEA2000
ENDCHAR
STARTCHAR uni1ED6
ENCODING 7894
SWIDTH 600 0
DWIDTH 10 0
BBX 9 15 0 0
BITMAP
00004EA2A0
0000928E60
00001BE500
0000952B00
0000000000
0006CFD600
009D413D60
05E20006D0
0C800003F0
2F300004F0
4F000007D0
4E00000C80
2F20005E20
0AB216E500
019EEB3000
ENDCHAR
STARTCHAR uni1ED7
ENCODING 7895
SWIDTH 600 0
DWIDTH 10 0
BBX 9 13 0 0
BITMAP
00006C5540
0000B4CD10
00004DD200
0002B24900
0000000000
0029EEB200
02E9218D10
0AA0000E50
2F30000C70
4F00000E50
2F20007D00
0BB217E400
01AEEA2000
ENDCHAR
STARTCHAR uni1ED8
ENCODING 7896
SWIDTH 600 0
DWIDTH 10 0
BBX 9 17 0 -4
BITMAP
00002CD800
0001B30940
0000000000
0006CFD600
009D413D60
05E20006D0
0C800003F0
2F300004F0
4F000007D0
4E00000C80
2F20005E20
0AB216E500
019EEB3000
0000000000
0000000000
007E200000
008D200000
ENDCHAR
STARTCHAR uni1ED9
ENCODING 7897
SWIDTH 600 0
DWIDTH 10 0
BBX 9 16 0 -4
BITMAP
00002EE100
0001D69900
0008500B10
0000000000
0029EEB200
02E9218D10
0AA0000E50
2F30000C70
4F00000E50
2F20007D00
0BB217E400
01AEEA2000
0000000000
0000000000
007E200000
008D200000
ENDCHAR
STARTCHAR uni1EDA
ENCODING 7898
SWIDTH 600 0
DWIDTH 10 0
BBX 11 14 0 0
BITMAP
0000001A2000
000002CC2000
000008700C10
000000001E10
0006CED9A400
009D413D7000
05E20006E000
0C800003F100
2F300004F000
4F000007D000
4E00000C8000
2F20005E2000
0AB216E50000
019EEB300000
ENDCHAR
STARTCHAR uni1EDB
ENCODING 7899
SWIDTH 600 0
DWIDTH 10 0
BBX 10 12 0 0
BITMAP
0000004B00
000006E500
00002B2077
00000000B5
0029EEBB70
02E9218D10
0AA0000E50
2F30000C70
4F00000E50
2F20007D00
0BB217E400
01AEEB3000
ENDCHAR
STARTCHAR uni1EDC
ENCODING 7900
SWIDTH 600 0
DWIDTH 10 0
BBX 11 14 0 0
BITMAP
000058000000
00002E600000
000002B00C10
000000001E10
0006CED9A400
009D413D7000
05E20006E000
0C800003F100
2F300004F000
4F000007D000
4E00000C8000
2F20005E2000
0AB216E50000
019EEB300000
ENDCHAR
STARTCHAR uni1EDD
ENCODING 7901
SWIDTH 600 0
DWIDTH 10 0
BBX 10 12 0 0
BITMAP
0000780000
00003E4000
000004A077
00000000B5
0029EEBB70
02E9218D10
0AA0000E50
2F30000C70
4F00000E50
2F20007D00
0BB217E400
01AEEB3000
ENDCHAR
STARTCHAR uni1EDE
ENCODING 7902
SWIDTH 600 0
DWIDTH 10 0
BBX 11 14 0 0
BITMAP
00000BC10000
000002D40000
00000A800C10
000000001E10
0006CED9A400
009D413D7000
05E20006E000
0C800003F100
2F300004F000
4F000007D000
4E00000C8000
2F20005E2000
0AB216E50000
019EEB300000
ENDCHAR
STARTCHAR uni1EDF
ENCODING 7903
SWIDTH 600 0
DWIDTH 10 0
BBX 10 13 0 0
BITMAP
00000D9000
000002E300
000003E100
00000B4077
00000000B5
0029EEBB70
02E9218D10
0AA0000E50
2F30000C70
4F00000E50
2F20007D00
0BB217E400
01AEEB3000
ENDCHAR
STARTCHAR uni1EE0
ENCODING 7904
SWIDTH 600 0
DWIDTH 10 0
BBX 11 14 0 0
BITMAP
000020001000
0008ED378000
001B06EB1C10
000000001E10
0006CED9A400
009D413D7000
05E20006E000
0C800003F100
2F300004F000
4F000007D000
4E00000C8000
2F20005E2000
0AB216E50000
019EEB300000
ENDCHAR
STARTCHAR uni1EE1
ENCODING 7905
SWIDTH 600 0
DWIDTH 10 0
BBX 10 12 0 0
BITMAP
0001400210
001DBA1D20
005808E777
00000000B5
0029EEBB70
02E9218D10
0AA0000E50
2F30000C70
4F00000E50
2F20007D00
0BB217E400
01AEEB3000
ENDCHAR
STARTCHAR uni1EE2
ENCODING 7906
SWIDTH 600 0
DWIDTH 10 0
BBX 11 16 0 -4
BITMAP
000000000C10
000000001E10
0006CED9A400
009D413D7000
05E20006E000
0C800003F100
2F300004F000
4F000007D000
4E00000C8000
2F20005E2000
0AB216E50000
019EEB300000
000000000000
000000000000
007E20000000
008D20000000
ENDCHAR
STARTCHAR uni1EE3
ENCODING 7907
SWIDTH 600 0
DWIDTH 10 0
BBX 10 14 0 -4
BITMAP
0000000077
00000000B5
0029EEBB70
02E9218D10
0AA0000E50
2F30000C70
4F00000E50
2F20007D00
0BB217E400
01AEEB3000
0000000000
0000000000
007E200000
008D200000
ENDCHAR
STARTCHAR uni1EE4
ENCODING 7908
SWIDTH 600 0
DWIDTH 10 0
BBX 9 14 1 -4
BITMAP
0B80000E40
0E50002F10
2F10005D00
5D00008A00
9A0000C700
C70000E400
E40003F100
D50009A000
9C216E3000
19EEB30000
0000000000
0000000000
07E2000000
08D2000000
ENDCHAR
STARTCHAR uni1EE5
ENCODING 7909
SWIDTH 600 0
DWIDTH 10 0
BBX 9 12 0 -4
BITMAP
02F20008A0
05E0000B70
08B0000E40
0B80002F20
0E50005E00
1F2001BB00
1F614BB800
07EE91B500
0000000000
0000000000
004E500000
005E400000
ENDCHAR
STARTCHAR uni1EE6
ENCODING 7910
SWIDTH 600 0
DWIDTH 10 0
BBX 9 14 1 0
BITMAP
0000BC1000
00002D4000
0000A80000
0000000000
0B80000E40
0E50002F10
2F10005D00
5D00008A00
9A0000C700
C70000E400
E40003F100
D50009A000
9C216E3000
19EEB30000
ENDCHAR
STARTCHAR uni1EE7
ENCODING 7911
SWIDTH 600 0
DWIDTH 10 0
BBX 9 13 0 0
BITMAP
00000D9000
000002E300
000004E100
00000B4000
0000000000
02F20008A0
05E0000B70
08B0000E40
0B80002F20
0E50005E00
1F2001BB00
1F614BB800
07EE91B500
ENDCHAR
STARTCHAR uni1EE8
ENCODING 7912
SWIDTH 600 0
DWIDTH 10 0
BBX 11 14 1 0
BITMAP
000001A20000
00002CC20940
000087000A50
000000003C10
0B80000E8100
0E50002F2000
2F10005E0000
5D00008B0000
9A0000C80000
C70000E60000
E40003F30000
D50009E00000
9C216F600000
19EEC5000000
ENDCHAR
STARTCHAR uni1EE9
ENCODING 7913
SWIDTH 600 0
DWIDTH 10 0
BBX 11 12 0 0
BITMAP
0000004A0000
000006E50760
00002B200970
000000003E30
02F20008F700
05E0000B9000
08B0000E5000
0B80002F2000
0E50005E0000
1F2001BB0000
1F614BB80000
07EE91B50000
ENDCHAR
STARTCHAR uni1EEA
ENCODING 7914
SWIDTH 600 0
DWIDTH 10 0
BBX 11 14 1 0
BITMAP
000580000000
0002E6000940
00002B000A50
000000003C10
0B80000E8100
0E50002F2000
2F10005E0000
5D00008B0000
9A0000C80000
C70000E60000
E40003F30000
D50009E00000
9C216F600000
19EEC5000000
ENDCHAR
STARTCHAR uni1EEB
ENCODING 7915
SWIDTH 600 0
DWIDTH 10 0
BBX 11 12 0 0
BITMAP
000088000000
00003E400760
000004A00970
000000003E30
02F20008F700
05E0000B9000
08B0000E5000
0B80002F2000
0E50005E0000
1F2001BB0000
1F614BB80000
07EE91B50000
ENDCHAR
STARTCHAR uni1EEC
ENCODING 7916
SWIDTH 600 0
DWIDTH 10 0
BBX 11 14 1 0
BITMAP
0000BC100000
00002D400940
0000A8000A50
000000003C10
0B80000E8100
0E50002F2000
2F10005E0000
5D00008B0000
9A0000C80000
C70000E60000
E40003F30000
D50009E00000
9C216F600000
19EEC5000000
ENDCHAR
STARTCHAR uni1EED
ENCODING 7917
SWIDTH 600 0
DWIDTH 10 0
BBX 11 13 0 0
BITMAP
00000D900000
000002E30000
000004E10760
00000B400970
000000003E30
02F20008F700
05E0000B9000
08B0000E5000
0B80002F2000
0E50005E0000
1F2001BB0000
1F614BB80000
07EE91B50000
ENDCHAR
STARTCHAR uni1EEE
ENCODING 7918
SWIDTH 600 0
DWIDTH 10 0
BBX 11 14 1 0
BITMAP
000020010000
002DE81D1940
00761BE60A50
000000003C10
0B80000E8100
0E50002F2000
2F10005E0000
5D00008B0000
9A0000C80000
C70000E60000
E40003F30000
D50009E00000
9C216F600000
19EEC5000000
ENDCHAR
STARTCHAR uni1EEF
ENCODING 7919
SWIDTH 600 0
DWIDTH 10 0
BBX 11 12 0 0
BITMAP
000042013000
0008BD388760
000C03DC1970
000000003E30
02F20008F700
05E0000B9000
08B0000E5000
0B80002F2000
0E50005E0000
1F2001BB0000
1F614BB80000
07EE91B50000
ENDCHAR
STARTCHAR uni1EF0
ENCODING 7920
SWIDTH 600 0
DWIDTH 10 0
BBX 11 17 1 -4
BITMAP
000000000940
000000000A50
000000003C10
0B80000E8100
0E50002F2000
2F10005E0000
5D00008B0000
9A0000C80000
C70000E60000
E40003F30000
D50009E00000
9C216F600000
19EEC5000000
000000000000
000000000000
07E200000000
08D200000000
ENDCHAR
STARTCHAR uni1EF1
ENCODING 7921
SWIDTH 600 0
DWIDTH 10 0
BBX 11 15 0 -4
BITMAP
000000000760
000000000970
000000003E30
02F20008F700
05E0000B9000
08B0000E5000
0B80002F2000
0E50005E0000
1F2001BB0000
1F614BB80000
07EE91B50000
000000000000
000000000000
004E50000000
005E40000000
ENDCHAR
STARTCHAR Ygrave
ENCODING 7922
SWIDTH 600 0
DWIDTH 10 0
BBX 9 14 1 0
BITMAP
0008600000
0004E30000
0000490000
0000000000
1F30000AA0
0B80006D10
06C002E300
01F20C7000
00B68B0000
006DD10000
002F500000
004E000000
007B000000
00B8000000
ENDCHAR
STARTCHAR ygrave
ENCODING 7923
SWIDTH 600 0
DWIDTH 10 0
BBX 11 15 -1 -3
BITMAP
000009600000
000004E30000
000000690000
000000000000
007A00004E10
003E0000D600
000E3007C000
000B602E3000
0007A0A80000
0003D4D10000
0000EC400000
0000CA000000
0004E1000000
103D50000000
7FD500000000
ENDCHAR
STARTCHAR uni1EF4
ENCODING 7924
SWIDTH 600 0
DWIDTH 10 0
BBX 9 14 1 -4
BITMAP
1F30000AA0
0B80006D10
06C002E300
01F20C7000
00B68B0000
006DD10000
002F500000
004E000000
007B000000
00B8000000
0000000000
0000000000
07E2000000
08D2000000
ENDCHAR
STARTCHAR uni1EF5
ENCODING 7925
SWIDTH 600 0
DWIDTH 10 0
BBX 11 12 -1 -4
BITMAP
007A00004E10
003E0000D600
000E3007C000
000B602E3000
0007A0A80000
0003D4D10000
0000EC400000
0000CA000000
0004E1000000
103D50000000
7FD500AD0000
000000BC0000
ENDCHAR
STARTCHAR uni1EF6
ENCODING 7926
SWIDTH 600 0
DWIDTH 10 0
BBX 9 14 1 0
BITMAP
0000EA0000
00003F1000
0000C60000
0000000000
1F30000AA0
0B80006D10
06C002E300
01F20C7000
00B68B0000
006DD10000
002F500000
004E000000
007B000000
00B8000000
ENDCHAR
STARTCHAR uni1EF7
ENCODING 7927
SWIDTH 600 0
DWIDTH 10 0
BBX 11 16 -1 -3
BITMAP
000001E80000
0000003F1000
0000005D0000
000000C30000
000000000000
007A00004E10
003E0000D600
000E3007C000
000B602E3000
0007A0A80000
0003D4D10000
0000EC400000
0000CA000000
0004E1000000
103D50000000
7FD500000000
ENDCHAR
STARTCHAR uni1EF8
ENCODING 7928
SWIDTH 600 0
DWIDTH 10 0
BBX 9 14 1 0
BITMAP
0001100100
004DE62D00
00A32CE400
0000000000
1F30000AA0
0B80006D10
06C002E300
01F20C7000
00B68B0000
006DD10000
002F500000
004E000000
007B000000
00B8000000
ENDCHAR
STARTCHAR uni1EF9
ENCODING 7929
SWIDTH 600 0
DWIDTH 10 0
BBX 11 15 -1 -3
BITMAP
000004201300
00008BD37800
0000C03DC100
000000000000
007A00004E10
003E0000D600
000E3007C000
000B602E3000
0007A0A80000
0003D4D10000
0000EC400000
0000CA000000
0004E1000000
103D50000000
7FD500000000
ENDCHAR
STARTCHAR uni2007
ENCODING 8199
SWIDTH 600 0
DWIDTH 10 0
BBX 1 1 0 0
BITMAP
00
ENDCHAR
STARTCHAR uni2010
ENCODING 8208
SWIDTH 600 0
DWIDTH 10 0
BBX 8 1 1 5
BITMAP
9FFFFFF3
ENDCHAR
STARTCHAR figuredash
ENCODING 8210
SWIDTH 600 0
DWIDTH 10 0
BBX 8 1 1 4
BITMAP
DFFFFFF2
ENDCHAR
STARTCHAR endash
ENCODING 8211
SWIDTH 600 0
DWIDTH 10 0
BBX 8 1 1 4
BITMAP
DFFFFFF2
ENDCHAR
STARTCHAR emdash
ENCODING 8212
SWIDTH 600 0
DWIDTH 10 0
BBX 11 1 -1 4
BITMAP
3FFFFFFFFF60
ENDCHAR
STARTCHAR uni2015
ENCODING 8213
SWIDTH 600 0
DWIDTH 10 0
BBX 11 1 -1 4
BITMAP
3FFFFFFFFF60
ENDCHAR
STARTCHAR uni2016
ENCODING 8214
SWIDTH 600 0
DWIDTH 10 0
BBX 6 16 2 -4
BITMAP
7A01F1
7A01F1
7A01F1
7A01F1
7A01F1
7A01F1
7A01F1
7A01F1
7A01F1
7A01F1
7A01F1
7A01F1
7A01F1
7A01F1
7A01F1
7A01F1
ENDCHAR
STARTCHAR underscoredbl
ENCODING 8215
SWIDTH 600 0
DWIDTH 10 0
BBX 9 3 -1 -4
BITMAP
5FFFFFFF50
0000000000
BFFFFFFE00
ENDCHAR
STARTCHAR quoteleft
ENCODING 8216
SWIDTH 600 0
DWIDTH 10 0
BBX 4 5 4 6
BITMAP
0199
2D92
AA00
DF70
9E50
ENDCHAR
STARTCHAR quoteright
ENCODING 8217
SWIDTH 600 0
DWIDTH 10 0
BBX 5 5 3 6
BITMAP
02DC00
04EF10
006D00
16E400
5A3000
ENDCHAR
STARTCHAR quotesinglbase
ENCODING 8218
SWIDTH 600 0
DWIDTH 10 0
BBX 4 5 2 -3
BITMAP
03EB
05FF
008B
17E3
7A20
ENDCHAR
STARTCHAR quotereversed
ENCODING 8219
SWIDTH 600 0
DWIDTH 10 0
BBX 4 5 3 6
BITMAP
09E5
3FE3
3D00
0D91
02B3
ENDCHAR
STARTCHAR quotedblleft
ENCODING 8220
SWIDTH 600 0
DWIDTH 10 0
BBX 8 5 2 6
BITMAP
007B02A7
0CA23E71
7C00C700
AF90FE50
7E70BE30
ENDCHAR
STARTCHAR quotedblright
ENCODING 8221
SWIDTH 600 0
DWIDTH 10 0
BBX 8 5 1 6
BITMAP
01CD14EA
02EF46FE
003F108B
05E618E2
3B407920
ENDCHAR
STARTCHAR quotedblbase
ENCODING 8222
SWIDTH 600 0
DWIDTH 10 0
BBX 8 5 1 -3
BITMAP
01CD14EA
02EF46FE
003F108B
05E618E2
3B407920
ENDCHAR
STARTCHAR dagger
ENCODING 8224
SWIDTH 600 0
DWIDTH 10 0
BBX 7 14 2 -2
BITMAP
00087000
000A5000
010C2100
2FFFFF10
013B0100
00680000
00950000
00C20000
00E00000
03C00000
06900000
09600000
0D300000
03000000
ENDCHAR
STARTCHAR daggerdbl
ENCODING 8225
SWIDTH 600 0
DWIDTH 10 0
BBX 8 14 1 -2
BITMAP
00008800
0000A500
0010C310
02FFFFF2
0012C010
00059000
00097000
000C4000
000E1000
012C0100
7FFFFC00
11771100
00A50000
00D30000
ENDCHAR
STARTCHAR bullet
ENCODING 8226
SWIDTH 600 0
DWIDTH 10 0
BBX 5 5 2 2
BITMAP
07DE50
5FFFE0
AFFFE0
9FFFA0
2CEA10
ENDCHAR
STARTCHAR ellipsis
ENCODING 8230
SWIDTH 600 0
DWIDTH 10 0
BBX 10 2 -1 0
BITMAP
1CC0AD18E2
1EA0DC0BD1
ENDCHAR
STARTCHAR uni202F
ENCODING 8239
SWIDTH 600 0
DWIDTH 10 0
BBX 1 1 0 0
BITMAP
00
ENDCHAR
STARTCHAR perthousand
ENCODING 8240
SWIDTH 600 0
DWIDTH 10 0
BBX 10 10 0 0
BITMAP
009EB00000
0681B20000
0952C00396
04ED56BA51
0049951000
0350000000
2BE709EB00
A41C691B30
D14A852C10
7EB23ED500
ENDCHAR
STARTCHAR uni2032
ENCODING 8242
SWIDTH 600 0
DWIDTH 10 0
BBX 3 4 4 7
BITMAP
05D0
0970
0D10
3A00
ENDCHAR
STARTCHAR uni2033
ENCODING 8243
SWIDTH 600 0
DWIDTH 10 0
BBX 6 4 3 7
BITMAP
0B70E4
1E13D0
5A0870
940C10
ENDCHAR
STARTCHAR uni2035
ENCODING 8245
SWIDTH 600 0
DWIDTH 10 0
BBX 3 4 4 7
BITMAP
4D00
0E30
0870
02B0
ENDCHAR
STARTCHAR guilsinglleft
ENCODING 8249
SWIDTH 600 0
DWIDTH 10 0
BBX 4 6 3 1
BITMAP
0075
0A90
BA00
E600
4D10
0850
ENDCHAR
STARTCHAR guilsinglright
ENCODING 8250
SWIDTH 600 0
DWIDTH 10 0
BBX 4 6 2 1
BITMAP
0480
01E4
006E
00AB
09A1
5800
ENDCHAR
STARTCHAR exclamdbl
ENCODING 8252
SWIDTH 600 0
DWIDTH 10 0
BBX 8 10 1 0
BITMAP
00C700B8
00F300E4
03E002E0
06A005B0
09600860
0C200B20
00000000
00000000
BD10AE20
DC00DC10
ENDCHAR
STARTCHAR uni203D
ENCODING 8253
SWIDTH 600 0
DWIDTH 10 0
BBX 7 10 2 0
BITMAP
05CFD700
3C304F40
00780E20
00A68500
00CA2000
00E10000
00000000
00000000
1CC00000
2EA00000
ENDCHAR
STARTCHAR uni203E
ENCODING 8254
SWIDTH 600 0
DWIDTH 10 0
BBX 8 1 2 9
BITMAP
EFFFFFF7
ENDCHAR
STARTCHAR uni203F
ENCODING 8255
SWIDTH 600 0
DWIDTH 10 0
BBX 15 3 -4 -4
BITMAP
4700000000001730
07D84210136AB400
0016ADEFDB720000
ENDCHAR
STARTCHAR fraction
ENCODING 8260
SWIDTH 600 0
DWIDTH 10 0
BBX 11 9 -1 1
BITMAP
000000000580
000000005B10
00000005A000
000000060000
000000000000
000430000000
005A00000000
08A000000000
390000000000
ENDCHAR
STARTCHAR uni2047
ENCODING 8263
SWIDTH 600 0
DWIDTH 10 0
BBX 10 10 0 0
BITMAP
04DEA29ED5
0632E6618C
0001E20099
001B5006B1
01C4007A00
089001E100
0000000000
0000000000
5E700BD100
6E501DB000
ENDCHAR
STARTCHAR uni2048
ENCODING 8264
SWIDTH 600 0
DWIDTH 10 0
BBX 9 10 0 0
BITMAP
04DEA108B0
0632E50B70
0001E20E30
001B502E00
01C4005A00
0890008600
0000000000
0000000000
5E7007E400
6E500AE300
ENDCHAR
STARTCHAR uni2049
ENCODING 8265
SWIDTH 600 0
DWIDTH 10 0
BBX 10 10 0 0
BITMAP
001F419ED5
003F11618C
006B000099
00970006B1
00C2007A00
00D001E100
0000000000
0000000000
1DB00BD100
3E901DB000
ENDCHAR
STARTCHAR zero.sups
ENCODING 8304
SWIDTH 600 0
DWIDTH 10 0
BBX 5 7 3 6
BITMAP
06ED20
4C16A0
A402D0
D003B0
E00680
C42D20
4DD400
ENDCHAR
STARTCHAR i.sups
ENCODING 8305
SWIDTH 600 0
DWIDTH 10 0
BBX 5 8 3 6
BITMAP
007900
000000
000000
8FF300
00C000
02A000
05A110
03EE40
ENDCHAR
STARTCHAR four.sups
ENCODING 8308
SWIDTH 600 0
DWIDTH 10 0
BBX 5 7 3 6
BITMAP
003800
01C100
0A4720
770C00
EFFFB0
003A00
006700
ENDCHAR
STARTCHAR five.sups
ENCODING 8309
SWIDTH 600 0
DWIDTH 10 0
BBX 5 6 3 6
BITMAP
07FFE0
0B2000
0EEC10
041A60
A21B40
4DE800
ENDCHAR
STARTCHAR six.sups
ENCODING 8310
SWIDTH 600 0
DWIDTH 10 0
BBX 5 7 3 6
BITMAP
03CE90
1D5130
690000
ABEC20
A71970
871A50
1BE900
ENDCHAR
STARTCHAR seven.sups
ENCODING 8311
SWIDTH 600 0
DWIDTH 10 0
BBX 5 6 4 6
BITMAP
EFFF30
006700
04A000
0C1000
690000
C40000
ENDCHAR
STARTCHAR eight.sups
ENCODING 8312
SWIDTH 600 0
DWIDTH 10 0
BBX 5 7 3 6
BITMAP
05DE40
0D25B0
0C4790
1BFC10
A62C20
D42B40
5EE800
ENDCHAR
STARTCHAR nine.sups
ENCODING 8313
SWIDTH 600 0
DWIDTH 10 0
BBX 5 7 3 6
BITMAP
07EB10
2C1980
6703B0
6A19A0
1CEB70
312B10
9EC200
ENDCHAR
STARTCHAR parenleft.sups
ENCODING 8317
SWIDTH 600 0
DWIDTH 10 0
BBX 4 9 4 5
BITMAP
0074
03B0
0B30
2C00
5900
7700
6700
4900
0A00
ENDCHAR
STARTCHAR parenright.sups
ENCODING 8318
SWIDTH 600 0
DWIDTH 10 0
BBX 4 9 3 5
BITMAP
00A1
0085
0067
0067
0086
00C2
03C0
0A40
3800
ENDCHAR
STARTCHAR n.sups
ENCODING 8319
SWIDTH 600 0
DWIDTH 10 0
BBX 6 6 3 5
BITMAP
1CAEC0
4D41D3
7800D1
A501D0
D204A0
600340
ENDCHAR
STARTCHAR zero.subs
ENCODING 8320
SWIDTH 600 0
DWIDTH 10 0
BBX 6 7 1 -3
BITMAP
009EB1
0891A6
0D1068
3B0077
4B00B4
2E15C0
07EC20
ENDCHAR
STARTCHAR one.subs
ENCODING 8321
SWIDTH 600 0
DWIDTH 10 0
BBX 6 6 1 -3
BITMAP
019D90
000950
000D20
001E00
004B00
6FFFF5
ENDCHAR
STARTCHAR two.subs
ENCODING 8322
SWIDTH 600 0
DWIDTH 10 0
BBX 6 7 1 -3
BITMAP
009EB1
0261B5
0000A4
0003C0
003C20
05B100
4FFFC0
ENDCHAR
STARTCHAR three.subs
ENCODING 8323
SWIDTH 600 0
DWIDTH 10 0
BBX 6 7 1 -3
BITMAP
01AEB1
0041B5
0003D3
008F60
0004D0
2914D0
07ED40
ENDCHAR
STARTCHAR four.subs
ENCODING 8324
SWIDTH 600 0
DWIDTH 10 0
BBX 6 7 1 -3
BITMAP
000740
004A00
01C190
0B32B0
4FFFF7
000760
000A30
ENDCHAR
STARTCHAR five.subs
ENCODING 8325
SWIDTH 600 0
DWIDTH 10 0
BBX 6 6 1 -3
BITMAP
00BFFA
01C000
04EE90
0232D2
2913D1
07ED40
ENDCHAR
STARTCHAR six.subs
ENCODING 8326
SWIDTH 600 0
DWIDTH 10 0
BBX 5 7 2 -3
BITMAP
05DE60
4D3120
B50000
EAEA00
E41C30
C32D10
3DE500
ENDCHAR
STARTCHAR seven.subs
ENCODING 8327
SWIDTH 600 0
DWIDTH 10 0
BBX 5 6 2 -3
BITMAP
4FFFE0
000A40
008600
03B000
0A4000
1E0000
ENDCHAR
STARTCHAR eight.subs
ENCODING 8328
SWIDTH 600 0
DWIDTH 10 0
BBX 6 7 1 -3
BITMAP
008EC1
03B197
02C2B4
03DF90
1D34C0
2D23D0
08ED50
ENDCHAR
STARTCHAR nine.subs
ENCODING 8329
SWIDTH 600 0
DWIDTH 10 0
BBX 6 7 1 -3
BITMAP
00AE90
0691C4
0A3087
0A62C6
03DDC3
0314A0
1CEA10
ENDCHAR
STARTCHAR parenleft.subs
ENCODING 8333
SWIDTH 600 0
DWIDTH 10 0
BBX 4 9 3 -4
BITMAP
00A1
0770
1D00
6800
A400
B300
A300
8500
4700
ENDCHAR
STARTCHAR parenright.subs
ENCODING 8334
SWIDTH 600 0
DWIDTH 10 0
BBX 4 9 2 -4
BITMAP
00A0
00C1
00B3
00A3
00C2
01D0
0770
1C10
7400
ENDCHAR
STARTCHAR uni0259.sups
ENCODING 8340
SWIDTH 600 0
DWIDTH 10 0
BBX 5 5 3 6
BITMAP
1AED40
2514D0
DFFFE0
D21980
6EE800
ENDCHAR
STARTCHAR colonmonetary
ENCODING 8353
SWIDTH 600 0
DWIDTH 10 0
BBX 9 14 1 -2
BITMAP
0000051500
0000094500
0007CFE600
01CCA2AD20
09D1945100
2F42781000
6D07290000
9B09450000
9A27800000
7D72801000
2EC569C000
05DFD81000
0728000000
0523000000
ENDCHAR
STARTCHAR franc
ENCODING 8355
SWIDTH 600 0
DWIDTH 10 0
BBX 10 10 0 0
BITMAP
000BFFFFF6
000E400000
002F100000
006D000000
009FFFFB00
00C7000000
00F4000000
7FFFF90000
06D0000000
09A0000000
ENDCHAR
STARTCHAR lira
ENCODING 8356
SWIDTH 600 0
DWIDTH 10 0
BBX 9 10 0 0
BITMAP
00019EEB20
000BA217A0
000F200000
06EFFFF600
000D400000
0BFFFFF000
000E300000
005C000000
04C2000000
6FFFFFF800
ENDCHAR
STARTCHAR uni20A6
ENCODING 8358
SWIDTH 600 0
DWIDTH 10 0
BBX 9 10 0 0
BITMAP
001F700770
005BB00B30
0094D00E00
0EFFFFFFF0
00E0845900
4EFFFFFFA0
04B0488400
07801BB100
0A500CB000
0D200BA000
ENDCHAR
STARTCHAR peseta
ENCODING 8359
SWIDTH 600 0
DWIDTH 10 0
BBX 9 10 1 0
BITMAP
00EFFEA100
03E102C700
9FFFFFFF70
098000E400
0C603BA000
0EFFD70000
2F10000000
5C00000000
8900000000
B600000000
ENDCHAR
STARTCHAR uni20A9
ENCODING 8361
SWIDTH 600 0
DWIDTH 10 0
BBX 10 10 0 0
BITMAP
00C50520A7
00E31E50E1
00F17A45A0
01F0A83A50
3FFFFFFFF0
03C64A3C00
04AA0B6700
05A90BA200
06C50CC000
07F10F8000
ENDCHAR
STARTCHAR dong
ENCODING 8363
SWIDTH 600 0
DWIDTH 10 0
BBX 10 11 0 0
BITMAP
0000000A60
00005FFFF6
0000001F10
0019ED9C00
00B912B900
04D000A600
06B000D300
05E218F100
00AED8D000
0000000000
1FFFFFE000
ENDCHAR
STARTCHAR Euro
ENCODING 8364
SWIDTH 600 0
DWIDTH 10 0
BBX 10 10 0 0
BITMAP
00006CEE80
001BC412C5
009C100010
0EFFFFFC00
02F2000000
5FFFFFB000
03F1000000
01F4000100
009C216E20
001AEEB300
ENDCHAR
STARTCHAR uni20AE
ENCODING 8366
SWIDTH 600 0
DWIDTH 10 0
BBX 9 10 1 0
BITMAP
0BFFFFFF40
0001F30000
0004F02000
0007EA8000
018EB12000
093DBA5000
04AF500000
475F000000
007C000000
00A9000000
ENDCHAR
STARTCHAR uni20B1
ENCODING 8369
SWIDTH 600 0
DWIDTH 10 0
BBX 9 10 1 0
BITMAP
00EFFD7000
02F004E400
7FFFFFFF90
07A000B600
CFFFFFFF40
0C5029B000
1FFFD81000
5E00000000
8A00000000
C600000000
ENDCHAR
STARTCHAR uni20B2
ENCODING 8370
SWIDTH 600 0
DWIDTH 10 0
BBX 8 14 1 -2
BITMAP
00000A30
00000D00
0019DFC3
03E9206B
0D900000
5E100000
A9000000
C700CFF4
C70001F1
A90004D0
5F512AA0
06DFD920
003B0000
00680000
ENDCHAR
STARTCHAR uni20B4
ENCODING 8372
SWIDTH 600 0
DWIDTH 10 0
BBX 8 10 1 0
BITMAP
003BFE80
00A403F3
000006D1
7FFFFFFB
007D8100
CFFFFFF5
2F300000
6C000000
4E403B40
07DFC500
ENDCHAR
STARTCHAR uni20B5
ENCODING 8373
SWIDTH 600 0
DWIDTH 10 0
BBX 9 14 1 -2
BITMAP
0000033000
0000093000
0007CFE600
01BC3C3D20
09D1390000
1F50660000
6E00920000
8B00C00000
8B01B00000
6D04801000
1E8868C000
03CFE91000
000C000000
0007000000
ENDCHAR
STARTCHAR uni20B8
ENCODING 8376
SWIDTH 600 0
DWIDTH 10 0
BBX 9 10 1 0
BITMAP
0BFFFFFF50
0000000000
1EFFFFFE00
0006D00000
0009A00000
000C700000
001F400000
003F100000
007C000000
00A9000000
ENDCHAR
STARTCHAR uni20B9
ENCODING 8377
SWIDTH 600 0
DWIDTH 10 0
BBX 9 10 1 0
BITMAP
06FFFFFF40
00003B5000
0CFFFFFC00
00000B7000
0013AD1000
6FFD810000
00C8000000
003F300000
0008C00000
0001D60000
ENDCHAR
STARTCHAR uni20BA
ENCODING 8378
SWIDTH 600 0
DWIDTH 10 0
BBX 9 10 0 0
BITMAP
0006D00000
0009917600
000CDA4000
06BF439200
024FB71000
19DC000640
0199000C40
00D6004E10
01F438E500
04FEC82000
ENDCHAR
STARTCHAR uni20BD
ENCODING 8381
SWIDTH 600 0
DWIDTH 10 0
BBX 10 10 0 0
BITMAP
0002FFFD80
0005E003D7
0008B00099
000B8000C7
000E5029D1
4EFFFFD910
004E000000
8EFFFFFD00
00A9000000
00E5000000
ENDCHAR
STARTCHAR uni2105
ENCODING 8453
SWIDTH 600 0
DWIDTH 10 0
BBX 11 10 -1 0
BITMAP
019EA0000480
098151004C20
0D000004A100
0E3120070000
06ED30000000
0000007ED300
001A36B15B00
01B40B303A00
2C400C51B500
130004DD7000
ENDCHAR
STARTCHAR uni2113
ENCODING 8467
SWIDTH 600 0
DWIDTH 10 0
BBX 8 11 1 0
BITMAP
00008EC1
0006D2B6
000C60B5
001F22D1
005D0B50
008A9600
00BE5000
05E30000
38F10000
01F51700
008ED700
ENDCHAR
STARTCHAR uni2116
ENCODING 8470
SWIDTH 600 0
DWIDTH 10 0
BBX 12 10 -1 0
BITMAP
009D00896EB0
00CE01F4C2D2
00DC14C760C1
03BA379874C0
06994A63EC20
09686D300000
0C467E0CFE00
1F15BC000000
5C03E8000000
C502F5000000
ENDCHAR
STARTCHAR uni2117
ENCODING 8471
SWIDTH 600 0
DWIDTH 10 0
BBX 10 10 0 0
BITMAP
0006CEE910
00AA3128A0
08700000B2
1B03FFD374
550761B564
830AFE9092
830D0001B0
572B000B40
0C6115C700
02BFEA3000
ENDCHAR
STARTCHAR uni2120
ENCODING 8480
SWIDTH 600 0
DWIDTH 10 0
BBX 11 5 0 6
BITMAP
04ED25B03D10
086339C1AC00
01B70C897A00
161D2C5B5700
0AEA39008400
ENDCHAR
STARTCHAR trademark
ENCODING 8482
SWIDTH 600 0
DWIDTH 10 0
BBX 10 5 1 6
BITMAP
CFFF5F11E5
06606C48C2
0A309798C0
0C00C2E2B0
1C00C00480
ENDCHAR
STARTCHAR uni2126
ENCODING 8486
SWIDTH 600 0
DWIDTH 10 0
BBX 11 10 -1 0
BITMAP
00005BEE9100
0009D413D900
006E10005F00
00D700002F20
03F100003F10
04E000006D00
04E00000B700
01F20005C000
0088005C1000
5FFE01FFF300
ENDCHAR
STARTCHAR estimated
ENCODING 8494
SWIDTH 600 0
DWIDTH 10 0
BBX 10 10 0 0
BITMAP
004BEE9100
04B3115C10
1D80000D90
5F80000DE0
8FFFFFFFF2
8F80000000
5F80000000
1D80000610
04D4128400
004BED5000
ENDCHAR
STARTCHAR uni2150
ENCODING 8528
SWIDTH 600 0
DWIDTH 10 0
BBX 11 10 -1 0
BITMAP
01AE30000580
000E10005B10
002D0005A000
005A00060000
008700000000
000430DFFE00
005A0000A400
08A000086000
3900001D0000
000000780000
ENDCHAR
STARTCHAR uni2151
ENCODING 8529
SWIDTH 600 0
DWIDTH 10 0
BBX 11 10 -1 0
BITMAP
01AE30000580
000E10005B10
002D0005A000
005A00060000
008700000000
000430AEC200
005A04B19800
08A002DEC800
39000312C300
000006ED5000
ENDCHAR
STARTCHAR uni2152
ENCODING 8530
SWIDTH 600 0
DWIDTH 10 0
BBX 10 10 0 0
BITMAP
00CF800000
000A500000
000D100396
000916BA51
0049951000
035007EA00
1FF44B1B20
00E1840A20
02D0863C00
04A03DD300
ENDCHAR
STARTCHAR onethird
ENCODING 8531
SWIDTH 600 0
DWIDTH 10 0
BBX 11 10 -1 0
BITMAP
01AE30000580
000E10005B10
002D0005A000
005A00060000
008700000000
0004304DE400
005A0042A600
08A0000FB000
39000441C300
000001CEA000
ENDCHAR
STARTCHAR twothirds
ENCODING 8532
SWIDTH 600 0
DWIDTH 10 0
BBX 11 10 -1 0
BITMAP
02BE80000580
0544C0005B10
00094005A000
03A300060000
2FFFC0000000
0004304DE400
005A0042A600
08A0000FB000
39000441C300
000001CEA000
ENDCHAR
STARTCHAR uni2155
ENCODING 8533
SWIDTH 600 0
DWIDTH 10 0
BBX 11 10 -1 0
BITMAP
01AE30000580
000E10005B10
002D0005A000
005A00060000
008700000000
0004307FF900
005A00A10000
08A000DED200
39000571B500
000002DEA000
ENDCHAR
STARTCHAR uni2156
ENCODING 8534
SWIDTH 600 0
DWIDTH 10 0
BBX 11 10 -1 0
BITMAP
02BE80000580
0544C0005B10
00094005A000
03A300060000
2FFFC0000000
0004307FF900
005A00A10000
08A000DED200
39000571B500
000002DEA000
ENDCHAR
STARTCHAR uni2157
ENCODING 8535
SWIDTH 600 0
DWIDTH 10 0
BBX 11 10 -1 0
BITMAP
009FB0000580
0143D0005B10
007F4005A000
0716B0060000
06ED50000000
0004307FF900
005A00A10000
08A000DED200
39000571B500
000002DEA000
ENDCHAR
STARTCHAR uni2158
ENCODING 8536
SWIDTH 600 0
DWIDTH 10 0
BBX 11 10 -1 0
BITMAP
001A00000580
00A320005B10
09467005A000
3FFFF1060000
000B10000000
0004307FF900
005A00A10000
08A000DED200
39000571B500
000002DEA000
ENDCHAR
STARTCHAR uni2159
ENCODING 8537
SWIDTH 600 0
DWIDTH 10 0
BBX 11 10 -1 0
BITMAP
01AE30000580
000E10005B10
002D0005A000
005A00060000
008700000000
0004304CE800
005A02D41300
08A006CDE300
390006A19600
000001BEB100
ENDCHAR
STARTCHAR uni215A
ENCODING 8538
SWIDTH 600 0
DWIDTH 10 0
BBX 11 10 -1 0
BITMAP
00EFF2000580
039000005B10
06EF8005A000
1934D0060000
08ED40000000
0004304CE800
005A02D41300
08A006CDE300
390006A19600
000001BEB100
ENDCHAR
STARTCHAR oneeighth
ENCODING 8539
SWIDTH 600 0
DWIDTH 10 0
BBX 11 10 -1 0
BITMAP
01AE30000580
000E10005B10
002D0005A000
005A00060000
008700000000
0004306EE500
005A00D47800
08A000AFD100
39000792C400
000004EEB100
ENDCHAR
STARTCHAR threeeighths
ENCODING 8540
SWIDTH 600 0
DWIDTH 10 0
BBX 11 10 -1 0
BITMAP
009FB0000580
0143D0005B10
007F4005A000
0716B0060000
06ED50000000
0004306EE500
005A00D47800
08A000AFD100
39000792C400
000004EEB100
ENDCHAR
STARTCHAR fiveeighths
ENCODING 8541
SWIDTH 600 0
DWIDTH 10 0
BBX 11 10 -1 0
BITMAP
00EFF2000580
039000005B10
06EF8005A000
1934D0060000
08ED40000000
0004306EE500
005A00D47800
08A000AFD100
39000792C400
000004EEB100
ENDCHAR
STARTCHAR seveneighths
ENCODING 8542
SWIDTH 600 0
DWIDTH 10 0
BBX 11 10 -1 0
BITMAP
05FFF7000580
0003A0005B10
001C1005A000
008600060000
00E100000000
0004306EE500
005A00D47800
08A000AFD100
39000792C400
000004EEB100
ENDCHAR
STARTCHAR uni2189
ENCODING 8585
SWIDTH 600 0
DWIDTH 10 0
BBX 11 10 -1 0
BITMAP
01AEC1000580
0A7197005B10
1D007605A000
1E23D2060000
07EC40000000
0004304DE400
005A0042A600
08A0000FB000
39000441C300
000001CEA000
ENDCHAR
STARTCHAR uni2190
ENCODING 8592
SWIDTH 600 0
DWIDTH 10 0
BBX 10 9 0 0
BITMAP
0000710000
000AA00000
00A9000000
0B80000000
8FFFFFFFF2
0B80000000
00A9000000
000AA00000
0000710000
ENDCHAR
STARTCHAR arrowup
ENCODING 8593
SWIDTH 600 0
DWIDTH 10 0
BBX 9 9 0 0
BITMAP
0000A50000
000AFE4000
0099B6D400
09A0B52D40
3B00B503B0
0000B50000
0000B50000
0000B50000
0000B50000
ENDCHAR
STARTCHAR uni2192
ENCODING 8594
SWIDTH 600 0
DWIDTH 10 0
BBX 10 9 0 0
BITMAP
0000440000
00003D4000
000002D400
0000002C50
8FFFFFFFF2
0000002C50
000002D400
00003D4000
0000440000
ENDCHAR
STARTCHAR arrowdown
ENCODING 8595
SWIDTH 600 0
DWIDTH 10 0
BBX 9 9 0 0
BITMAP
0000B50000
0000B50000
0000B50000
0000B50000
3B00B503B0
09A0B52D40
0099B6D400
000AFE4000
0000A50000
ENDCHAR
STARTCHAR arrowboth
ENCODING 8596
SWIDTH 600 0
DWIDTH 10 0
BBX 11 7 -1 1
BITMAP
000920074000
00890002D300
06B000003C10
1EFFFFFFFF90
06B000003C10
00890002D300
000920074000
ENDCHAR
STARTCHAR arrowupdn
ENCODING 8597
SWIDTH 600 0
DWIDTH 10 0
BBX 8 10 1 -1
BITMAP
001B6000
02CDD900
4D3B58B1
220B5050
000B5000
000B5000
220B5040
4D3B58B1
02CDD900
001B7000
ENDCHAR
STARTCHAR uni2196
ENCODING 8598
SWIDTH 600 0
DWIDTH 10 0
BBX 7 8 1 0
BITMAP
13222210
7FCBCC80
7DD10000
678D1000
6708D100
68008D10
680008D0
00000030
ENDCHAR
STARTCHAR uni2197
ENCODING 8599
SWIDTH 600 0
DWIDTH 10 0
BBX 7 8 1 0
BITMAP
01222220
2DCCBEE0
00006DD0
0006D2D0
006D20D0
07D200D0
6D2001C0
12000000
ENDCHAR
STARTCHAR uni2198
ENCODING 8600
SWIDTH 600 0
DWIDTH 10 0
BBX 7 8 1 0
BITMAP
13000000
4E3000E0
05E300E0
005E30D0
0005E3D0
00005EE0
1DDCCEF0
01111220
ENDCHAR
STARTCHAR uni2199
ENCODING 8601
SWIDTH 600 0
DWIDTH 10 0
BBX 8 8 1 0
BITMAP
00000040
490007D1
49007D20
5907D200
587D2000
5DD20000
5FDCCDA0
12211110
ENDCHAR
STARTCHAR arrowupdnbse
ENCODING 8616
SWIDTH 600 0
DWIDTH 10 0
BBX 9 11 0 -2
BITMAP
0001A60000
002CED8000
03D4B59A10
0330B50500
0000B50000
0000B50000
0330B50500
03D4B59A00
002CED8000
0001A50000
1FFFFFFFA0
ENDCHAR
STARTCHAR uni21D0
ENCODING 8656
SWIDTH 600 0
DWIDTH 10 0
BBX 10 10 0 -1
BITMAP
0000200000
0004D10000
004C200000
04FFFFFFF2
4C20000000
4C20000000
04FFFFFFF2
004C200000
0004D10000
0000200000
ENDCHAR
STARTCHAR uni21D1
ENCODING 8657
SWIDTH 600 0
DWIDTH 10 0
BBX 9 9 0 0
BITMAP
0000A50000
000AAD4000
009C03F400
09BB02CD30
3B1B02A3B0
001B02A000
001B02A000
001B02A000
001B02A000
ENDCHAR
STARTCHAR uni21D2
ENCODING 8658
SWIDTH 600 0
DWIDTH 10 0
BBX 10 10 0 -1
BITMAP
0000110000
00006C1000
000006B100
8FFFFFFC10
00000006B1
00000006B1
8FFFFFFC10
000006B100
00006C1000
0000110000
ENDCHAR
STARTCHAR uni21D3
ENCODING 8659
SWIDTH 600 0
DWIDTH 10 0
BBX 9 9 0 0
BITMAP
001B02A000
001B02A000
001B02A000
001B02A000
3B2B02A3B0
09BB02CD40
009C04F400
000AAD4000
0000A50000
ENDCHAR
STARTCHAR uni2200
ENCODING 8704
SWIDTH 600 0
DWIDTH 10 0
BBX 9 10 1 0
BITMAP
6D00000AA0
4F00003F20
2F1000C800
0FEEEEE100
0D511C6000
0B605C0000
0970D40000
0796A00000
05BD200000
03F8000000
ENDCHAR
STARTCHAR partialdiff
ENCODING 8706
SWIDTH 600 0
DWIDTH 10 0
BBX 9 10 0 0
BITMAP
00029EE900
0002613E60
00000008A0
00000007B0
005CFE7990
07E512AF60
1F40003E10
3F0000C700
1F613BA000
05DFC60000
ENDCHAR
STARTCHAR uni2203
ENCODING 8707
SWIDTH 600 0
DWIDTH 10 0
BBX 9 10 0 0
BITMAP
00EFFFFF80
0000000E50
0000002F20
0000006E00
00EFFFFA00
000000C700
000000F400
000003F100
000006D000
EFFFFFA000
ENDCHAR
STARTCHAR uni2206
ENCODING 8710
SWIDTH 600 0
DWIDTH 10 0
BBX 10 10 -1 0
BITMAP
000001EB00
000009AD00
00003D1F10
0000C50E30
0006B00C60
001D300A80
00890007B0
02E10005D0
0B700003F1
3FFFFFFFF2
ENDCHAR
STARTCHAR product
ENCODING 8719
SWIDTH 600 0
DWIDTH 10 0
BBX 9 11 0 -1
BITMAP
3FFFFFFFA0
3F100008A0
3F100008A0
3F100008A0
3F100008A0
3F100008A0
3F100008A0
3F100008A0
3F100008A0
3F100008A0
3F100008A0
ENDCHAR
STARTCHAR summation
ENCODING 8721
SWIDTH 600 0
DWIDTH 10 0
BBX 8 12 1 -2
BITMAP
CFFFFFF3
5E100000
09A00000
01D60000
003E2000
0007C000
0008B000
004E2000
01E50000
0B900000
7C100000
FFFFFFF9
ENDCHAR
STARTCHAR minus
ENCODING 8722
SWIDTH 600 0
DWIDTH 10 0
BBX 8 1 1 5
BITMAP
9FFFFFF3
ENDCHAR
STARTCHAR uni2215
ENCODING 8725
SWIDTH 600 0
DWIDTH 10 0
BBX 11 9 -1 1
BITMAP
000000000580
000000005B10
00000005A000
000000060000
000000000000
000430000000
005A00000000
08A000000000
390000000000
ENDCHAR
STARTCHAR uni2219
ENCODING 8729
SWIDTH 600 0
DWIDTH 10 0
BBX 4 3 2 4
BITMAP
0AD1
3FF2
1DA0
ENDCHAR
STARTCHAR radical
ENCODING 8730
SWIDTH 600 0
DWIDTH 10 0
BBX 9 15 1 -1
BITMAP
0000000310
0000000C20
0000001D00
0000004900
0000007600
000000B200
000000D000
052003A000
AC70066000
03C00A2000
00C20C0000
00772A0000
001C670000
000AB30000
0005E00000
ENDCHAR
STARTCHAR infinity
ENCODING 8734
SWIDTH 600 0
DWIDTH 10 0
BBX 10 5 0 3
BITMAP
3CE805DE90
C41B9B21B6
E003F20069
D51A8C21B6
3DE506DE90
ENDCHAR
STARTCHAR orthogonal
ENCODING 8735
SWIDTH 600 0
DWIDTH 10 0
BBX 8 8 1 2
BITMAP
22000000
96000000
96000000
96000000
96000000
96000000
96000000
9FFFFFF3
ENDCHAR
STARTCHAR intersection
ENCODING 8745
SWIDTH 600 0
DWIDTH 10 0
BBX 7 7 1 2
BITMAP
02BED800
1D612B80
5B0002D0
790000F0
780000E0
780000E0
780000E0
ENDCHAR
STARTCHAR integral
ENCODING 8747
SWIDTH 600 0
DWIDTH 10 0
BBX 4 16 3 -3
BITMAP
01CE
0990
0C50
0D40
0D40
0C50
0B60
0980
0790
06B0
05C0
04D0
03D0
04C0
0890
DD20
ENDCHAR
STARTCHAR uni2237
ENCODING 8759
SWIDTH 600 0
DWIDTH 10 0
BBX 9 9 0 1
BITMAP
007E302D90
00FF608FC0
00CC105E50
0000000000
0000000000
0000000000
09E203E700
2FF40AFB00
0DB007E400
ENDCHAR
STARTCHAR approxequal
ENCODING 8776
SWIDTH 600 0
DWIDTH 10 0
BBX 8 6 1 2
BITMAP
1BEB31B2
8716DE70
00000000
00000000
1BEB31B2
8716DE70
ENDCHAR
STARTCHAR notequal
ENCODING 8800
SWIDTH 600 0
DWIDTH 10 0
BBX 8 8 1 1
BITMAP
00000770
00002C00
9FFFFFF3
0004A000
002C1000
9FFFFFF3
04A00000
0C200000
ENDCHAR
STARTCHAR equivalence
ENCODING 8801
SWIDTH 600 0
DWIDTH 10 0
BBX 8 7 1 2
BITMAP
9FFFFFF3
00000000
00000000
9FFFFFF3
00000000
00000000
9FFFFFF3
ENDCHAR
STARTCHAR lessequal
ENCODING 8804
SWIDTH 600 0
DWIDTH 10 0
BBX 8 9 1 0
BITMAP
00000041
00028DB2
16CC7200
9E500000
16CC7200
00028DB2
00000041
00000000
9FFFFFF3
ENDCHAR
STARTCHAR greaterequal
ENCODING 8805
SWIDTH 600 0
DWIDTH 10 0
BBX 8 9 1 0
BITMAP
42000000
5DB61000
0049D940
000019F3
0049D940
5DB61000
42000000
00000000
9FFFFFF3
ENDCHAR
STARTCHAR house
ENCODING 8962
SWIDTH 600 0
DWIDTH 10 0
BBX 9 10 0 0
BITMAP
0002EB0000
001D6C7000
009A02E300
06D1005D10
2E300009A0
3D000004C0
3D000004C0
3D000004C0
3D000004C0
3FFFFFFFC0
ENDCHAR
STARTCHAR revlogicalnot
ENCODING 8976
SWIDTH 600 0
DWIDTH 10 0
BBX 8 5 1 1
BITMAP
9FFFFFF3
96000000
96000000
96000000
11000000
ENDCHAR
STARTCHAR uni231C
ENCODING 8988
SWIDTH 600 0
DWIDTH 10 0
BBX 8 12 2 -1
BITMAP
005FFFF1
00870000
00A40000
00D10000
01D00000
04A00000
07700000
0A400000
0D100000
1E000000
4B000000
45000000
ENDCHAR
STARTCHAR uni231D
ENCODING 8989
SWIDTH 600 0
DWIDTH 10 0
BBX 6 12 2 -1
BITMAP
1FFFF4
0000D1
0001D0
0004A0
000770
000A40
000D10
001D00
004A00
007700
00A400
008100
ENDCHAR
STARTCHAR uni231E
ENCODING 8990
SWIDTH 600 0
DWIDTH 10 0
BBX 5 12 2 -1
BITMAP
002200
009500
00C200
00E000
03B000
068000
095000
0C2000
0E0000
2B0000
580000
8FFFC0
ENDCHAR
STARTCHAR uni231F
ENCODING 8991
SWIDTH 600 0
DWIDTH 10 0
BBX 7 12 0 -1
BITMAP
00000040
000000E0
000003C0
00000690
00000960
00000C30
00000E00
00003C00
00006900
00009600
0000C300
6FFFF000
ENDCHAR
STARTCHAR integraltp
ENCODING 8992
SWIDTH 600 0
DWIDTH 10 0
BBX 4 19 4 -6
BITMAP
1BF1
7B10
A700
B600
B600
B600
B600
B600
B600
B600
B600
B600
B600
B600
B600
B600
B600
B600
B600
ENDCHAR
STARTCHAR integralbt
ENCODING 8993
SWIDTH 600 0
DWIDTH 10 0
BBX 4 19 2 -3
BITMAP
0063
00B6
00B6
00B6
00B6
00B6
00B6
00B6
00B6
00B6
00B6
00B6
00B6
00B6
00B6
00B6
00C5
02E2
6E70
ENDCHAR
STARTCHAR uni2500
ENCODING 9472
SWIDTH 600 0
DWIDTH 10 0
BBX 12 1 -1 4
BITMAP
9FFFFFFFFFF3
ENDCHAR
STARTCHAR uni2501
ENCODING 9473
SWIDTH 600 0
DWIDTH 10 0
BBX 12 3 -1 3
BITMAP
9FFFFFFFFFF3
9FFFFFFFFFF3
9FFFFFFFFFF3
ENDCHAR
STARTCHAR uni2502
ENCODING 9474
SWIDTH 600 0
DWIDTH 10 0
BBX 2 22 4 -6
BITMAP
C6
C6
C6
C6
C6
C6
C6
C6
C6
C6
C6
C6
C6
C6
C6
C6
C6
C6
C6
C6
C6
C6
ENDCHAR
STARTCHAR uni2503
ENCODING 9475
SWIDTH 600 0
DWIDTH 10 0
BBX 4 22 3 -6
BITMAP
7FF1
7FF1
7FF1
7FF1
7FF1
7FF1
7FF1
7FF1
7FF1
7FF1
7FF1
7FF1
7FF1
7FF1
7FF1
7FF1
7FF1
7FF1
7FF1
7FF1
7FF1
7FF1
ENDCHAR
STARTCHAR uni2504
ENCODING 9476
SWIDTH 600 0
DWIDTH 10 0
BBX 10 1 0 4
BITMAP
7FA4FD1FF1
ENDCHAR
STARTCHAR uni2505
ENCODING 9477
SWIDTH 600 0
DWIDTH 10 0
BBX 10 3 0 3
BITMAP
7FA4FD1FF1
7FA4FD1FF1
7FA4FD1FF1
ENDCHAR
STARTCHAR uni2506
ENCODING 9478
SWIDTH 600 0
DWIDTH 10 0
BBX 2 17 4 -4
BITMAP
C6
C6
C6
C6
00
00
B6
C6
C6
C6
42
00
73
C6
C6
C6
95
ENDCHAR
STARTCHAR uni2507
ENCODING 9479
SWIDTH 600 0
DWIDTH 10 0
BBX 4 17 3 -4
BITMAP
7FF1
7FF1
7FF1
7FF1
0000
0000
7FF1
7FF1
7FF1
7FF1
0000
0000
0000
7FF1
7FF1
7FF1
7FF1
ENDCHAR
STARTCHAR uni2508
ENCODING 9480
SWIDTH 600 0
DWIDTH 10 0
BBX 10 1 0 4
BITMAP
BF6F8DD8F4
ENDCHAR
STARTCHAR uni2509
ENCODING 9481
SWIDTH 600 0
DWIDTH 10 0
BBX 10 3 0 3
BITMAP
BF6F8DD8F4
BF6F8DD8F4
BF6F8DD8F4
ENDCHAR
STARTCHAR uni250A
ENCODING 9482
SWIDTH 600 0
DWIDTH 10 0
BBX 2 18 4 -4
BITMAP
C6
C6
C6
C6
00
C6
C6
C6
C6
00
C6
C6
C6
C6
C6
C6
C6
C6
ENDCHAR
STARTCHAR uni250B
ENCODING 9483
SWIDTH 600 0
DWIDTH 10 0
BBX 4 18 3 -4
BITMAP
7FF1
7FF1
7FF1
7FF1
0000
7FF1
7FF1
7FF1
7FF1
0000
7FF1
7FF1
7FF1
7FF1
7FF1
7FF1
7FF1
7FF1
ENDCHAR
STARTCHAR uni250C
ENCODING 9484
SWIDTH 600 0
DWIDTH 10 0
BBX 7 12 4 -7
BITMAP
CFFFFF30
C6000000
C6000000
C6000000
C6000000
C6000000
C6000000
C6000000
C6000000
C6000000
C6000000
74000000
ENDCHAR
STARTCHAR uni250D
ENCODING 9485
SWIDTH 600 0
DWIDTH 10 0
BBX 7 13 4 -7
BITMAP
CFFFFF30
CFFFFF30
CFFFFF30
C6000000
C6000000
C6000000
C6000000
C6000000
C6000000
C6000000
C6000000
C6000000
C6000000
ENDCHAR
STARTCHAR uni250E
ENCODING 9486
SWIDTH 600 0
DWIDTH 10 0
BBX 8 12 3 -7
BITMAP
7FFFFFF3
7FF10000
7FF10000
7FF10000
7FF10000
7FF10000
7FF10000
7FF10000
7FF10000
7FF10000
7FF10000
49900000
ENDCHAR
STARTCHAR uni250F
ENCODING 9487
SWIDTH 600 0
DWIDTH 10 0
BBX 8 13 3 -7
BITMAP
7FFFFFF3
7FFFFFF3
7FFFFFF3
7FF10000
7FF10000
7FF10000
7FF10000
7FF10000
7FF10000
7FF10000
7FF10000
7FF10000
6EE10000
ENDCHAR
STARTCHAR uni2510
ENCODING 9488
SWIDTH 600 0
DWIDTH 10 0
BBX 7 12 -1 -7
BITMAP
9FFFFF60
00000C60
00000C60
00000C60
00000C60
00000C60
00000C60
00000C60
00000C60
00000C60
00000C60
00000740
ENDCHAR
STARTCHAR uni2511
ENCODING 9489
SWIDTH 600 0
DWIDTH 10 0
BBX 7 13 -1 -7
BITMAP
9FFFFF60
9FFFFF60
9FFFFF60
00000C60
00000C60
00000C60
00000C60
00000C60
00000C60
00000C60
00000C60
00000C60
00000C60
ENDCHAR
STARTCHAR uni2512
ENCODING 9490
SWIDTH 600 0
DWIDTH 10 0
BBX 8 12 -1 -7
BITMAP
9FFFFFF1
00007FF1
00007FF1
00007FF1
00007FF1
00007FF1
00007FF1
00007FF1
00007FF1
00007FF1
00007FF1
00004990
ENDCHAR
STARTCHAR uni2513
ENCODING 9491
SWIDTH 600 0
DWIDTH 10 0
BBX 8 13 -1 -7
BITMAP
9FFFFFF1
9FFFFFF1
9FFFFFF1
00007FF1
00007FF1
00007FF1
00007FF1
00007FF1
00007FF1
00007FF1
00007FF1
00007FF1
00006EE1
ENDCHAR
STARTCHAR uni2514
ENCODING 9492
SWIDTH 600 0
DWIDTH 10 0
BBX 7 12 4 4
BITMAP
74000000
C6000000
C6000000
C6000000
C6000000
C6000000
C6000000
C6000000
C6000000
C6000000
C6000000
CFFFFF30
ENDCHAR
STARTCHAR uni2515
ENCODING 9493
SWIDTH 600 0
DWIDTH 10 0
BBX 7 13 4 3
BITMAP
C6000000
C6000000
C6000000
C6000000
C6000000
C6000000
C6000000
C6000000
C6000000
C6000000
CFFFFF30
CFFFFF30
CFFFFF30
ENDCHAR
STARTCHAR uni2516
ENCODING 9494
SWIDTH 600 0
DWIDTH 10 0
BBX 8 12 3 4
BITMAP
49900000
7FF10000
7FF10000
7FF10000
7FF10000
7FF10000
7FF10000
7FF10000
7FF10000
7FF10000
7FF10000
7FFFFFF3
ENDCHAR
STARTCHAR uni2517
ENCODING 9495
SWIDTH 600 0
DWIDTH 10 0
BBX 8 13 3 3
BITMAP
6EE10000
7FF10000
7FF10000
7FF10000
7FF10000
7FF10000
7FF10000
7FF10000
7FF10000
7FF10000
7FFFFFF3
7FFFFFF3
7FFFFFF3
ENDCHAR
STARTCHAR uni2518
ENCODING 9496
SWIDTH 600 0
DWIDTH 10 0
BBX 7 12 -1 4
BITMAP
00000740
00000C60
00000C60
00000C60
00000C60
00000C60
00000C60
00000C60
00000C60
00000C60
00000C60
9FFFFF60
ENDCHAR
STARTCHAR uni2519
ENCODING 9497
SWIDTH 600 0
DWIDTH 10 0
BBX 7 13 -1 3
BITMAP
00000C60
00000C60
00000C60
00000C60
00000C60
00000C60
00000C60
00000C60
00000C60
00000C60
9FFFFF60
9FFFFF60
9FFFFF60
ENDCHAR
STARTCHAR uni251A
ENCODING 9498
SWIDTH 600 0
DWIDTH 10 0
BBX 8 12 -1 4
BITMAP
00004990
00007FF1
00007FF1
00007FF1
00007FF1
00007FF1
00007FF1
00007FF1
00007FF1
00007FF1
00007FF1
9FFFFFF1
ENDCHAR
STARTCHAR uni251B
ENCODING 9499
SWIDTH 600 0
DWIDTH 10 0
BBX 8 13 -1 3
BITMAP
00006EE1
00007FF1
00007FF1
00007FF1
00007FF1
00007FF1
00007FF1
00007FF1
00007FF1
00007FF1
9FFFFFF1
9FFFFFF1
9FFFFFF1
ENDCHAR
STARTCHAR uni251C
ENCODING 9500
SWIDTH 600 0
DWIDTH 10 0
BBX 7 23 4 -7
BITMAP
74000000
C6000000
C6000000
C6000000
C6000000
C6000000
C6000000
C6000000
C6000000
C6000000
C6000000
CFFFFF30
C6000000
C6000000
C6000000
C6000000
C6000000
C6000000
C6000000
C6000000
C6000000
C6000000
74000000
ENDCHAR
STARTCHAR uni251D
ENCODING 9501
SWIDTH 600 0
DWIDTH 10 0
BBX 7 23 4 -7
BITMAP
C6000000
C6000000
C6000000
C6000000
C6000000
C6000000
C6000000
C6000000
C6000000
C6000000
CFFFFF30
CFFFFF30
CFFFFF30
C6000000
C6000000
C6000000
C6000000
C6000000
C6000000
C6000000
C6000000
C6000000
C6000000
ENDCHAR
STARTCHAR uni251E
ENCODING 9502
SWIDTH 600 0
DWIDTH 10 0
BBX 8 23 3 -7
BITMAP
49900000
7FF10000
7FF10000
7FF10000
7FF10000
7FF10000
7FF10000
7FF10000
7FF10000
7FF10000
7FF10000
7FFFFFF3
0C600000
0C600000
0C600000
0C600000
0C600000
0C600000
0C600000
0C600000
0C600000
0C600000
07400000
ENDCHAR
STARTCHAR uni251F
ENCODING 9503
SWIDTH 600 0
DWIDTH 10 0
BBX 8 23 3 -7
BITMAP
07400000
0C600000
0C600000
0C600000
0C600000
0C600000
0C600000
0C600000
0C600000
0C600000
0C600000
7FFFFFF3
7FF10000
7FF10000
7FF10000
7FF10000
7FF10000
7FF10000
7FF10000
7FF10000
7FF10000
7FF10000
49900000
ENDCHAR
STARTCHAR uni2520
ENCODING 9504
SWIDTH 600 0
DWIDTH 10 0
BBX 8 23 3 -7
BITMAP
49900000
7FF10000
7FF10000
7FF10000
7FF10000
7FF10000
7FF10000
7FF10000
7FF10000
7FF10000
7FF10000
7FFFFFF3
7FF10000
7FF10000
7FF10000
7FF10000
7FF10000
7FF10000
7FF10000
7FF10000
7FF10000
7FF10000
49900000
ENDCHAR
STARTCHAR uni2521
ENCODING 9505
SWIDTH 600 0
DWIDTH 10 0
BBX 8 23 3 -7
BITMAP
6EE10000
7FF10000
7FF10000
7FF10000
7FF10000
7FF10000
7FF10000
7FF10000
7FF10000
7FF10000
7FFFFFF3
7FFFFFF3
7FFFFFF3
0C600000
0C600000
0C600000
0C600000
0C600000
0C600000
0C600000
0C600000
0C600000
0C600000
ENDCHAR
STARTCHAR uni2522
ENCODING 9506
SWIDTH 600 0
DWIDTH 10 0
BBX 8 23 3 -7
BITMAP
0C600000
0C600000
0C600000
0C600000
0C600000
0C600000
0C600000
0C600000
0C600000
0C600000
7FFFFFF3
7FFFFFF3
7FFFFFF3
7FF10000
7FF10000
7FF10000
7FF10000
7FF10000
7FF10000
7FF10000
7FF10000
7FF10000
6EE10000
ENDCHAR
STARTCHAR uni2523
ENCODING 9507
SWIDTH 600 0
DWIDTH 10 0
BBX 8 23 3 -7
BITMAP
6EE10000
7FF10000
7FF10000
7FF10000
7FF10000
7FF10000
7FF10000
7FF10000
7FF10000
7FF10000
7FFFFFF3
7FFFFFF3
7FFFFFF3
7FF10000
7FF10000
7FF10000
7FF10000
7FF10000
7FF10000
7FF10000
7FF10000
7FF10000
6EE10000
ENDCHAR
STARTCHAR uni2524
ENCODING 9508
SWIDTH 600 0
DWIDTH 10 0
BBX 7 23 -1 -7
BITMAP
00000740
00000C60
00000C60
00000C60
00000C60
00000C60
00000C60
00000C60
00000C60
00000C60
00000C60
9FFFFF60
00000C60
00000C60
00000C60
00000C60
00000C60
00000C60
00000C60
00000C60
00000C60
00000C60
00000740
ENDCHAR
STARTCHAR uni2525
ENCODING 9509
SWIDTH 600 0
DWIDTH 10 0
BBX 7 23 -1 -7
BITMAP
00000C60
00000C60
00000C60
00000C60
00000C60
00000C60
00000C60
00000C60
00000C60
00000C60
9FFFFF60
9FFFFF60
9FFFFF60
00000C60
00000C60
00000C60
00000C60
00000C60
00000C60
00000C60
00000C60
00000C60
00000C60
ENDCHAR
STARTCHAR uni2526
ENCODING 9510
SWIDTH 600 0
DWIDTH 10 0
BBX 8 23 -1 -7
BITMAP
00004990
00007FF1
00007FF1
00007FF1
00007FF1
00007FF1
00007FF1
00007FF1
00007FF1
00007FF1
00007FF1
9FFFFFF1
00000C60
00000C60
00000C60
00000C60
00000C60
00000C60
00000C60
00000C60
00000C60
00000C60
00000740
ENDCHAR
STARTCHAR uni2527
ENCODING 9511
SWIDTH 600 0
DWIDTH 10 0
BBX 8 23 -1 -7
BITMAP
00000740
00000C60
00000C60
00000C60
00000C60
00000C60
00000C60
00000C60
00000C60
00000C60
00000C60
9FFFFFF1
00007FF1
00007FF1
00007FF1
00007FF1
00007FF1
00007FF1
00007FF1
00007FF1
00007FF1
00007FF1
00004990
ENDCHAR
STARTCHAR uni2528
ENCODING 9512
SWIDTH 600 0
DWIDTH 10 0
BBX 8 23 -1 -7
BITMAP
00004990
00007FF1
00007FF1
00007FF1
00007FF1
00007FF1
00007FF1
00007FF1
00007FF1
00007FF1
00007FF1
9FFFFFF1
00007FF1
00007FF1
00007FF1
00007FF1
00007FF1
00007FF1
00007FF1
00007FF1
00007FF1
00007FF1
00004990
ENDCHAR
STARTCHAR uni2529
ENCODING 9513
SWIDTH 600 0
DWIDTH 10 0
BBX 8 23 -1 -7
BITMAP
00006EE1
00007FF1
00007FF1
00007FF1
00007FF1
00007FF1
00007FF1
00007FF1
00007FF1
00007FF1
9FFFFFF1
9FFFFFF1
9FFFFFF1
00000C60
00000C60
00000C60
00000C60
00000C60
00000C60
00000C60
00000C60
00000C60
00000C60
ENDCHAR
STARTCHAR uni252A
ENCODING 9514
SWIDTH 600 0
DWIDTH 10 0
BBX 8 23 -1 -7
BITMAP
00000C60
00000C60
00000C60
00000C60
00000C60
00000C60
00000C60
00000C60
00000C60
00000C60
9FFFFFF1
9FFFFFF1
9FFFFFF1
00007FF1
00007FF1
00007FF1
00007FF1
00007FF1
00007FF1
00007FF1
00007FF1
00007FF1
00006EE1
ENDCHAR
STARTCHAR uni252B
ENCODING 9515
SWIDTH 600 0
DWIDTH 10 0
BBX 8 23 -1 -7
BITMAP
00006EE1
00007FF1
00007FF1
00007FF1
00007FF1
00007FF1
00007FF1
00007FF1
00007FF1
00007FF1
9FFFFFF1
9FFFFFF1
9FFFFFF1
00007FF1
00007FF1
00007FF1
00007FF1
00007FF1
00007FF1
00007FF1
00007FF1
00007FF1
00006EE1
ENDCHAR
STARTCHAR uni252C
ENCODING 9516
SWIDTH 600 0
DWIDTH 10 0
BBX 12 12 -1 -7
BITMAP
9FFFFFFFFFF3
00000C600000
00000C600000
00000C600000
00000C600000
00000C600000
00000C600000
00000C600000
00000C600000
00000C600000
00000C600000
000007400000
ENDCHAR
STARTCHAR uni252D
ENCODING 9517
SWIDTH 600 0
DWIDTH 10 0
BBX 12 13 -1 -7
BITMAP
9FFFFF600000
9FFFFFFFFFF3
9FFFFF600000
00000C600000
00000C600000
00000C600000
00000C600000
00000C600000
00000C600000
00000C600000
00000C600000
00000C600000
00000C600000
ENDCHAR
STARTCHAR uni252E
ENCODING 9518
SWIDTH 600 0
DWIDTH 10 0
BBX 12 13 -1 -7
BITMAP
00000CFFFFF3
9FFFFFFFFFF3
00000CFFFFF3
00000C600000
00000C600000
00000C600000
00000C600000
00000C600000
00000C600000
00000C600000
00000C600000
00000C600000
00000C600000
ENDCHAR
STARTCHAR uni252F
ENCODING 9519
SWIDTH 600 0
DWIDTH 10 0
BBX 12 13 -1 -7
BITMAP
9FFFFFFFFFF3
9FFFFFFFFFF3
9FFFFFFFFFF3
00000C600000
00000C600000
00000C600000
00000C600000
00000C600000
00000C600000
00000C600000
00000C600000
00000C600000
00000C600000
ENDCHAR
STARTCHAR uni2530
ENCODING 9520
SWIDTH 600 0
DWIDTH 10 0
BBX 12 12 -1 -7
BITMAP
9FFFFFFFFFF3
00007FF10000
00007FF10000
00007FF10000
00007FF10000
00007FF10000
00007FF10000
00007FF10000
00007FF10000
00007FF10000
00007FF10000
000049900000
ENDCHAR
STARTCHAR uni2531
ENCODING 9521
SWIDTH 600 0
DWIDTH 10 0
BBX 12 13 -1 -7
BITMAP
9FFFFFF10000
9FFFFFFFFFF3
9FFFFFF10000
00007FF10000
00007FF10000
00007FF10000
00007FF10000
00007FF10000
00007FF10000
00007FF10000
00007FF10000
00007FF10000
00006EE10000
ENDCHAR
STARTCHAR uni2532
ENCODING 9522
SWIDTH 600 0
DWIDTH 10 0
BBX 12 13 -1 -7
BITMAP
00007FFFFFF3
9FFFFFFFFFF3
00007FFFFFF3
00007FF10000
00007FF10000
00007FF10000
00007FF10000
00007FF10000
00007FF10000
00007FF10000
00007FF10000
00007FF10000
00006EE10000
ENDCHAR
STARTCHAR uni2533
ENCODING 9523
SWIDTH 600 0
DWIDTH 10 0
BBX 12 13 -1 -7
BITMAP
9FFFFFFFFFF3
9FFFFFFFFFF3
9FFFFFFFFFF3
00007FF10000
00007FF10000
00007FF10000
00007FF10000
00007FF10000
00007FF10000
00007FF10000
00007FF10000
00007FF10000
00006EE10000
ENDCHAR
STARTCHAR uni2534
ENCODING 9524
SWIDTH 600 0
DWIDTH 10 0
BBX 12 12 -1 4
BITMAP
000007400000
00000C600000
00000C600000
00000C600000
00000C600000
00000C600000
00000C600000
00000C600000
00000C600000
00000C600000
00000C600000
9FFFFFFFFFF3
ENDCHAR
STARTCHAR uni2535
ENCODING 9525
SWIDTH 600 0
DWIDTH 10 0
BBX 12 13 -1 3
BITMAP
00000C600000
00000C600000
00000C600000
00000C600000
00000C600000
00000C600000
00000C600000
00000C600000
00000C600000
00000C600000
9FFFFF600000
9FFFFFFFFFF3
9FFFFF600000
ENDCHAR
STARTCHAR uni2536
ENCODING 9526
SWIDTH 600 0
DWIDTH 10 0
BBX 12 13 -1 3
BITMAP
00000C600000
00000C600000
00000C600000
00000C600000
00000C600000
00000C600000
00000C600000
00000C600000
00000C600000
00000C600000
00000CFFFFF3
9FFFFFFFFFF3
00000CFFFFF3
ENDCHAR
STARTCHAR uni2537
ENCODING 9527
SWIDTH 600 0
DWIDTH 10 0
BBX 12 13 -1 3
BITMAP
00000C600000
00000C600000
00000C600000
00000C600000
00000C600000
00000C600000
00000C600000
00000C600000
00000C600000
00000C600000
9FFFFFFFFFF3
9FFFFFFFFFF3
9FFFFFFFFFF3
ENDCHAR
STARTCHAR uni2538
ENCODING 9528
SWIDTH 600 0
DWIDTH 10 0
BBX 12 12 -1 4
BITMAP
000049900000
00007FF10000
00007FF10000
00007FF10000
00007FF10000
00007FF10000
00007FF10000
00007FF10000
00007FF10000
00007FF10000
00007FF10000
9FFFFFFFFFF3
ENDCHAR
STARTCHAR uni2539
ENCODING 9529
SWIDTH 600 0
DWIDTH 10 0
BBX 12 13 -1 3
BITMAP
00006EE10000
00007FF10000
00007FF10000
00007FF10000
00007FF10000
00007FF10000
00007FF10000
00007FF10000
00007FF10000
00007FF10000
9FFFFFF10000
9FFFFFFFFFF3
9FFFFFF10000
ENDCHAR
STARTCHAR uni253A
ENCODING 9530
SWIDTH 600 0
DWIDTH 10 0
BBX 12 13 -1 3
BITMAP
00006EE10000
00007FF10000
00007FF10000
00007FF10000
00007FF10000
00007FF10000
00007FF10000
00007FF10000
00007FF10000
00007FF10000
00007FFFFFF3
9FFFFFFFFFF3
00007FFFFFF3
ENDCHAR
STARTCHAR uni253B
ENCODING 9531
SWIDTH 600 0
DWIDTH 10 0
BBX 12 13 -1 3
BITMAP
00006EE10000
00007FF10000
00007FF10000
00007FF10000
00007FF10000
00007FF10000
00007FF10000
00007FF10000
00007FF10000
00007FF10000
9FFFFFFFFFF3
9FFFFFFFFFF3
9FFFFFFFFFF3
ENDCHAR
STARTCHAR uni253C
ENCODING 9532
SWIDTH 600 0
DWIDTH 10 0
BBX 12 23 -1 -7
BITMAP
000007400000
00000C600000
00000C600000
00000C600000
00000C600000
00000C600000
00000C600000
00000C600000
00000C600000
00000C600000
00000C600000
9FFFFFFFFFF3
00000C600000
00000C600000
00000C600000
00000C600000
00000C600000
00000C600000
00000C600000
00000C600000
00000C600000
00000C600000
000007400000
ENDCHAR
STARTCHAR uni253D
ENCODING 9533
SWIDTH 600 0
DWIDTH 10 0
BBX 12 23 -1 -7
BITMAP
00000C600000
00000C600000
00000C600000
00000C600000
00000C600000
00000C600000
00000C600000
00000C600000
00000C600000
00000C600000
9FFFFF600000
9FFFFFFFFFF3
9FFFFF600000
00000C600000
00000C600000
00000C600000
00000C600000
00000C600000
00000C600000
00000C600000
00000C600000
00000C600000
00000C600000
ENDCHAR
STARTCHAR uni253E
ENCODING 9534
SWIDTH 600 0
DWIDTH 10 0
BBX 12 23 -1 -7
BITMAP
00000C600000
00000C600000
00000C600000
00000C600000
00000C600000
00000C600000
00000C600000
00000C600000
00000C600000
00000C600000
00000CFFFFF3
9FFFFFFFFFF3
00000CFFFFF3
00000C600000
00000C600000
00000C600000
00000C600000
00000C600000
00000C600000
00000C600000
00000C600000
00000C600000
00000C600000
ENDCHAR
STARTCHAR uni253F
ENCODING 9535
SWIDTH 600 0
DWIDTH 10 0
BBX 12 23 -1 -7
BITMAP
00000C600000
00000C600000
00000C600000
00000C600000
00000C600000
00000C600000
00000C600000
00000C600000
00000C600000
00000C600000
9FFFFFFFFFF3
9FFFFFFFFFF3
9FFFFFFFFFF3
00000C600000
00000C600000
00000C600000
00000C600000
00000C600000
00000C600000
00000C600000
00000C600000
00000C600000
00000C600000
ENDCHAR
STARTCHAR uni2540
ENCODING 9536
SWIDTH 600 0
DWIDTH 10 0
BBX 12 23 -1 -7
BITMAP
000049900000
00007FF10000
00007FF10000
00007FF10000
00007FF10000
00007FF10000
00007FF10000
00007FF10000
00007FF10000
00007FF10000
00007FF10000
9FFFFFFFFFF3
00000C600000
00000C600000
00000C600000
00000C600000
00000C600000
00000C600000
00000C600000
00000C600000
00000C600000
00000C600000
000007400000
ENDCHAR
STARTCHAR uni2541
ENCODING 9537
SWIDTH 600 0
DWIDTH 10 0
BBX 12 23 -1 -7
BITMAP
000007400000
00000C600000
00000C600000
00000C600000
00000C600000
00000C600000
00000C600000
00000C600000
00000C600000
00000C600000
00000C600000
9FFFFFFFFFF3
00007FF10000
00007FF10000
00007FF10000
00007FF10000
00007FF10000
00007FF10000
00007FF10000
00007FF10000
00007FF10000
00007FF10000
000049900000
ENDCHAR
STARTCHAR uni2542
ENCODING 9538
SWIDTH 600 0
DWIDTH 10 0
BBX 12 23 -1 -7
BITMAP
000049900000
00007FF10000
00007FF10000
00007FF10000
00007FF10000
00007FF10000
00007FF10000
00007FF10000
00007FF10000
00007FF10000
00007FF10000
9FFFFFFFFFF3
00007FF10000
00007FF10000
00007FF10000
00007FF10000
00007FF10000
00007FF10000
00007FF10000
00007FF10000
00007FF10000
00007FF10000
000049900000
ENDCHAR
STARTCHAR uni2543
ENCODING 9539
SWIDTH 600 0
DWIDTH 10 0
BBX 12 23 -1 -7
BITMAP
00006EE10000
00007FF10000
00007FF10000
00007FF10000
00007FF10000
00007FF10000
00007FF10000
00007FF10000
00007FF10000
00007FF10000
9FFFFFF10000
9FFFFFFFFFF3
9FFFFFF10000
00000C600000
00000C600000
00000C600000
00000C600000
00000C600000
00000C600000
00000C600000
00000C600000
00000C600000
00000C600000
ENDCHAR
STARTCHAR uni2544
ENCODING 9540
SWIDTH 600 0
DWIDTH 10 0
BBX 12 23 -1 -7
BITMAP
00006EE10000
00007FF10000
00007FF10000
00007FF10000
00007FF10000
00007FF10000
00007FF10000
00007FF10000
00007FF10000
00007FF10000
00007FFFFFF3
9FFFFFFFFFF3
00007FFFFFF3
00000C600000
00000C600000
00000C600000
00000C600000
00000C600000
00000C600000
00000C600000
00000C600000
00000C600000
00000C600000
ENDCHAR
STARTCHAR uni2545
ENCODING 9541
SWIDTH 600 0
DWIDTH 10 0
BBX 12 23 -1 -7
BITMAP
00000C600000
00000C600000
00000C600000
00000C600000
00000C600000
00000C600000
00000C600000
00000C600000
00000C600000
00000C600000
9FFFFFF10000
9FFFFFFFFFF3
9FFFFFF10000
00007FF10000
00007FF10000
00007FF10000
00007FF10000
00007FF10000
00007FF10000
00007FF10000
00007FF10000
00007FF10000
00006EE10000
ENDCHAR
STARTCHAR uni2546
ENCODING 9542
SWIDTH 600 0
DWIDTH 10 0
BBX 12 23 -1 -7
BITMAP
00000C600000
00000C600000
00000C600000
00000C600000
00000C600000
00000C600000
00000C600000
00000C600000
00000C600000
00000C600000
00007FFFFFF3
9FFFFFFFFFF3
00007FFFFFF3
00007FF10000
00007FF10000
00007FF10000
00007FF10000
00007FF10000
00007FF10000
00007FF10000
00007FF10000
00007FF10000
00006EE10000
ENDCHAR
STARTCHAR uni2547
ENCODING 9543
SWIDTH 600 0
DWIDTH 10 0
BBX 12 23 -1 -7
BITMAP
00006EE10000
00007FF10000
00007FF10000
00007FF10000
00007FF10000
00007FF10000
00007FF10000
00007FF10000
00007FF10000
00007FF10000
9FFFFFFFFFF3
9FFFFFFFFFF3
9FFFFFFFFFF3
00000C600000
00000C600000
00000C600000
00000C600000
00000C600000
00000C600000
00000C600000
00000C600000
00000C600000
00000C600000
ENDCHAR
STARTCHAR uni2548
ENCODING 9544
SWIDTH 600 0
DWIDTH 10 0
BBX 12 23 -1 -7
BITMAP
00000C600000
00000C600000
00000C600000
00000C600000
00000C600000
00000C600000
00000C600000
00000C600000
00000C600000
00000C600000
9FFFFFFFFFF3
9FFFFFFFFFF3
9FFFFFFFFFF3
00007FF10000
00007FF10000
00007FF10000
00007FF10000
00007FF10000
00007FF10000
00007FF10000
00007FF10000
00007FF10000
00006EE10000
ENDCHAR
STARTCHAR uni2549
ENCODING 9545
SWIDTH 600 0
DWIDTH 10 0
BBX 12 23 -1 -7
BITMAP
00006EE10000
00007FF10000
00007FF10000
00007FF10000
00007FF10000
00007FF10000
00007FF10000
00007FF10000
00007FF10000
00007FF10000
9FFFFFF10000
9FFFFFFFFFF3
9FFFFFF10000
00007FF10000
00007FF10000
00007FF10000
00007FF10000
00007FF10000
00007FF10000
00007FF10000
00007FF10000
00007FF10000
00006EE10000
ENDCHAR
STARTCHAR uni254A
ENCODING 9546
SWIDTH 600 0
DWIDTH 10 0
BBX 12 23 -1 -7
BITMAP
00006EE10000
00007FF10000
00007FF10000
00007FF10000
00007FF10000
00007FF10000
00007FF10000
00007FF10000
00007FF10000
00007FF10000
00007FFFFFF3
9FFFFFFFFFF3
00007FFFFFF3
00007FF10000
00007FF10000
00007FF10000
00007FF10000
00007FF10000
00007FF10000
00007FF10000
00007FF10000
00007FF10000
00006EE10000
ENDCHAR
STARTCHAR uni254B
ENCODING 9547
SWIDTH 600 0
DWIDTH 10 0
BBX 12 23 -1 -7
BITMAP
00006EE10000
00007FF10000
00007FF10000
00007FF10000
00007FF10000
00007FF10000
00007FF10000
00007FF10000
00007FF10000
00007FF10000
9FFFFFFFFFF3
9FFFFFFFFFF3
9FFFFFFFFFF3
00007FF10000
00007FF10000
00007FF10000
00007FF10000
00007FF10000
00007FF10000
00007FF10000
00007FF10000
00007FF10000
00006EE10000
ENDCHAR
STARTCHAR uni254C
ENCODING 9548
SWIDTH 600 0
DWIDTH 10 0
BBX 8 1 1 4
BITMAP
CF900FF6
ENDCHAR
STARTCHAR uni254D
ENCODING 9549
SWIDTH 600 0
DWIDTH 10 0
BBX 8 3 1 3
BITMAP
CF900FF6
CF900FF6
CF900FF6
ENDCHAR
STARTCHAR uni254E
ENCODING 9550
SWIDTH 600 0
DWIDTH 10 0
BBX 2 14 4 -2
BITMAP
C6
C6
C6
C6
A5
00
00
00
00
A5
C6
C6
C6
C6
ENDCHAR
STARTCHAR uni254F
ENCODING 9551
SWIDTH 600 0
DWIDTH 10 0
BBX 4 15 3 -3
BITMAP
7FF1
7FF1
7FF1
7FF1
7FF1
0000
0000
0000
0000
3660
7FF1
7FF1
7FF1
7FF1
3660
ENDCHAR
STARTCHAR uni2550
ENCODING 9552
SWIDTH 600 0
DWIDTH 10 0
BBX 12 4 -1 3
BITMAP
9FFFFFFFFFF3
000000000000
000000000000
9FFFFFFFFFF3
ENDCHAR
STARTCHAR uni2551
ENCODING 9553
SWIDTH 600 0
DWIDTH 10 0
BBX 5 22 2 -6
BITMAP
1F39A0
1F39A0
1F39A0
1F39A0
1F39A0
1F39A0
1F39A0
1F39A0
1F39A0
1F39A0
1F39A0
1F39A0
1F39A0
1F39A0
1F39A0
1F39A0
1F39A0
1F39A0
1F39A0
1F39A0
1F39A0
1F39A0
ENDCHAR
STARTCHAR uni2552
ENCODING 9554
SWIDTH 600 0
DWIDTH 10 0
BBX 7 14 4 -7
BITMAP
CFFFFF30
C6000000
C6000000
CFFFFF30
C6000000
C6000000
C6000000
C6000000
C6000000
C6000000
C6000000
C6000000
C6000000
42000000
ENDCHAR
STARTCHAR uni2553
ENCODING 9555
SWIDTH 600 0
DWIDTH 10 0
BBX 9 12 2 -7
BITMAP
1FFFFFFF30
1F39A00000
1F39A00000
1F39A00000
1F39A00000
1F39A00000
1F39A00000
1F39A00000
1F39A00000
1F39A00000
1F39A00000
1915600000
ENDCHAR
STARTCHAR uni2554
ENCODING 9556
SWIDTH 600 0
DWIDTH 10 0
BBX 9 14 2 -7
BITMAP
1FFFFFFF30
1F30000000
1F30000000
1F39FFFF30
1F39A00000
1F39A00000
1F39A00000
1F39A00000
1F39A00000
1F39A00000
1F39A00000
1F39A00000
1C29A00000
0003300000
ENDCHAR
STARTCHAR uni2555
ENCODING 9557
SWIDTH 600 0
DWIDTH 10 0
BBX 7 14 -1 -7
BITMAP
9FFFFF60
00000C60
00000C60
9FFFFF60
00000C60
00000C60
00000C60
00000C60
00000C60
00000C60
00000C60
00000C60
00000C60
00000420
ENDCHAR
STARTCHAR uni2556
ENCODING 9558
SWIDTH 600 0
DWIDTH 10 0
BBX 8 12 -1 -7
BITMAP
9FFFFFFA
0001F39A
0001F39A
0001F39A
0001F39A
0001F39A
0001F39A
0001F39A
0001F39A
0001F39A
0001F39A
00019156
ENDCHAR
STARTCHAR uni2557
ENCODING 9559
SWIDTH 600 0
DWIDTH 10 0
BBX 8 14 -1 -7
BITMAP
9FFFFFFA
0000009A
0000009A
9FFFF39A
0001F39A
0001F39A
0001F39A
0001F39A
0001F39A
0001F39A
0001F39A
0001F39A
0001F378
00005100
ENDCHAR
STARTCHAR uni2558
ENCODING 9560
SWIDTH 600 0
DWIDTH 10 0
BBX 7 14 4 3
BITMAP
42000000
C6000000
C6000000
C6000000
C6000000
C6000000
C6000000
C6000000
C6000000
C6000000
CFFFFF30
C6000000
C6000000
CFFFFF30
ENDCHAR
STARTCHAR uni2559
ENCODING 9561
SWIDTH 600 0
DWIDTH 10 0
BBX 9 12 2 4
BITMAP
1915600000
1F39A00000
1F39A00000
1F39A00000
1F39A00000
1F39A00000
1F39A00000
1F39A00000
1F39A00000
1F39A00000
1F39A00000
1FFFFFFF30
ENDCHAR
STARTCHAR uni255A
ENCODING 9562
SWIDTH 600 0
DWIDTH 10 0
BBX 9 14 2 3
BITMAP
0003300000
1C29A00000
1F39A00000
1F39A00000
1F39A00000
1F39A00000
1F39A00000
1F39A00000
1F39A00000
1F39A00000
1F39FFFF30
1F30000000
1F30000000
1FFFFFFF30
ENDCHAR
STARTCHAR uni255B
ENCODING 9563
SWIDTH 600 0
DWIDTH 10 0
BBX 7 14 -1 3
BITMAP
00000420
00000C60
00000C60
00000C60
00000C60
00000C60
00000C60
00000C60
00000C60
00000C60
9FFFFF60
00000C60
00000C60
9FFFFF60
ENDCHAR
STARTCHAR uni255C
ENCODING 9564
SWIDTH 600 0
DWIDTH 10 0
BBX 8 12 -1 4
BITMAP
00019156
0001F39A
0001F39A
0001F39A
0001F39A
0001F39A
0001F39A
0001F39A
0001F39A
0001F39A
0001F39A
9FFFFFFA
ENDCHAR
STARTCHAR uni255D
ENCODING 9565
SWIDTH 600 0
DWIDTH 10 0
BBX 8 14 -1 3
BITMAP
00005100
0001F378
0001F39A
0001F39A
0001F39A
0001F39A
0001F39A
0001F39A
0001F39A
0001F39A
9FFFF39A
0000009A
0000009A
9FFFFFFA
ENDCHAR
STARTCHAR uni255E
ENCODING 9566
SWIDTH 600 0
DWIDTH 10 0
BBX 7 24 4 -7
BITMAP
42000000
C6000000
C6000000
C6000000
C6000000
C6000000
C6000000
C6000000
C6000000
C6000000
CFFFFF30
C6000000
C6000000
CFFFFF30
C6000000
C6000000
C6000000
C6000000
C6000000
C6000000
C6000000
C6000000
C6000000
42000000
ENDCHAR
STARTCHAR uni255F
ENCODING 9567
SWIDTH 600 0
DWIDTH 10 0
BBX 9 23 2 -7
BITMAP
1F35600000
1F39A00000
1F39A00000
1F39A00000
1F39A00000
1F39A00000
1F39A00000
1F39A00000
1F39A00000
1F39A00000
1F39A00000
1F39FFFF30
1F39A00000
1F39A00000
1F39A00000
1F39A00000
1F39A00000
1F39A00000
1F39A00000
1F39A00000
1F39A00000
1F39A00000
0615600000
ENDCHAR
STARTCHAR uni2560
ENCODING 9568
SWIDTH 600 0
DWIDTH 10 0
BBX 9 24 2 -7
BITMAP
0003300000
1F39A00000
1F39A00000
1F39A00000
1F39A00000
1F39A00000
1F39A00000
1F39A00000
1F39A00000
1F39A00000
1F39FFFF30
1F30000000
1F30000000
1F39FFFF30
1F39A00000
1F39A00000
1F39A00000
1F39A00000
1F39A00000
1F39A00000
1F39A00000
1F39A00000
1F39A00000
0613300000
ENDCHAR
STARTCHAR uni2561
ENCODING 9569
SWIDTH 600 0
DWIDTH 10 0
BBX 7 24 -1 -7
BITMAP
00000420
00000C60
00000C60
00000C60
00000C60
00000C60
00000C60
00000C60
00000C60
00000C60
9FFFFF60
00000C60
00000C60
9FFFFF60
00000C60
00000C60
00000C60
00000C60
00000C60
00000C60
00000C60
00000C60
00000C60
00000420
ENDCHAR
STARTCHAR uni2562
ENCODING 9570
SWIDTH 600 0
DWIDTH 10 0
BBX 8 23 -1 -7
BITMAP
0001919A
0001F39A
0001F39A
0001F39A
0001F39A
0001F39A
0001F39A
0001F39A
0001F39A
0001F39A
0001F39A
9FFFF39A
0001F39A
0001F39A
0001F39A
0001F39A
0001F39A
0001F39A
0001F39A
0001F39A
0001F39A
0001F39A
00019144
ENDCHAR
STARTCHAR uni2563
ENCODING 9571
SWIDTH 600 0
DWIDTH 10 0
BBX 8 24 -1 -7
BITMAP
00005100
0001F39A
0001F39A
0001F39A
0001F39A
0001F39A
0001F39A
0001F39A
0001F39A
0001F39A
9FFFF39A
0000009A
0000009A
9FFFF39A
0001F39A
0001F39A
0001F39A
0001F39A
0001F39A
0001F39A
0001F39A
0001F39A
0001F39A
00005144
ENDCHAR
STARTCHAR uni2564
ENCODING 9572
SWIDTH 600 0
DWIDTH 10 0
BBX 12 14 -1 -7
BITMAP
9FFFFFFFFFF3
000000000000
000000000000
9FFFFFFFFFF3
00000C600000
00000C600000
00000C600000
00000C600000
00000C600000
00000C600000
00000C600000
00000C600000
00000C600000
000004200000
ENDCHAR
STARTCHAR uni2565
ENCODING 9573
SWIDTH 600 0
DWIDTH 10 0
BBX 12 12 -1 -7
BITMAP
9FFFFFFFFFF3
0001F39A0000
0001F39A0000
0001F39A0000
0001F39A0000
0001F39A0000
0001F39A0000
0001F39A0000
0001F39A0000
0001F39A0000
0001F39A0000
000191560000
ENDCHAR
STARTCHAR uni2566
ENCODING 9574
SWIDTH 600 0
DWIDTH 10 0
BBX 12 14 -1 -7
BITMAP
9FFFFFFFFFF3
000000000000
000000000000
9FFFF39FFFF3
0001F39A0000
0001F39A0000
0001F39A0000
0001F39A0000
0001F39A0000
0001F39A0000
0001F39A0000
0001F39A0000
0001F39A0000
000051330000
ENDCHAR
STARTCHAR uni2567
ENCODING 9575
SWIDTH 600 0
DWIDTH 10 0
BBX 12 14 -1 3
BITMAP
000004200000
00000C600000
00000C600000
00000C600000
00000C600000
00000C600000
00000C600000
00000C600000
00000C600000
00000C600000
9FFFFFFFFFF3
000000000000
000000000000
9FFFFFFFFFF3
ENDCHAR
STARTCHAR uni2568
ENCODING 9576
SWIDTH 600 0
DWIDTH 10 0
BBX 12 12 -1 4
BITMAP
000191560000
0001F39A0000
0001F39A0000
0001F39A0000
0001F39A0000
0001F39A0000
0001F39A0000
0001F39A0000
0001F39A0000
0001F39A0000
0001F39A0000
9FFFFFFFFFF3
ENDCHAR
STARTCHAR uni2569
ENCODING 9577
SWIDTH 600 0
DWIDTH 10 0
BBX 12 14 -1 3
BITMAP
000051330000
0001F39A0000
0001F39A0000
0001F39A0000
0001F39A0000
0001F39A0000
0001F39A0000
0001F39A0000
0001F39A0000
0001F39A0000
9FFFF39FFFF3
000000000000
000000000000
9FFFFFFFFFF3
ENDCHAR
STARTCHAR uni256A
ENCODING 9578
SWIDTH 600 0
DWIDTH 10 0
BBX 12 24 -1 -7
BITMAP
000004200000
00000C600000
00000C600000
00000C600000
00000C600000
00000C600000
00000C600000
00000C600000
00000C600000
00000C600000
9FFFFFFFFFF3
00000C600000
00000C600000
9FFFFFFFFFF3
00000C600000
00000C600000
00000C600000
00000C600000
00000C600000
00000C600000
00000C600000
00000C600000
00000C600000
000004200000
ENDCHAR
STARTCHAR uni256B
ENCODING 9579
SWIDTH 600 0
DWIDTH 10 0
BBX 12 23 -1 -7
BITMAP
000191560000
0001F39A0000
0001F39A0000
0001F39A0000
0001F39A0000
0001F39A0000
0001F39A0000
0001F39A0000
0001F39A0000
0001F39A0000
0001F39A0000
9FFFFFFFFFF3
0001F39A0000
0001F39A0000
0001F39A0000
0001F39A0000
0001F39A0000
0001F39A0000
0001F39A0000
0001F39A0000
0001F39A0000
0001F39A0000
000191560000
ENDCHAR
STARTCHAR uni256C
ENCODING 9580
SWIDTH 600 0
DWIDTH 10 0
BBX 12 24 -1 -7
BITMAP
000051330000
0001F39A0000
0001F39A0000
0001F39A0000
0001F39A0000
0001F39A0000
0001F39A0000
0001F39A0000
0001F39A0000
0001F39A0000
9FFFF39FFFF3
000000000000
000000000000
9FFFF39FFFF3
0001F39A0000
0001F39A0000
0001F39A0000
0001F39A0000
0001F39A0000
0001F39A0000
0001F39A0000
0001F39A0000
0001F39A0000
000051330000
ENDCHAR
STARTCHAR uni256D
ENCODING 9581
SWIDTH 600 0
DWIDTH 10 0
BBX 7 12 4 -7
BITMAP
003ADF30
05FA3000
2F700000
8C000000
B7000000
C6000000
C6000000
C6000000
C6000000
C6000000
C6000000
74000000
ENDCHAR
STARTCHAR uni256E
ENCODING 9582
SWIDTH 600 0
DWIDTH 10 0
BBX 7 12 -1 -7
BITMAP
9EC71000
015DD100
0001CA00
00003F20
00000E50
00000C60
00000C60
00000C60
00000C60
00000C60
00000C60
00000740
ENDCHAR
STARTCHAR uni256F
ENCODING 9583
SWIDTH 600 0
DWIDTH 10 0
BBX 7 12 -1 4
BITMAP
00000740
00000C60
00000C60
00000C60
00000C60
00000C60
00000C60
00000E50
00003F20
0001CA00
015DD100
9EC71000
ENDCHAR
STARTCHAR uni2570
ENCODING 9584
SWIDTH 600 0
DWIDTH 10 0
BBX 7 12 4 4
BITMAP
74000000
C6000000
C6000000
C6000000
C6000000
C6000000
C6000000
B7000000
8C000000
2F700000
05FA2000
003ADF30
ENDCHAR
STARTCHAR uni2571
ENCODING 9585
SWIDTH 600 0
DWIDTH 10 0
BBX 10 19 0 -5
BITMAP
0000000059
00000000D7
00000005E1
0000000D80
0000006E10
000000D800
000006E100
00000D7000
00006E1000
0000D70000
0006E10000
000D700000
006E100000
00D7000000
06E1000000
0D70000000
7E10000000
E700000000
E100000000
ENDCHAR
STARTCHAR uni2572
ENCODING 9586
SWIDTH 600 0
DWIDTH 10 0
BBX 10 19 0 -5
BITMAP
E100000000
E700000000
7E10000000
0D70000000
06E1000000
00D7000000
006E100000
000D700000
0006E10000
0000D70000
00006E1000
00000D7000
000006E100
000000D800
0000006E10
0000000D80
00000005E1
00000000D7
0000000059
ENDCHAR
STARTCHAR uni2573
ENCODING 9587
SWIDTH 600 0
DWIDTH 10 0
BBX 10 19 0 -5
BITMAP
E100000059
E7000000D7
7E100005E1
0D70000D80
06E1005E10
00D700D800
006E15E100
000D7D7000
0006FE1000
0001F90000
0006FE1000
000D7D7000
006E15E100
00D700D800
06E1005E10
0D70000D80
7E100005E1
E7000000D7
E100000059
ENDCHAR
STARTCHAR uni2574
ENCODING 9588
SWIDTH 600 0
DWIDTH 10 0
BBX 7 1 -1 4
BITMAP
9FFFFF60
ENDCHAR
STARTCHAR uni2575
ENCODING 9589
SWIDTH 600 0
DWIDTH 10 0
BBX 2 12 4 4
BITMAP
C6
C6
C6
C6
C6
C6
C6
C6
C6
C6
C6
C6
ENDCHAR
STARTCHAR uni2576
ENCODING 9590
SWIDTH 600 0
DWIDTH 10 0
BBX 7 1 4 4
BITMAP
CFFFFF30
ENDCHAR
STARTCHAR uni2577
ENCODING 9591
SWIDTH 600 0
DWIDTH 10 0
BBX 2 12 4 -6
BITMAP
C6
C6
C6
C6
C6
C6
C6
C6
C6
C6
C6
C6
ENDCHAR
STARTCHAR uni2578
ENCODING 9592
SWIDTH 600 0
DWIDTH 10 0
BBX 7 3 -1 3
BITMAP
9FFFFF60
9FFFFF60
9FFFFF60
ENDCHAR
STARTCHAR uni2579
ENCODING 9593
SWIDTH 600 0
DWIDTH 10 0
BBX 4 12 3 4
BITMAP
7FF1
7FF1
7FF1
7FF1
7FF1
7FF1
7FF1
7FF1
7FF1
7FF1
7FF1
7FF1
ENDCHAR
STARTCHAR uni257A
ENCODING 9594
SWIDTH 600 0
DWIDTH 10 0
BBX 7 3 4 3
BITMAP
CFFFFF30
CFFFFF30
CFFFFF30
ENDCHAR
STARTCHAR uni257B
ENCODING 9595
SWIDTH 600 0
DWIDTH 10 0
BBX 4 12 3 -6
BITMAP
7FF1
7FF1
7FF1
7FF1
7FF1
7FF1
7FF1
7FF1
7FF1
7FF1
7FF1
7FF1
ENDCHAR
STARTCHAR uni257C
ENCODING 9596
SWIDTH 600 0
DWIDTH 10 0
BBX 12 3 -1 3
BITMAP
000008999992
9FFFFFFFFFF3
000008999992
ENDCHAR
STARTCHAR uni257D
ENCODING 9597
SWIDTH 600 0
DWIDTH 10 0
BBX 4 22 3 -6
BITMAP
0C60
0C60
0C60
0C60
0C60
0C60
0C60
0C60
0C60
0C60
4EC0
7FF1
7FF1
7FF1
7FF1
7FF1
7FF1
7FF1
7FF1
7FF1
7FF1
7FF1
ENDCHAR
STARTCHAR uni257E
ENCODING 9598
SWIDTH 600 0
DWIDTH 10 0
BBX 12 3 -1 3
BITMAP
699999400000
9FFFFFFFFFF3
699999400000
ENDCHAR
STARTCHAR uni257F
ENCODING 9599
SWIDTH 600 0
DWIDTH 10 0
BBX 4 22 3 -6
BITMAP
7FF1
7FF1
7FF1
7FF1
7FF1
7FF1
7FF1
7FF1
7FF1
7FF1
7FF1
4EC0
0C60
0C60
0C60
0C60
0C60
0C60
0C60
0C60
0C60
0C60
ENDCHAR
STARTCHAR uni2580
ENCODING 9600
SWIDTH 600 0
DWIDTH 10 0
BBX 10 11 0 5
BITMAP
FFFFFFFFF9
FFFFFFFFF9
FFFFFFFFF9
FFFFFFFFF9
FFFFFFFFF9
FFFFFFFFF9
FFFFFFFFF9
FFFFFFFFF9
FFFFFFFFF9
FFFFFFFFF9
FFFFFFFFF9
ENDCHAR
STARTCHAR uni2581
ENCODING 9601
SWIDTH 600 0
DWIDTH 10 0
BBX 10 2 0 -6
BITMAP
FFFFFFFFF9
FFFFFFFFF9
ENDCHAR
STARTCHAR uni2582
ENCODING 9602
SWIDTH 600 0
DWIDTH 10 0
BBX 10 5 0 -6
BITMAP
FFFFFFFFF9
FFFFFFFFF9
FFFFFFFFF9
FFFFFFFFF9
FFFFFFFFF9
ENDCHAR
STARTCHAR uni2583
ENCODING 9603
SWIDTH 600 0
DWIDTH 10 0
BBX 10 8 0 -6
BITMAP
FFFFFFFFF9
FFFFFFFFF9
FFFFFFFFF9
FFFFFFFFF9
FFFFFFFFF9
FFFFFFFFF9
FFFFFFFFF9
FFFFFFFFF9
ENDCHAR
STARTCHAR uni2584
ENCODING 9604
SWIDTH 600 0
DWIDTH 10 0
BBX 10 11 0 -6
BITMAP
FFFFFFFFF9
FFFFFFFFF9
FFFFFFFFF9
FFFFFFFFF9
FFFFFFFFF9
FFFFFFFFF9
FFFFFFFFF9
FFFFFFFFF9
FFFFFFFFF9
FFFFFFFFF9
FFFFFFFFF9
ENDCHAR
STARTCHAR uni2585
ENCODING 9605
SWIDTH 600 0
DWIDTH 10 0
BBX 10 14 0 -6
BITMAP
FFFFFFFFF9
FFFFFFFFF9
FFFFFFFFF9
FFFFFFFFF9
FFFFFFFFF9
FFFFFFFFF9
FFFFFFFFF9
FFFFFFFFF9
FFFFFFFFF9
FFFFFFFFF9
FFFFFFFFF9
FFFFFFFFF9
FFFFFFFFF9
FFFFFFFFF9
ENDCHAR
STARTCHAR uni2586
ENCODING 9606
SWIDTH 600 0
DWIDTH 10 0
BBX 10 16 0 -6
BITMAP
FFFFFFFFF9
FFFFFFFFF9
FFFFFFFFF9
FFFFFFFFF9
FFFFFFFFF9
FFFFFFFFF9
FFFFFFFFF9
FFFFFFFFF9
FFFFFFFFF9
FFFFFFFFF9
FFFFFFFFF9
FFFFFFFFF9
FFFFFFFFF9
FFFFFFFFF9
FFFFFFFFF9
FFFFFFFFF9
ENDCHAR
STARTCHAR uni2587
ENCODING 9607
SWIDTH 600 0
DWIDTH 10 0
BBX 10 19 0 -6
BITMAP
FFFFFFFFF9
FFFFFFFFF9
FFFFFFFFF9
FFFFFFFFF9
FFFFFFFFF9
FFFFFFFFF9
FFFFFFFFF9
FFFFFFFFF9
FFFFFFFFF9
FFFFFFFFF9
FFFFFFFFF9
FFFFFFFFF9
FFFFFFFFF9
FFFFFFFFF9
FFFFFFFFF9
FFFFFFFFF9
FFFFFFFFF9
FFFFFFFFF9
FFFFFFFFF9
ENDCHAR
STARTCHAR uni2588
ENCODING 9608
SWIDTH 600 0
DWIDTH 10 0
BBX 10 22 0 -6
BITMAP
FFFFFFFFF9
FFFFFFFFF9
FFFFFFFFF9
FFFFFFFFF9
FFFFFFFFF9
FFFFFFFFF9
FFFFFFFFF9
FFFFFFFFF9
FFFFFFFFF9
FFFFFFFFF9
FFFFFFFFF9
FFFFFFFFF9
FFFFFFFFF9
FFFFFFFFF9
FFFFFFFFF9
FFFFFFFFF9
FFFFFFFFF9
FFFFFFFFF9
FFFFFFFFF9
FFFFFFFFF9
FFFFFFFFF9
FFFFFFFFF9
ENDCHAR
STARTCHAR uni2589
ENCODING 9609
SWIDTH 600 0
DWIDTH 10 0
BBX 9 22 0 -6
BITMAP
FFFFFFFF60
FFFFFFFF60
FFFFFFFF60
FFFFFFFF60
FFFFFFFF60
FFFFFFFF60
FFFFFFFF60
FFFFFFFF60
FFFFFFFF60
FFFFFFFF60
FFFFFFFF60
FFFFFFFF60
FFFFFFFF60
FFFFFFFF60
FFFFFFFF60
FFFFFFFF60
FFFFFFFF60
FFFFFFFF60
FFFFFFFF60
FFFFFFFF60
FFFFFFFF60
FFFFFFFF60
ENDCHAR
STARTCHAR uni258A
ENCODING 9610
SWIDTH 600 0
DWIDTH 10 0
BBX 8 22 0 -6
BITMAP
FFFFFFF3
FFFFFFF3
FFFFFFF3
FFFFFFF3
FFFFFFF3
FFFFFFF3
FFFFFFF3
FFFFFFF3
FFFFFFF3
FFFFFFF3
FFFFFFF3
FFFFFFF3
FFFFFFF3
FFFFFFF3
FFFFFFF3
FFFFFFF3
FFFFFFF3
FFFFFFF3
FFFFFFF3
FFFFFFF3
FFFFFFF3
FFFFFFF3
ENDCHAR
STARTCHAR uni258B
ENCODING 9611
SWIDTH 600 0
DWIDTH 10 0
BBX 6 22 0 -6
BITMAP
FFFFFF
FFFFFF
FFFFFF
FFFFFF
FFFFFF
FFFFFF
FFFFFF
FFFFFF
FFFFFF
FFFFFF
FFFFFF
FFFFFF
FFFFFF
FFFFFF
FFFFFF
FFFFFF
FFFFFF
FFFFFF
FFFFFF
FFFFFF
FFFFFF
FFFFFF
ENDCHAR
STARTCHAR uni258C
ENCODING 9612
SWIDTH 600 0
DWIDTH 10 0
BBX 5 22 0 -6
BITMAP
FFFFC0
FFFFC0
FFFFC0
FFFFC0
FFFFC0
FFFFC0
FFFFC0
FFFFC0
FFFFC0
FFFFC0
FFFFC0
FFFFC0
FFFFC0
FFFFC0
FFFFC0
FFFFC0
FFFFC0
FFFFC0
FFFFC0
FFFFC0
FFFFC0
FFFFC0
ENDCHAR
STARTCHAR uni258D
ENCODING 9613
SWIDTH 600 0
DWIDTH 10 0
BBX 4 22 0 -6
BITMAP
FFF9
FFF9
FFF9
FFF9
FFF9
FFF9
FFF9
FFF9
FFF9
FFF9
FFF9
FFF9
FFF9
FFF9
FFF9
FFF9
FFF9
FFF9
FFF9
FFF9
FFF9
FFF9
ENDCHAR
STARTCHAR uni258E
ENCODING 9614
SWIDTH 600 0
DWIDTH 10 0
BBX 3 22 0 -6
BITMAP
FF60
FF60
FF60
FF60
FF60
FF60
FF60
FF60
FF60
FF60
FF60
FF60
FF60
FF60
FF60
FF60
FF60
FF60
FF60
FF60
FF60
FF60
ENDCHAR
STARTCHAR uni258F
ENCODING 9615
SWIDTH 600 0
DWIDTH 10 0
BBX 2 22 0 -6
BITMAP
F3
F3
F3
F3
F3
F3
F3
F3
F3
F3
F3
F3
F3
F3
F3
F3
F3
F3
F3
F3
F3
F3
ENDCHAR
STARTCHAR uni2590
ENCODING 9616
SWIDTH 600 0
DWIDTH 10 0
BBX 6 22 4 -6
BITMAP
3FFFF9
3FFFF9
3FFFF9
3FFFF9
3FFFF9
3FFFF9
3FFFF9
3FFFF9
3FFFF9
3FFFF9
3FFFF9
3FFFF9
3FFFF9
3FFFF9
3FFFF9
3FFFF9
3FFFF9
3FFFF9
3FFFF9
3FFFF9
3FFFF9
3FFFF9
ENDCHAR
STARTCHAR uni2591
ENCODING 9617
SWIDTH 600 0
DWIDTH 10 0
BBX 10 22 -1 -7
BITMAP
00C10A4077
1010110100
3301400500
0091073055
0040031022
3301500600
0060052044
0060052044
3301500600
0040031022
0091073055
3301400500
1110110100
00C1094066
2201300300
2201300300
00C1094066
1010110111
3301400500
0091073055
0040031022
3301500600
ENDCHAR
ENDFONT
